<?xml version="1.0" standalone="no"?>
<!DOCTYPE svg PUBLIC "-//W3C//DTD SVG 1.1//EN" "http://www.w3.org/Graphics/SVG/1.1/DTD/svg11.dtd" >
<svg xmlns="http://www.w3.org/2000/svg" xmlns:xlink="http://www.w3.org/1999/xlink" version="1.1">
<metadata>
Created by FontForge 20170731 at Fri Jun  8 20:22:17 2012
 By Aleksey,,,
Copyright (c) 2009 by Karl Nawrot &#38; Radim Pesko. All rights reserved.
</metadata>
<defs>
<font id="LynoWalt" horiz-adv-x="824" >
  <font-face 
    font-family="Lyno Walt"
    font-weight="400"
    font-stretch="normal"
    units-per-em="1000"
    panose-1="2 0 5 3 0 0 0 2 0 2"
    ascent="800"
    descent="-200"
    x-height="751"
    cap-height="750"
    bbox="-110 -278 1336 1206"
    underline-thickness="50"
    underline-position="-200"
    unicode-range="U+0020-FB02"
  />
<missing-glyph horiz-adv-x="600" 
 />
    <glyph glyph-name=".notdef" horiz-adv-x="600" 
 />
    <glyph glyph-name=".null" horiz-adv-x="0" 
 />
    <glyph glyph-name="nonmarkingreturn" horiz-adv-x="333" 
 />
    <glyph glyph-name="space" unicode=" " horiz-adv-x="500" 
 />
    <glyph glyph-name="exclam" unicode="!" horiz-adv-x="243" 
d="M223 119l-39 -119h-126l-38 117l97 70l-71 563h150l-71 -563z" />
    <glyph glyph-name="quotedbl" unicode="&#x22;" horiz-adv-x="341" 
d="M131 454h-72l-39 296h150zM282 454h-72l-39 296h150z" />
    <glyph glyph-name="numbersign" unicode="#" horiz-adv-x="545" 
d="M93 187h-73v70h73v236h-73v70h73v187h71v-187h217v187h71v-187h73v-70h-73v-236h73v-70h-73v-187h-71v187h-217v-187h-71v187zM164 493v-236h217v236h-217z" />
    <glyph glyph-name="dollar" unicode="$" horiz-adv-x="324" 
d="M124 603v60h74v-59q33 -10 62 -35t43 -54l-58 -55q-35 73 -83 73q-25 0 -41.5 -15t-16.5 -40q0 -21 19.5 -35.5t58.5 -33.5q6 -3 9 -4q25 -12 40.5 -21.5t34.5 -26t28.5 -37.5t9.5 -48q0 -48 -30 -83t-76 -45v-57h-74v60q-34 11 -62.5 35.5t-41.5 53.5l57 55
q14 -30 37 -52t50 -22q26 0 43 14.5t17 39.5q0 27 -69 62q-2 2 -3.5 2.5t-3.5 1.5q-29 15 -43.5 23.5t-37 26t-32.5 40t-10 51.5q0 45 28 79.5t71 45.5z" />
    <glyph glyph-name="percent" unicode="%" horiz-adv-x="598" 
d="M20 0l483 750h75l-483 -750h-75zM281 177q0 63 42.5 105t105.5 42t105.5 -42t42.5 -105t-42.5 -105t-105.5 -42t-105.5 42t-42.5 105zM511 177q0 36 -23 59t-59 23t-59 -23t-23 -59t23 -59t59 -23t59 23t23 59zM21 574q0 63 42.5 105t105.5 42t105.5 -42t42.5 -105
t-42.5 -105t-105.5 -42t-105.5 42t-42.5 105zM251 574q0 36 -23 59t-59 23t-59 -23t-23 -59t23 -59t59 -23t59 23t23 59z" />
    <glyph glyph-name="ampersand" unicode="&#x26;" horiz-adv-x="712" 
d="M571 335h121q-23 -125 -108 -218l57 -117h-128l-21 42q-92 -57 -212 -57q-118 0 -189 59.5t-71 165.5q0 60 29 106.5t70 68.5q-35 25 -60 73t-25 96q0 97 62.5 154.5t159.5 57.5q81 0 132 -41t51 -112q0 -60 -47 -103l137 -280q33 48 42 105zM443 144l-200 411
q29 2 51 16.5t22 38.5q0 22 -16.5 34t-40.5 12q-49 0 -75.5 -28.5t-26.5 -75.5q0 -41 29 -73t71 -36v-119q-46 -4 -78 -36t-32 -76q0 -49 35.5 -80.5t109.5 -31.5q91 0 151 44z" />
    <glyph glyph-name="quotesingle" unicode="'" horiz-adv-x="190" 
d="M131 454h-72l-39 296h150z" />
    <glyph glyph-name="parenleft" unicode="(" horiz-adv-x="220" 
d="M20 375q0 116 50 219.5t130 171.5v-100q-108 -124 -108 -291t108 -291v-100q-80 68 -130 171.5t-50 219.5z" />
    <glyph glyph-name="parenright" unicode=")" horiz-adv-x="220" 
d="M200 375q0 -116 -50 -219.5t-130 -171.5v100q108 124 108 291t-108 291v100q80 -68 130 -171.5t50 -219.5z" />
    <glyph glyph-name="asterisk" unicode="*" horiz-adv-x="552" 
d="M276 463q-18 0 -31.5 -12t-13.5 -29q0 -10 6 -26t6 -25q0 -30 -21.5 -51.5t-51.5 -21.5t-51.5 21.5t-21.5 51.5q0 29 18 50t46 23q21 2 32 17q11 13 8 31t-17 28q-23 18 -49 1q-21 -14 -42 -14q-30 0 -51.5 21.5t-21.5 51.5t21.5 51.5t51.5 21.5q23 0 42 -14.5t27 -36.5
q8 -20 29 -25q17 -4 32 5t19 26q6 26 -15 44q-24 22 -24 53q0 30 21.5 51.5t51.5 21.5t51.5 -21.5t21.5 -51.5q0 -31 -24 -53q-21 -18 -15 -44q4 -17 19 -26t32 -5q21 5 29 25q8 22 27 36.5t42 14.5q30 0 51.5 -21.5t21.5 -51.5t-21.5 -51.5t-51.5 -21.5q-21 0 -42 14
q-26 17 -49 -1q-14 -10 -17 -28t8 -31q11 -15 32 -17q28 -2 46 -23t18 -50q0 -30 -21.5 -51.5t-51.5 -21.5t-51.5 21.5t-21.5 51.5q0 9 6 25t6 26q0 17 -13.5 29t-31.5 12z" />
    <glyph glyph-name="plus" unicode="+" horiz-adv-x="545" 
d="M335 123h-125v190h-190v125h190v190h125v-190h190v-125h-190v-190z" />
    <glyph glyph-name="comma" unicode="," horiz-adv-x="243" 
d="M127 0h-68l-39 117l102 73l101 -73q-14 -63 -32 -117q-19 -57 -50.5 -80.5t-88.5 -25.5v53q26 0 49.5 12t25.5 41z" />
    <glyph glyph-name="hyphen" unicode="-" horiz-adv-x="345" 
d="M20 313v125h305v-125h-305z" />
    <glyph glyph-name="period" unicode="." horiz-adv-x="243" 
d="M184 190l39 -117l-102 -73l-101 73l38 117h126z" />
    <glyph glyph-name="slash" unicode="/" horiz-adv-x="430" 
d="M20 0l318 750h72l-318 -750h-72z" />
    <glyph glyph-name="zero" unicode="0" horiz-adv-x="634" 
d="M612 486q3 -111 -1 -218q-5 -123 -87 -203.5t-207 -80.5t-207.5 80t-86.5 204q-4 113 -1 228q2 114 67.5 192t171.5 78q53 0 94 -23.5t61 -68.5l47 65q71 -36 109 -103.5t40 -149.5zM430 609l1 -13q0 -58 -33 -100t-94 -60l-44 118q47 10 47 47q0 20 -13 31t-33 11
q-51 0 -78.5 -41.5t-29.5 -108.5q-2 -89 1 -220q2 -71 47 -118t116 -47q74 0 117.5 46.5t45.5 118.5q4 102 1 214q-3 83 -51 122z" />
    <glyph glyph-name="one" unicode="1" horiz-adv-x="429" 
d="M20 315v129q120 0 188.5 65.5t68.5 187.5v53h132v-750h-132v405q-41 -46 -110.5 -70t-146.5 -20z" />
    <glyph glyph-name="two" unicode="2" horiz-adv-x="626" 
d="M128 -16l-108 103q26 60 59.5 101t92.5 74.5t144 53.5q158 37 158 165q0 69 -42.5 115.5t-112.5 46.5q-69 0 -114 -47.5t-45 -116.5h-132q0 120 86.5 203.5t205.5 83.5q121 0 203.5 -79.5t82.5 -205.5q0 -115 -77.5 -188.5t-211.5 -96.5q-76 -13 -101 -39
q71 12 105.5 3.5t80.5 -26t77 -17.5q88 0 126 62v-142q-48 -53 -133 -53q-45 0 -110.5 31.5t-106.5 31.5q-47 0 -81.5 -22.5t-45.5 -40.5z" />
    <glyph glyph-name="three" unicode="3" horiz-adv-x="611" 
d="M461 262l-1 15q-69 -53 -159 -53q-74 0 -123 44t-49 115q0 72 47.5 114.5t121.5 42.5q77 0 143 -36l1 13q0 58 -36.5 91.5t-92.5 33.5q-39 0 -72 -21t-48 -53l-101 72q33 57 92.5 91.5t127.5 34.5q107 0 183 -67.5t75 -179.5q-2 -65 -20 -116q41 -65 41 -143
q0 -118 -82.5 -197t-202.5 -79q-49 0 -95.5 15t-88 44.5t-69 79t-33.5 112.5h130q11 -56 52 -92t104 -36q69 0 112 44t43 111zM302 341q58 0 98 48q-45 36 -98 36q-22 0 -36.5 -11t-14.5 -31q0 -19 14.5 -30.5t36.5 -11.5z" />
    <glyph glyph-name="four" unicode="4" horiz-adv-x="624" 
d="M604 392q0 -82 -54.5 -137.5t-145.5 -72.5v-182h-125v177h-259v123l245 450h142l-246 -450h118v91q0 70 47 116t116 46q70 0 116 -45.5t46 -115.5zM481 391q0 17 -10.5 27.5t-27.5 10.5t-27.5 -10.5t-10.5 -27.5v-85q36 10 56 33t20 52z" />
    <glyph glyph-name="five" unicode="5" horiz-adv-x="592" 
d="M20 191l125 48q8 -57 49 -94t98 -37q65 0 108 40t43 106q0 68 -40 108.5t-105 40.5q-78 0 -131 -71l-122 29v389q44 17 92 17q51 0 137 -24.5t126 -24.5q83 0 130 47v-146q-53 -36 -119 -36q-49 0 -129.5 26t-112.5 17v-144q55 44 134 44q119 0 194 -72t75 -198
q0 -119 -80.5 -195.5t-198.5 -76.5q-97 0 -174 59t-99 148z" />
    <glyph glyph-name="six" unicode="6" horiz-adv-x="614" 
d="M283 543l29 4q121 2 206.5 -76.5t85.5 -198.5t-85.5 -204t-206.5 -84q-123 0 -207.5 84t-84.5 204q0 94 69 200q85 133 194 278h148q-61 -76 -148 -207zM476 271q0 69 -46.5 111.5t-117.5 42.5q-24 0 -42 -6v104q-32 -47 -69 -105q-27 -43 -39.5 -74t-12.5 -71
q0 -69 47 -117.5t116 -48.5q70 0 117 46.5t47 117.5z" />
    <glyph glyph-name="seven" unicode="7" horiz-adv-x="534" 
d="M369 362l99 -51v-143l-161 83l-141 -251h-145l174 310l-96 50v144l158 -83l94 165q-45 -1 -119 24.5t-111 25.5q-57 0 -101 -34v148q48 16 94 16q58 0 141.5 -25t122.5 -25q83 0 136 49v-146z" />
    <glyph glyph-name="eight" unicode="8" horiz-adv-x="622" 
d="M311 431q-35 0 -63 -14.5t-28 -27.5q0 -12 28 -26t63 -14t63 14t28 26q0 13 -28 27.5t-63 14.5zM311 226q-96 0 -169 61v-14q0 -73 49 -121t120 -48q70 0 119.5 48.5t49.5 120.5v14q-73 -61 -169 -61zM312 643q-59 0 -103.5 -40t-44.5 -94q69 40 147 40t147 -40
q0 54 -44 94t-102 40zM311 -16q-120 0 -205.5 84.5t-85.5 204.5q0 69 36 136q-15 47 -15 87q0 112 79 191t191 79t191 -79t79 -191q0 -40 -15 -87q36 -67 36 -136q0 -120 -85 -204.5t-206 -84.5z" />
    <glyph glyph-name="nine" unicode="9" horiz-adv-x="624" 
d="M341 207l-29 -4q-121 -2 -206.5 76.5t-85.5 198.5t85.5 204t206.5 84q123 0 207.5 -84t84.5 -204q0 -94 -69 -200q-85 -133 -194 -278h-148q61 76 148 207zM148 479q0 -69 46.5 -111.5t117.5 -42.5q24 0 42 6v-104q31 47 69 105q27 43 39.5 74t12.5 71q0 69 -47 117.5
t-116 48.5q-70 0 -117 -46.5t-47 -117.5z" />
    <glyph glyph-name="colon" unicode=":" horiz-adv-x="243" 
d="M184 0l39 117l-102 73l-101 -73l38 -117h126zM184 569l39 -117l-102 -73l-101 73l38 117h126z" />
    <glyph glyph-name="semicolon" unicode=";" horiz-adv-x="243" 
d="M127 0h-68l-39 117l102 73l101 -73q-14 -63 -32 -117q-19 -57 -50.5 -80.5t-88.5 -25.5v53q26 0 49.5 12t25.5 41zM184 569l39 -117l-102 -73l-101 73l38 117h126z" />
    <glyph glyph-name="less" unicode="&#x3c;" horiz-adv-x="545" 
d="M20 323v104l505 201v-135l-331 -118l331 -118v-134z" />
    <glyph glyph-name="equal" unicode="=" horiz-adv-x="545" 
d="M20 188v125h505v-125h-505zM20 438v125h505v-125h-505z" />
    <glyph glyph-name="greater" unicode="&#x3e;" horiz-adv-x="545" 
d="M525 427v-104l-505 -200v134l331 118l-331 118v135z" />
    <glyph glyph-name="question" unicode="?" horiz-adv-x="554" 
d="M394 119l-39 -119h-126l-38 117l97 70q6 27 8 61q-10 -1 -29 -1q-80 0 -139 38.5t-59 111.5q0 56 39.5 94.5t97.5 39.5q69 1 111 -40.5t47 -104.5q52 44 52 114q0 67 -43.5 108.5t-110.5 41.5q-48 0 -88 -26t-55 -64l-99 67q35 63 100 101t143 38q118 0 194.5 -75
t76.5 -190q0 -95 -57 -161.5t-144 -86.5q-35 -64 -37 -66zM294 353q-20 85 -81 85q-16 0 -28 -9.5t-12 -28.5q0 -31 45 -42.5t76 -4.5z" />
    <glyph glyph-name="at" unicode="@" horiz-adv-x="728" 
d="M408 -16q-168 2 -278 109.5t-110 279.5t111 282.5t279 110.5q122 0 210 -75t88 -192q0 -155 -137 -223l46 -125h-78l-36 101q-41 -10 -92 -10q-39 0 -85 12l-35 -103h-78l159 447h83l91 -253q90 47 90 154q0 84 -65 141t-161 57q-142 0 -230 -90t-88 -234t87 -232
t229 -88q127 0 215 77l27 -72q-49 -35 -113.5 -55t-128.5 -19zM413 508l-64 -185q32 -8 62 -8q35 0 68 6z" />
    <glyph glyph-name="A" unicode="A" horiz-adv-x="739" 
d="M20 154q0 111 99 181q-8 15 -15 34q-25 63 -25 111q0 124 87 205t219 81q137 0 234.5 -97t98.5 -255l1 -414h-134q5 117 -74 195.5t-187 78.5l-20 -1q48 -90 48 -145q0 -60 -43 -102t-111 -42q-76 0 -127 43.5t-51 126.5zM229 410l10 -22q46 11 88 11q148 0 258 -104v104
q0 114 -59.5 180t-141.5 66q-75 0 -123 -46t-48 -118q0 -37 16 -71zM223 133q0 29 -41 97q-36 -30 -35 -77q1 -21 13 -36t30 -15q15 0 24 8.5t9 22.5z" />
    <glyph glyph-name="B" unicode="B" horiz-adv-x="641" 
d="M20 275v475h132v-66q35 38 87 60t107 22q105 0 180 -68t75 -177q0 -63 -21 -116q41 -66 41 -144q0 -118 -85.5 -197.5t-208.5 -79.5q-128 0 -217.5 76t-89.5 215zM335 541q72 0 137 -35l1 15q0 56 -38 88.5t-93 32.5q-39 0 -72 -20.5t-47 -52.5l-71 51v-343
q0 -73 51 -119.5t124 -46.5q72 0 118.5 43t46.5 109l-1 16q-67 -54 -153 -54q-74 0 -122.5 43.5t-48.5 115.5t47 114.5t121 42.5zM339 343q55 0 93 49q-42 33 -93 33q-21 0 -35 -11.5t-14 -29.5t14 -29.5t35 -11.5z" />
    <glyph glyph-name="C" unicode="C" horiz-adv-x="724" 
d="M379 513h126q6 -34 39 -34q15 0 25 10t10 25q0 61 -49.5 95.5t-120.5 34.5q-114 0 -185.5 -76.5t-71.5 -192.5t74 -190t192 -74q145 0 236 85l13 -136q-45 -36 -117 -56t-134 -20q-181 0 -288.5 111.5t-107.5 280.5q0 168 112 279t279 111q123 0 208 -71.5t85 -182.5
q0 -67 -45.5 -111t-115.5 -44t-116 44t-48 112z" />
    <glyph glyph-name="D" unicode="D" horiz-adv-x="863" 
d="M35 521l-15 132q90 58 191.5 85.5t193.5 27.5q119 0 217 -43.5t159.5 -134t61.5 -213.5q0 -165 -116 -277.5t-287 -112.5q-182 0 -301 91t-119 238q0 82 51 128.5t134 48.5v118q-94 -30 -170 -88zM537 333l-64 -113q-71 55 -136 87v-186q51 -14 108 -14q117 0 191.5 76.5
t74.5 191.5q0 128 -86.5 199.5t-217.5 71.5q-41 0 -70 -5v-189q45 -22 95 -52t78 -48zM149 311q0 -69 56 -123v175q-25 0 -40.5 -14.5t-15.5 -37.5z" />
    <glyph glyph-name="E" unicode="E" horiz-adv-x="582" 
d="M152 277l-1 -15q0 -67 43.5 -110.5t111.5 -43.5q101 0 149 87l107 -71q-38 -68 -109 -104t-147 -36q-127 0 -206.5 76.5t-79.5 196.5q0 80 42 146q-20 55 -20 116q0 110 73 178.5t185 68.5q113 0 187 -74l-92 -86q-39 36 -95 36q-55 0 -92.5 -34t-37.5 -91l1 -13
q67 36 143 36q74 0 121.5 -42.5t47.5 -114.5q0 -71 -49 -115t-123 -44q-90 0 -159 53zM310 341q21 0 36 11.5t15 30.5t-15 30.5t-36 11.5q-54 0 -99 -36q40 -48 99 -48z" />
    <glyph glyph-name="F" unicode="F" horiz-adv-x="473" 
d="M453 627h-301v-192l301 158v-140l-168 -83q34 -22 56.5 -64.5t22.5 -102.5q0 -109 -48.5 -164t-122.5 -55q-173 0 -173 221v545h433v-123zM235 202q0 41 -21.5 72t-61.5 31v-101q0 -50 10 -71t31 -21q42 0 42 90z" />
    <glyph glyph-name="G" unicode="G" horiz-adv-x="716" 
d="M411 644q-116 0 -187.5 -76.5t-71.5 -193.5q0 -102 58 -172t155 -87v109q0 76 47 124t121 48q71 0 117 -43.5t46 -115.5q0 -82 -58.5 -149.5t-141.5 -92.5v-43h-131v35q-159 16 -252 124t-93 264q0 168 112 279.5t279 111.5q115 0 201 -44l-24 -130q-78 52 -177 52z
M566 238q0 15 -10 24.5t-23 9.5q-37 0 -37 -50v-94q70 37 70 110z" />
    <glyph glyph-name="H" unicode="H" horiz-adv-x="620" 
d="M204 0h-132v271q-30 10 -52 24v149q20 -21 52 -35v341h132v-362q114 -2 192 94t72 268h132v-750h-132v388q-40 -64 -109.5 -101t-153.5 -35z" />
    <glyph glyph-name="I" unicode="I" horiz-adv-x="172" 
d="M20 0v750h132v-750h-132z" />
    <glyph glyph-name="J" unicode="J" horiz-adv-x="540" 
d="M520 339q-15 1 -44 1v-98q0 -118 -64 -188t-166 -70q-94 0 -144 56t-50 135q0 61 23.5 111t65 83.5t92.5 55t111 31.5v155l-324 -145v138l326 146h130v-284h44v-127zM344 241v90q-72 -16 -113 -56t-41 -102q0 -25 16 -42t41 -17q47 0 72 34.5t25 92.5z" />
    <glyph glyph-name="K" unicode="K" horiz-adv-x="657" 
d="M254 556q35 0 88.5 -17.5t105.5 -59.5q46 112 -4 271h130q57 -215 -39 -369q93 -142 102 -381h-135q-3 180 -56 285q-82 -59 -191 -59q-60 0 -103 32v-258h-132v750h132v-226q45 32 102 32zM254 350q66 0 118 33q-58 50 -118 50q-22 0 -36 -11t-14 -30q0 -20 14 -31
t36 -11z" />
    <glyph glyph-name="L" unicode="L" horiz-adv-x="707" 
d="M190 298q67 0 127 -41l188 493h138l-218 -572q90 -56 166 -56q57 0 96 27v-130q-44 -23 -109 -23q-107 0 -213 72q-66 -84 -175 -84q-74 0 -122 43.5t-48 112.5t48.5 113.5t121.5 44.5zM190 104q44 0 75 44q-43 28 -75 28q-20 0 -33 -10t-13 -26q0 -17 13 -26.5t33 -9.5z
" />
    <glyph glyph-name="M" unicode="M" horiz-adv-x="1002" 
d="M982 520v-520h-132v530q0 50 -27 79.5t-75 29.5q-39 0 -62.5 -16.5t-42.5 -49.5l-27 -47l72 -146q56 -113 56 -204t-54.5 -141.5t-144.5 -50.5t-146 50.5t-56 139.5q0 88 59 206q34 70 74 145l-46 89l-265 -614h-145l328 750h159l44 -91q71 107 197 107q114 0 174 -68
t60 -178zM568 338l-23 49l-23 -49q-43 -96 -43 -159q0 -30 17.5 -50t47.5 -20t48 20t18 50q0 69 -42 159z" />
    <glyph glyph-name="N" unicode="N" horiz-adv-x="758" 
d="M606 519l48 -91q84 -160 84 -256q0 -89 -55.5 -138.5t-145.5 -49.5t-146 49t-56 137q0 91 84 260l44 88l-21 37q-24 41 -60 64t-76 23q-74 0 -115 -41.5t-41 -120.5v-480h-130l1 484q0 135 78 208.5t206 73.5q142 0 224 -114l48 98h145q-62 -122 -116 -231zM469 176
q0 -29 19 -48t49 -19q31 0 49.5 19t18.5 49q0 29 -10.5 65.5t-21 59.5t-32.5 69l-5 12l-4 -12q-63 -134 -63 -195z" />
    <glyph glyph-name="O" unicode="O" 
d="M411 766q162 0 277.5 -113.5t115.5 -275.5q0 -164 -114 -278.5t-278 -114.5q-167 0 -279.5 114t-111.5 279q0 86 35 161.5t97 130.5l44 -47q11 68 72.5 106t141.5 38zM152 377q2 -119 73.5 -194t186.5 -75q114 0 187 76t73 193q0 105 -64 178q-27 -57 -83 -93t-122 -36
q-74 0 -127 29.5t-72 83.5q-53 -73 -52 -162zM411 651q-40 0 -65 -14t-25 -38t23 -38.5t58 -14.5q36 0 66.5 20t42.5 55q-36 30 -100 30z" />
    <glyph glyph-name="P" unicode="P" horiz-adv-x="664" 
d="M336 159q-103 0 -184 58v-217h-132v461q0 141 92 223t222 82q128 0 219 -85t91 -219q0 -136 -89.5 -219.5t-218.5 -83.5zM334 642q-77 0 -129.5 -50.5t-52.5 -129.5v-176l48 61q23 -28 60 -46t77 -18q80 0 129 49t49 130t-52.5 130.5t-128.5 49.5z" />
    <glyph glyph-name="Q" unicode="Q" horiz-adv-x="831" 
d="M194 127l-44 -46q-61 54 -95 130.5t-34 163.5q-1 164 112 277.5t276 113.5q162 0 275.5 -113.5t113.5 -277.5q0 -126 -76 -229q59 -72 89 -146l-141 -11q-16 31 -41 65q-100 -70 -221 -70q-80 0 -141.5 37.5t-72.5 105.5zM666 375q0 115 -72 191.5t-185 76.5
q-114 0 -185.5 -76t-71.5 -192q0 -95 50 -165q20 53 75.5 82t128.5 29q110 0 225 -88q35 65 35 142zM403 203q-38 0 -61.5 -14.5t-23.5 -38.5q0 -23 24 -38t63 -15q80 0 144 44q-74 62 -146 62z" />
    <glyph glyph-name="R" unicode="R" horiz-adv-x="651" 
d="M505 478q0 73 -50 118.5t-127 45.5q-75 0 -125.5 -52t-50.5 -128v-462h-132v465q0 127 90 214t220 87q127 0 214 -78.5t87 -205.5q0 -125 -71 -209q12 -118 -46 -273h-135q41 102 52 191q-41 -12 -88 -12q-82 0 -129 43t-47 115q0 68 47.5 112t126.5 44q89 0 156 -70
q8 29 8 55zM342 372q-21 0 -34 -9.5t-13 -26.5t13.5 -28t37.5 -11q39 0 73 21q-25 54 -77 54z" />
    <glyph glyph-name="S" unicode="S" horiz-adv-x="514" 
d="M45 194q0 112 90 170q-55 33 -85 75t-30 106q0 96 67 158.5t165 62.5q76 0 140 -40t102 -118l-95 -91q-23 49 -63 85.5t-84 36.5t-70.5 -24t-26.5 -65q0 -35 33.5 -61.5t103.5 -60.5q35 -17 55 -28t50.5 -33t47 -43.5t29.5 -54.5t13 -72q0 -93 -64.5 -153t-159.5 -60
q-94 0 -156 59.5t-62 150.5zM350 194q0 47 -48 76q-17 7 -37 7q-36 0 -60.5 -22t-24.5 -61q0 -38 24.5 -60.5t60.5 -22.5t60.5 22.5t24.5 60.5z" />
    <glyph glyph-name="T" unicode="T" horiz-adv-x="780" 
d="M760 749v-133q-41 22 -80 22q-64 0 -163 -70v-568h-132v475q-59 -38 -142 -38q-102 0 -162.5 44.5t-60.5 119.5q0 70 63.5 117.5t166.5 47.5q60 0 117 -20.5t97 -55.5q107 78 205 78q50 0 91 -19zM247 642q-41 0 -64 -11.5t-23 -29.5t22 -29.5t63 -11.5q68 0 115 42
q-40 40 -113 40z" />
    <glyph glyph-name="U" unicode="U" horiz-adv-x="758" 
d="M104 322q-84 160 -84 256q0 89 55.5 138.5t145.5 49.5t146 -49t56 -137q0 -91 -84 -260l-44 -88l21 -37q24 -41 60 -64t76 -23q74 0 115 41.5t41 120.5v480h130l-1 -484q0 -135 -78 -208.5t-206 -73.5q-143 0 -224 113l-48 -97h-145q61 122 116 230q-26 48 -48 92z
M222 367l5 12q62 132 62 195q0 30 -19.5 48.5t-48.5 18.5q-30 0 -49 -19t-19 -50q0 -29 10.5 -65.5t20.5 -58.5t33 -69z" />
    <glyph glyph-name="V" unicode="V" horiz-adv-x="789" 
d="M744 563q4 -72 -9 -139q19 -6 34 -9v-138q-36 8 -73 21q-67 -154 -211 -298h-142l-323 750h147l266 -627q101 115 146 219q-37 14 -68 30q-78 36 -123.5 83t-45.5 123q0 82 58 135t138 53q91 0 145 -56.5t61 -146.5zM617 558q-3 37 -24 59.5t-51 22.5q-29 0 -47.5 -17.5
t-18.5 -43.5q0 -49 69 -83q20 -10 69 -30q6 45 3 92z" />
    <glyph glyph-name="W" unicode="W" horiz-adv-x="993" 
d="M980 750l2 -520q1 -109 -59.5 -177.5t-174.5 -68.5q-127 0 -197 106l-44 -90h-159l-328 750h145l265 -615l46 90q-40 75 -74 145q-59 118 -59 204q0 89 56.5 140.5t145.5 51.5q90 0 144.5 -50.5t54.5 -141.5t-56 -204l-72 -146l28 -47q20 -33 43 -49.5t61 -16.5
q48 0 75 29.5t27 79.5v530h130zM545 363l23 49q42 90 42 159q0 30 -18 50t-48 20t-47.5 -20t-17.5 -50q0 -67 43 -159z" />
    <glyph glyph-name="X" unicode="X" horiz-adv-x="798" 
d="M198 647q-25 0 -39.5 -12t-14.5 -32q0 -19 13 -31.5t34 -14.5v-122q-70 1 -120.5 49.5t-50.5 119.5q0 73 52 117.5t133 44.5q91 0 171 -49.5t130 -132.5q94 143 272 166v-124q-96 -15 -154 -82.5t-58 -164.5q0 -95 56.5 -166t153.5 -89v-124q-83 8 -154.5 52.5
t-117.5 114.5q-53 -82 -139.5 -129.5t-192.5 -47.5q-46 0 -77 10l-7 125q36 -12 85 -12q110 0 187 74.5t77 190.5q0 110 -70 189.5t-169 79.5z" />
    <glyph glyph-name="Y" unicode="Y" horiz-adv-x="814" 
d="M20 630q0 72 27 120h138q-35 -45 -35 -118q0 -96 52 -165.5t139 -91.5l77 192q21 51 37.5 81.5t43 61.5t62 45t82.5 14q65 0 108 -43.5t43 -118.5q0 -141 -111 -246.5t-255 -115.5l-104 -245h-144l111 257q-121 35 -196 136.5t-75 236.5zM661 603q1 17 -8 28t-23 11
q-12 0 -22.5 -9t-22.5 -30t-18.5 -34.5t-19.5 -44.5l-62 -143q73 25 123.5 87.5t52.5 134.5z" />
    <glyph glyph-name="Z" unicode="Z" horiz-adv-x="606" 
d="M586 750v-125l-130 -216q107 -72 107 -202q0 -96 -62.5 -159.5t-162.5 -63.5q-98 0 -154 52l82 102q30 -32 72 -32q44 0 71.5 30t27.5 73q0 62 -49 98q-38 -54 -62 -83q-28 -33 -68 -52t-80 -19q-69 0 -113.5 44.5t-44.5 113.5q0 72 53 118t131 46q71 2 140 -17l103 172
h-411v120h550zM184 272q18 0 36.5 15t28.5 28.5t24 36.5q-42 5 -66 5q-29 0 -47 -11.5t-18 -34.5q0 -18 11.5 -28.5t30.5 -10.5z" />
    <glyph glyph-name="bracketleft" unicode="[" horiz-adv-x="220" 
d="M200 0h-180v750h180v-69h-108v-612h108v-69z" />
    <glyph glyph-name="backslash" unicode="\" horiz-adv-x="430" 
d="M92 750l318 -750h-72l-318 750h72z" />
    <glyph glyph-name="bracketright" unicode="]" horiz-adv-x="220" 
d="M200 0h-180v69h108v612h-108v69h180v-750z" />
    <glyph glyph-name="asciicircum" unicode="^" horiz-adv-x="545" 
d="M222 750h104l199 -505h-132l-119 331l-119 -331h-135z" />
    <glyph glyph-name="underscore" unicode="_" horiz-adv-x="545" 
d="M525 -72h-505v72h505v-72z" />
    <glyph glyph-name="grave" unicode="`" horiz-adv-x="364" 
d="M152 790l-102 60v119l264 -179h-162z" />
    <glyph glyph-name="a" unicode="a" horiz-adv-x="817" 
d="M797 368q-3 -138 -86 -241q41 -19 90 -22l1 -121q-111 4 -192 55q-93 -55 -201 -55q-162 0 -275.5 113.5t-113.5 277.5q0 163 113.5 277t275.5 114q89 0 166.5 -36.5t131.5 -101.5l-63 -57q69 -8 110.5 -63t42.5 -140zM449 369q1 71 38 129.5t104 71.5q-73 73 -182 73
q-114 0 -185.5 -76t-71.5 -192t71.5 -192t185.5 -76q59 0 109 21q-69 98 -69 241zM575 352q0 -82 42 -146q50 67 50 158q0 33 -12 56.5t-33 23.5q-22 0 -34.5 -25.5t-12.5 -66.5z" />
    <glyph glyph-name="b" unicode="b" horiz-adv-x="772" 
d="M30 261q23 -19 38 -29v225q0 138 91.5 223.5t215.5 85.5q61 0 114 -18.5t93.5 -53.5t63 -91.5t20.5 -127.5q86 -81 86 -203q0 -130 -98.5 -209t-243.5 -79q-128 0 -218.5 38.5t-171.5 100.5zM622 272q0 30 -9 55q-75 -99 -189 -99q-76 0 -119 44.5t-43 114.5
q1 74 55.5 121.5t135.5 47.5q36 0 81 -10q-17 46 -58.5 72t-100.5 26q-77 0 -126 -50.5t-49 -131.5v-307q103 -48 208 -48q94 0 154 45t60 120zM430 349q31 0 58 21.5t42 54.5q-26 13 -59 13q-34 0 -59 -13t-25 -37q0 -18 11.5 -28.5t31.5 -10.5z" />
    <glyph glyph-name="c" unicode="c" horiz-adv-x="720" 
d="M412 653q-59 0 -99 -28q10 -34 40 -56.5t67 -22.5q38 0 59 14t21 38q0 25 -24 40t-64 15zM624 198l76 -91q-54 -58 -130 -90.5t-159 -32.5q-170 0 -280.5 109t-110.5 281q0 102 47 188.5t127 139.5q6 40 20 76h120q-7 -13 -10 -25q31 13 96 13q86 0 147 -46.5t61 -121.5
q0 -79 -60.5 -124.5t-148.5 -45.5q-68 0 -125.5 34t-82.5 90q-61 -70 -61 -178q0 -119 72.5 -193t192.5 -74q61 0 118.5 26t90.5 65z" />
    <glyph glyph-name="d" unicode="d" horiz-adv-x="869" 
d="M20 303q0 84 50.5 139t135.5 55q2 129 78.5 199t193.5 70q155 0 263 -113t108 -277q0 -166 -113 -279t-283 -113q-118 0 -216.5 38.5t-157.5 112t-59 168.5zM449 396l-14 -144q-51 40 -98 67v-195q58 -16 116 -16q116 0 190 74t74 194q0 122 -67 195t-172 73
q-65 0 -103 -42.5t-38 -114.5v-25q59 -29 112 -66zM148 304q0 -63 58 -115v175q-28 1 -43 -17.5t-15 -42.5z" />
    <glyph glyph-name="e" unicode="e" horiz-adv-x="581" 
d="M149 488l1 -17q71 55 160 55q74 0 123 -43.5t49 -114.5q0 -72 -47.5 -115t-121.5 -43q-76 0 -143 36l-1 -13q0 -58 37 -91.5t95 -33.5q56 0 100 40l87 -90q-74 -74 -189 -74q-112 0 -186.5 66.5t-74.5 180.5q0 61 22 118q-40 63 -40 141q0 119 81 197.5t203 78.5
q75 0 145 -36.5t112 -103.5l-107 -71q-49 89 -151 89q-70 0 -112 -43.5t-42 -112.5zM309 409q-58 0 -99 -49q47 -35 99 -35q21 0 36 11.5t15 31.5q0 19 -15 30t-36 11z" />
    <glyph glyph-name="f" unicode="f" horiz-adv-x="594" 
d="M366 441h208v-132h-208v-112q0 -101 -45.5 -157t-128.5 -56q-77 0 -124.5 55t-47.5 164q0 97 57 165.5t157 72.5v309h132l208 -82v-139l-208 83v-171zM149 200q0 -87 43 -87q42 0 42 81v115q-85 -3 -85 -109z" />
    <glyph glyph-name="g" unicode="g" horiz-adv-x="871" 
d="M670 670v79h132v-446q25 10 49 16v-139q-23 -7 -49 -18v-201q0 -82 -50 -132.5t-130 -50.5q-81 0 -127 44.5t-46 119.5q0 23 14 51q-17 -8 -54 -8q-175 0 -282 110t-107 279q0 165 112.5 278.5t278.5 113.5q149 0 259 -96zM670 366v243q-10 -9 -25.5 -25t-24 -24t-9.5 -8
q-81 91 -200 91q-117 0 -188.5 -77t-71.5 -192q0 -119 72 -193t188 -74q99 0 176.5 73t82.5 186zM580 -55q0 -18 12 -31t31 -13q21 0 34 17t13 41v126q-90 -69 -90 -140z" />
    <glyph glyph-name="h" unicode="h" horiz-adv-x="757" 
d="M338 651q156 0 267 -121v220h132v-750h-132v169q0 159 -76 259t-193 100l-13 -1v-527h-133q-83 84 -126.5 166.5t-43.5 188.5q0 91 45.5 161t125.5 105v129h132v-99h15zM150 359q0 -76 42 -157v274q-42 -45 -42 -117z" />
    <glyph glyph-name="i" unicode="i" horiz-adv-x="203" 
d="M168 599v-599h-132v599h132zM151 766l32 -94l-82 -58l-81 58l31 94h100z" />
    <glyph glyph-name="j" unicode="j" horiz-adv-x="543" 
d="M344 599l-324 -199v-138l324 196v-211q-221 -109 -221 -256q0 -75 49.5 -121.5t126.5 -46.5q76 0 126.5 50.5t50.5 127.5v161l47 14v137q-26 -6 -47 -13v299h-132zM461 766l32 -94l-82 -58l-81 58l31 94h100zM254 -10q0 59 90 114v-107q0 -23 -13 -37t-33 -14
q-21 0 -32.5 12t-11.5 32z" />
    <glyph glyph-name="k" unicode="k" horiz-adv-x="632" 
d="M586 0h-134q34 99 34 196q0 89 -32 151q-56 -108 -166 -108q-91 0 -136 71v-310h-132v750h132v-259q54 77 160 77q45 0 89 -16l72 198h139l-102 -270q101 -103 101 -287q0 -93 -25 -193zM289 360q23 0 42 19.5t29 54.5q-29 11 -55 11t-42 -13t-16 -33q0 -17 11.5 -28
t30.5 -11z" />
    <glyph glyph-name="l" unicode="l" horiz-adv-x="317" 
d="M297 150q-67 2 -110 -42t-41 -108h-126v750h132v-516q57 55 145 55v-139z" />
    <glyph glyph-name="m" unicode="m" horiz-adv-x="926" 
d="M382 181q0 118 58 217.5t159 130.5v20q0 42 -25.5 67.5t-68.5 25.5q-71 0 -112 -90l-241 -552h-132v750h132v-449l118 294q36 87 91.5 129t146.5 42q96 0 158.5 -55t62.5 -154v-21q79 -16 128 -76.5t49 -148.5v-311h-128v310q0 68 -49 93v-187q0 -124 -49 -178t-127 -54
q-79 0 -125 55t-46 142zM553 108q46 0 46 84v198q-89 -61 -89 -214q0 -29 11.5 -48.5t31.5 -19.5z" />
    <glyph glyph-name="n" unicode="n" horiz-adv-x="764" 
d="M20 213q0 90 33 193t93 185q-39 64 -108 159h145q19 -26 47 -68q102 84 225 84q122 0 205 -79t83 -209l1 -478h-130v480q0 75 -43.5 119.5t-115.5 44.5q-88 0 -161 -67q128 -223 128 -379q0 -93 -55.5 -153.5t-143.5 -60.5q-92 0 -147.5 63t-55.5 166zM292 194
q3 117 -78 277q-63 -118 -63 -268q0 -43 19 -68.5t52 -25.5q32 0 50.5 25t19.5 60z" />
    <glyph glyph-name="o" unicode="o" 
d="M535 745q-4 14 -7 21h118q10 -40 7 -84q70 -55 110.5 -134t40.5 -171q0 -164 -114 -278.5t-278 -114.5q-166 0 -279 114.5t-112 278.5q0 86 35 161.5t97 130.5l44 -47q11 68 72.5 106t141.5 38q61 0 124 -21zM152 377q0 -118 72.5 -193.5t187.5 -75.5q114 0 187 76
t73 193q0 106 -61 176q-26 -56 -84 -91.5t-125 -35.5q-73 0 -126 29t-72 84q-52 -71 -52 -162zM411 651q-40 0 -65 -14t-25 -38t23 -38.5t58 -14.5q36 0 66.5 20t42.5 55q-36 30 -100 30z" />
    <glyph glyph-name="p" unicode="p" horiz-adv-x="820" 
d="M167 569l-46 114q112 83 281 83q107 0 197.5 -47.5t145.5 -138.5t55 -207q0 -172 -115.5 -280.5t-281.5 -108.5q-23 0 -42 3v-153h-126v180q-101 41 -158 124t-57 199q0 91 47 144.5t124 53.5q83 0 126.5 -58.5t43.5 -151.5v-213q20 -3 40 -3q113 0 189.5 74.5
t76.5 189.5q0 116 -76 192.5t-191 76.5q-132 0 -233 -73zM235 145v180q0 42 -12.5 61.5t-32.5 18.5t-32 -20t-12 -48q0 -130 89 -192z" />
    <glyph glyph-name="q" unicode="q" horiz-adv-x="820" 
d="M699 683l-46 -114q-101 73 -233 73q-115 0 -191 -76.5t-76 -192.5q0 -115 76.5 -189.5t189.5 -74.5q20 0 40 3v213q0 93 43.5 151.5t126.5 58.5q77 0 124 -53.5t47 -144.5q0 -116 -57 -199t-158 -124v-180h-126v153q-20 -3 -42 -3q-166 0 -281.5 108.5t-115.5 280.5
q0 116 55 207t145.5 138.5t197.5 47.5q169 0 281 -83zM585 325v-180q89 62 89 192q0 29 -12 48t-32 20t-32.5 -18.5t-12.5 -61.5z" />
    <glyph glyph-name="r" unicode="r" horiz-adv-x="641" 
d="M610 0h-129q15 68 15 132q0 92 -34 152q-22 -47 -58 -75t-62 -34.5t-52 -6.5q-93 0 -139 66v-234h-131v497q0 126 70.5 197.5t173.5 71.5q101 0 170.5 -72.5t69.5 -201.5q0 -37 -6 -64q123 -97 123 -302q0 -63 -11 -126zM309 492q32 0 69 -8q3 77 -31.5 118.5t-81.5 41.5
q-49 0 -81.5 -36t-32.5 -104v-89q50 77 158 77zM282 289q67 0 83 76q-29 10 -60 10q-29 0 -46.5 -13.5t-17.5 -35.5q0 -16 11.5 -26.5t29.5 -10.5z" />
    <glyph glyph-name="s" unicode="s" horiz-adv-x="802" 
d="M177 0h-139l77 178q-95 132 -95 283h133q-2 -77 26 -137l180 426h147q-51 -56 -39.5 -113t80.5 -94l64 -34q174 -93 170 -259q-3 -129 -90 -198.5t-218 -69.5q-144 0 -262 97zM476 106q75 0 122 39t48 106q1 95 -92 144l-63 36q-28 17 -43 27t-30.5 26.5t-19.5 32.5
l-135 -314q95 -97 213 -97z" />
    <glyph glyph-name="t" unicode="t" horiz-adv-x="524" 
d="M20 466v133h129v151h132v-151h222v-133h-151q152 -109 152 -270q0 -99 -48.5 -155.5t-127.5 -56.5q-86 0 -132.5 59.5t-46.5 156.5v238q-56 28 -129 28zM376 193q0 101 -95 176v-167q0 -91 47 -91q48 0 48 82z" />
    <glyph glyph-name="u" unicode="u" horiz-adv-x="764" 
d="M744 537q0 -90 -33 -193t-93 -185q39 -64 108 -159h-145q-19 26 -47 68q-102 -84 -225 -84q-122 0 -205 79t-83 209l-1 478h130v-480q0 -75 43.5 -119.5t115.5 -44.5q88 0 161 67q-128 223 -128 379q0 93 55.5 153.5t143.5 60.5q92 0 147.5 -63t55.5 -166zM472 556
q-3 -117 78 -277q63 118 63 268q0 43 -19 68.5t-52 25.5q-32 0 -50.5 -25t-19.5 -60z" />
    <glyph glyph-name="v" unicode="v" horiz-adv-x="872" 
d="M20 527v141q62 34 114 82h126q-19 -109 -12.5 -223t28.5 -207.5t68 -153t107 -59.5q69 0 118 71t59 223q-42 -12 -87 -12q-59 0 -103 18.5t-67 48.5t-34 61.5t-11 63.5q0 28 10 57.5t31.5 59.5t63.5 49t99 19q66 0 125 -40.5t85 -128.5q55 41 101 96l11 -159
q-38 -33 -95 -71q-2 -217 -84 -348t-225 -131q-157 0 -244.5 165t-87.5 439q-52 -36 -96 -61zM524 644q-30 0 -49.5 -15t-19.5 -43q0 -26 18.5 -47.5t58.5 -24.5q41 -4 93 16q-10 55 -38 84.5t-63 29.5z" />
    <glyph glyph-name="w" unicode="w" horiz-adv-x="1044" 
d="M623 107q69 0 118 71t59 223q-42 -12 -87 -12q-59 0 -103 18.5t-67 48.5t-34 61.5t-11 63.5q0 28 10 57.5t31.5 59.5t63.5 49t99 19q66 0 125 -40.5t85 -128.5q58 41 102 88l10 -151q-33 -30 -95 -71q-2 -217 -84 -348t-225 -131q-117 0 -191 103q-45 -103 -156 -103
q-119 0 -186 107t-67 283q0 123 57.5 228t148.5 148l65 -107q-68 -29 -105 -105t-37 -164q0 -114 33.5 -190.5t90.5 -76.5q58 0 60 100q1 64 -2 167h131q0 -112 45.5 -189.5t115.5 -77.5zM695 644q-31 0 -49.5 -16t-18.5 -42t18.5 -47.5t58.5 -24.5q41 -4 93 16
q-10 55 -38 84.5t-64 29.5z" />
    <glyph glyph-name="x" unicode="x" horiz-adv-x="798" 
d="M600 647q-100 0 -169.5 -80t-69.5 -196q0 -113 77.5 -185.5t186.5 -72.5q50 0 87 11l-12 -124q-36 -10 -74 -10q-105 0 -192.5 48t-140.5 131q-46 -71 -117.5 -116t-153.5 -53v124q97 19 153.5 89.5t56.5 165.5t-58.5 163t-153.5 84v124q87 -11 157.5 -54.5t114.5 -111.5
q51 82 131 132t170 50q81 0 133 -44t52 -116q0 -69 -51 -119.5t-120 -52.5l-8 123q21 2 38 14t17 31q0 21 -15 33t-39 12z" />
    <glyph glyph-name="y" unicode="y" horiz-adv-x="773" 
d="M406 243v290q0 101 45.5 167t129.5 66q83 0 127.5 -58.5t44.5 -152.5q0 -159 -58 -259.5t-157 -143.5v-191q0 -82 -49 -132.5t-127 -50.5q-77 0 -129.5 50t-52.5 124q0 110 84 185q-118 34 -181 131.5t-63 227.5q0 132 64 254h129q-67 -135 -67 -254q1 -116 62.5 -184.5
t161.5 -69.5q24 0 36 1zM628 560q0 83 -44 83q-46 0 -46 -102v-250q90 75 90 269zM306 125l68 -70q-58 -56 -58 -110q0 -20 11.5 -32t31.5 -12q21 0 34 15.5t13 41.5v162q-11 -1 -33 -1q-35 0 -67 6z" />
    <glyph glyph-name="z" unicode="z" horiz-adv-x="658" 
d="M638 751v-125q-113 -286 -195 -444q121 -82 121 -206q0 -96 -63 -159.5t-163 -63.5q-98 0 -154 52l82 102q30 -32 72 -32q44 0 71.5 30t27.5 73q0 56 -50 93q-44 -70 -92.5 -109.5t-116.5 -39.5q-69 0 -113.5 44.5t-44.5 113.5q0 72 53 118t131 46q62 1 126 -16
q39 71 83 172t69 166l24 65h-486v120h618zM184 41q18 0 36.5 15t28.5 28.5t24 36.5q-42 5 -66 5q-29 0 -47 -11.5t-18 -34.5q0 -18 11.5 -28.5t30.5 -10.5z" />
    <glyph glyph-name="braceleft" unicode="{" horiz-adv-x="235" 
d="M20 339v72q64 17 88 77t11 149q-6 38 2 76.5t22 52.5h72q-13 -13 -19 -54.5t-3 -74.5q22 -220 -110 -262q132 -42 110 -262q-3 -33 3 -74.5t19 -54.5h-72q-14 14 -22 52.5t-2 76.5q13 89 -11 149t-88 77z" />
    <glyph glyph-name="bar" unicode="|" horiz-adv-x="112" 
d="M92 750v-750h-72v750h72z" />
    <glyph glyph-name="braceright" unicode="}" horiz-adv-x="235" 
d="M215 411v-72q-64 -17 -88 -77t-11 -149q6 -38 -2 -76.5t-22 -52.5h-72q13 13 19 54.5t3 74.5q-22 220 110 262q-132 42 -110 262q3 33 -3 74.5t-19 54.5h72q14 -14 22 -52.5t2 -76.5q-13 -89 11 -149t88 -77z" />
    <glyph glyph-name="asciitilde" unicode="~" horiz-adv-x="545" 
d="M386 274q-47 0 -120.5 41.5t-106.5 41.5q-34 0 -63 -13t-43.5 -27t-32.5 -36v133q59 61 138 61q47 0 123 -42t109 -42q34 0 62.5 14t40.5 26.5t32 37.5v-135q-60 -60 -139 -60z" />
    <glyph glyph-name="uni00A0" unicode="&#xa0;" horiz-adv-x="600" 
 />
    <glyph glyph-name="exclamdown" unicode="&#xa1;" horiz-adv-x="243" 
d="M184 750l39 -119l-98 -68l71 -563h-150l71 563l-97 70l38 117h126z" />
    <glyph glyph-name="cent" unicode="&#xa2;" horiz-adv-x="388" 
d="M217 607v56h74v-56q43 -6 77 -27l-38 -64q-21 12 -39 16v-313q18 4 38 17l39 -66q-36 -22 -77 -28v-55h-74v56q-85 13 -141 78t-56 154t56 153.5t141 78.5zM96 375q0 -58 33.5 -101t87.5 -55v313q-55 -12 -88 -55t-33 -102z" />
    <glyph glyph-name="sterling" unicode="&#xa3;" horiz-adv-x="401" 
d="M381 407h-139v24q-2 47 -28 74.5t-57 27.5q-25 0 -41.5 -15t-16.5 -40q0 -23 18 -39t56 -35q46 -23 69.5 -49t21.5 -68q-1 -33 -29 -62h146v-75h-339v76q143 -9 143 50q0 37 -54 63q-55 27 -83 57.5t-28 81.5q0 56 40.5 93.5t97.5 37.5q55 0 97 -37.5t51 -89.5h75v-75z
" />
    <glyph glyph-name="yen" unicode="&#xa5;" horiz-adv-x="404" 
d="M163 339h-119v73h107l-131 188h89l93 -141l93 141h89l-131 -188h107v-73h-119v-115h119v-74h-316v74h119v115z" />
    <glyph glyph-name="brokenbar" unicode="&#xa6;" horiz-adv-x="112" 
d="M92 750v-296h-72v296h72zM92 296v-296h-72v296h72z" />
    <glyph glyph-name="dieresis" unicode="&#xa8;" horiz-adv-x="426" 
d="M181 936l32 -94l-82 -58l-81 58l31 94h100zM344 936l32 -94l-82 -58l-81 58l31 94h100z" />
    <glyph glyph-name="copyright" unicode="&#xa9;" horiz-adv-x="822" 
d="M20 375q0 165 114 278t277 113t277 -113t114 -278t-114 -278t-277 -113t-277 113t-114 278zM92 375q0 -135 92.5 -228t226.5 -93q133 0 226.5 93t93.5 228t-93.5 228t-226.5 93q-134 0 -226.5 -93t-92.5 -228zM417 215q89 0 133 76l55 -55q-33 -44 -82 -70t-106 -26
q-98 0 -166.5 68t-68.5 167t68.5 167t166.5 68q118 0 188 -96l-55 -55q-44 77 -133 77q-68 0 -113.5 -46.5t-45.5 -114.5t45.5 -114t113.5 -46z" />
    <glyph glyph-name="guillemotleft" unicode="&#xab;" horiz-adv-x="455" 
d="M272 463l163 162v-162l-91 -88l91 -88v-162l-163 162v176zM20 375l252 250v-162l-92 -88l92 -88v-162z" />
    <glyph glyph-name="logicalnot" unicode="&#xac;" horiz-adv-x="545" 
d="M525 0h-125v313h-380v125h505v-438z" />
    <glyph glyph-name="uni00AD" unicode="&#xad;" horiz-adv-x="345" 
d="M20 313v125h305v-125h-305z" />
    <glyph glyph-name="registered" unicode="&#xae;" horiz-adv-x="822" 
d="M20 375q0 165 114 278t277 113t277 -113t114 -278t-114 -278t-277 -113t-277 113t-114 278zM92 375q0 -135 92.5 -228t226.5 -93q133 0 226.5 93t93.5 228t-93.5 228t-226.5 93q-134 0 -226.5 -93t-92.5 -228zM434 338h-104v-188h-79v450h183q60 0 102 -36t42 -95
q0 -58 -48 -97q45 -35 54 -112q4 -46 17 -110h-82q-8 45 -16 109q-7 79 -69 79zM499 469q0 27 -18 41.5t-45 14.5h-106v-112h106q27 0 45 14.5t18 41.5z" />
    <glyph glyph-name="macron" unicode="&#xaf;" horiz-adv-x="395" 
d="M50 811v95h295v-95h-295z" />
    <glyph glyph-name="degree" unicode="&#xb0;" horiz-adv-x="336" 
d="M20 602q0 62 43 105t105 43t105 -43t43 -105t-43 -105t-105 -43t-105 43t-43 105zM251 602q0 34 -24.5 58.5t-58.5 24.5t-58.5 -24.5t-24.5 -58.5t24.5 -58.5t58.5 -24.5t58.5 24.5t24.5 58.5z" />
    <glyph glyph-name="plusminus" unicode="&#xb1;" horiz-adv-x="545" 
d="M335 245h-125v190h-190v125h190v190h125v-190h190v-125h-190v-190zM20 0v125h505v-125h-505z" />
    <glyph glyph-name="acute" unicode="&#xb4;" horiz-adv-x="364" 
d="M314 850l-102 -60h-162l264 179v-119z" />
    <glyph glyph-name="paragraph" unicode="&#xb6;" horiz-adv-x="836" 
d="M296 473v13h132v-618l-132 -1v388q-30 -30 -80 -30q-80 0 -137.5 66t-57.5 185q0 139 84.5 214.5t209.5 75.5q118 0 202 -80q48 76 137 76q68 0 115 -44t47 -118q0 -71 -47.5 -117t-114.5 -46q-20 0 -32 4v-574h-132v676q-59 98 -174 98q-75 0 -118 -44.5t-43 -118.5
q0 -51 19.5 -82.5t51.5 -31.5q29 0 49.5 27.5t20.5 81.5zM656 559q16 0 27 11t11 28q0 16 -10.5 27t-26.5 11t-25.5 -12.5t-9.5 -28.5v-26q15 -10 34 -10z" />
    <glyph glyph-name="periodcentered" unicode="&#xb7;" horiz-adv-x="243" 
d="M223 307l-39 -117h-126l-38 117l101 73z" />
    <glyph glyph-name="cedilla" unicode="&#xb8;" horiz-adv-x="316" 
d="M50 -215l28 92q25 -22 55 -22q32 0 32 26q0 34 -65 27v107h95v-49q29 -7 50 -31t21 -60q0 -53 -36 -82t-86 -29q-57 0 -94 21z" />
    <glyph glyph-name="guillemotright" unicode="&#xbb;" horiz-adv-x="455" 
d="M20 625l163 -162v-176l92 88l-92 88v162l252 -250l-252 -250v162l-163 -162v162l91 88l-91 88v162z" />
    <glyph glyph-name="questiondown" unicode="&#xbf;" horiz-adv-x="554" 
d="M160 631l39 119h126l38 -117l-97 -70q-6 -28 -8 -59q10 1 29 1q80 0 138 -39.5t58 -112.5q0 -56 -38.5 -93.5t-96.5 -38.5q-70 -1 -111.5 39.5t-46.5 103.5q-52 -44 -52 -114q0 -67 43.5 -108.5t110.5 -41.5q48 0 88 26t55 64l99 -67q-35 -63 -100 -101t-143 -38
q-118 0 -194.5 75t-76.5 190q0 95 57 161.5t144 86.5q35 64 37 66zM260 397q20 -85 81 -85q16 0 28 9.5t12 28.5q0 31 -45 42.5t-76 4.5z" />
    <glyph glyph-name="Agrave" unicode="&#xc0;" horiz-adv-x="739" 
d="M20 154q0 111 99 181q-8 15 -15 34q-25 63 -25 111q0 124 87 205t219 81q137 0 234.5 -97t98.5 -255l1 -414h-134q5 117 -74 195.5t-187 78.5l-20 -1q48 -90 48 -145q0 -60 -43 -102t-111 -42q-76 0 -127 43.5t-51 126.5zM229 410l10 -22q46 11 88 11q148 0 258 -104v104
q0 114 -59.5 180t-141.5 66q-75 0 -123 -46t-48 -118q0 -37 16 -71zM223 133q0 29 -41 97q-36 -30 -35 -77q1 -21 13 -36t30 -15q15 0 24 8.5t9 22.5zM329 790l-102 60v119l264 -179h-162z" />
    <glyph glyph-name="Aacute" unicode="&#xc1;" horiz-adv-x="739" 
d="M20 154q0 111 99 181q-8 15 -15 34q-25 63 -25 111q0 124 87 205t219 81q137 0 234.5 -97t98.5 -255l1 -414h-134q5 117 -74 195.5t-187 78.5l-20 -1q48 -90 48 -145q0 -60 -43 -102t-111 -42q-76 0 -127 43.5t-51 126.5zM229 410l10 -22q46 11 88 11q148 0 258 -104v104
q0 114 -59.5 180t-141.5 66q-75 0 -123 -46t-48 -118q0 -37 16 -71zM223 133q0 29 -41 97q-36 -30 -35 -77q1 -21 13 -36t30 -15q15 0 24 8.5t9 22.5zM574 850l-102 -60h-162l264 179v-119z" />
    <glyph glyph-name="Acircumflex" unicode="&#xc2;" horiz-adv-x="739" 
d="M20 154q0 111 99 181q-8 15 -15 34q-25 63 -25 111q0 124 87 205t219 81q137 0 234.5 -97t98.5 -255l1 -414h-134q5 117 -74 195.5t-187 78.5l-20 -1q48 -90 48 -145q0 -60 -43 -102t-111 -42q-76 0 -127 43.5t-51 126.5zM229 410l10 -22q46 11 88 11q148 0 258 -104v104
q0 114 -59.5 180t-141.5 66q-75 0 -123 -46t-48 -118q0 -37 16 -71zM223 133q0 29 -41 97q-36 -30 -35 -77q1 -21 13 -36t30 -15q15 0 24 8.5t9 22.5zM370 865l-148 -96v110l93 64h109l93 -64v-110z" />
    <glyph glyph-name="Atilde" unicode="&#xc3;" horiz-adv-x="739" 
d="M20 154q0 111 99 181q-8 15 -15 34q-25 63 -25 111q0 124 87 205t219 81q137 0 234.5 -97t98.5 -255l1 -414h-134q5 117 -74 195.5t-187 78.5l-20 -1q48 -90 48 -145q0 -60 -43 -102t-111 -42q-76 0 -127 43.5t-51 126.5zM229 410l10 -22q46 11 88 11q148 0 258 -104v104
q0 114 -59.5 180t-141.5 66q-75 0 -123 -46t-48 -118q0 -37 16 -71zM223 133q0 29 -41 97q-36 -30 -35 -77q1 -21 13 -36t30 -15q15 0 24 8.5t9 22.5zM451 785q-25 0 -76 22.5t-69 22.5q-19 0 -34.5 -7t-22.5 -14.5t-17 -20.5v103q32 32 76 32q25 0 76 -22.5t69 -22.5
q43 0 74 42v-103q-32 -32 -76 -32z" />
    <glyph glyph-name="Adieresis" unicode="&#xc4;" horiz-adv-x="739" 
d="M20 154q0 111 99 181q-8 15 -15 34q-25 63 -25 111q0 124 87 205t219 81q137 0 234.5 -97t98.5 -255l1 -414h-134q5 117 -74 195.5t-187 78.5l-20 -1q48 -90 48 -145q0 -60 -43 -102t-111 -42q-76 0 -127 43.5t-51 126.5zM229 410l10 -22q46 11 88 11q148 0 258 -104v104
q0 114 -59.5 180t-141.5 66q-75 0 -123 -46t-48 -118q0 -37 16 -71zM337 936l32 -94l-82 -58l-81 58l31 94h100zM500 936l32 -94l-82 -58l-81 58l31 94h100zM223 133q0 29 -41 97q-36 -30 -35 -77q1 -21 13 -36t30 -15q15 0 24 8.5t9 22.5z" />
    <glyph glyph-name="Aring" unicode="&#xc5;" horiz-adv-x="739" 
d="M20 154q0 111 99 181q-8 15 -15 34q-25 63 -25 111q0 124 87 205t219 81q137 0 234.5 -97t98.5 -255l1 -414h-134q5 117 -74 195.5t-187 78.5l-20 -1q48 -90 48 -145q0 -60 -43 -102t-111 -42q-76 0 -127 43.5t-51 126.5zM229 410l10 -22q46 11 88 11q148 0 258 -104v104
q0 114 -59.5 180t-141.5 66q-75 0 -123 -46t-48 -118q0 -37 16 -71zM223 133q0 29 -41 97q-36 -30 -35 -77q1 -21 13 -36t30 -15q15 0 24 8.5t9 22.5zM278 894q0 46 32.5 78.5t78.5 32.5t78.5 -32.5t32.5 -78.5t-32.5 -78.5t-78.5 -32.5t-78.5 32.5t-32.5 78.5zM350 894
q0 -16 11 -27.5t28 -11.5t28 11.5t11 27.5t-11 27.5t-28 11.5t-28 -11.5t-11 -27.5z" />
    <glyph glyph-name="AE" unicode="&#xc6;" horiz-adv-x="1052" 
d="M615 467q76 59 166 59q74 0 123 -43.5t49 -114.5q0 -72 -47.5 -115t-121.5 -43q-76 0 -143 36l-1 -13q0 -56 38 -90.5t96 -34.5q54 0 96 40l89 -90q-74 -74 -187 -74q-153 0 -231 122q-4 7 -23.5 39t-26.5 41.5t-27.5 32t-37 31t-43.5 16.5t-59 8l-20 -1q48 -90 48 -145
q0 -61 -43 -102.5t-111 -41.5q-78 0 -128 43.5t-50 126.5q0 111 99 181q-47 94 -47 160q0 123 77.5 197t201.5 74q132 0 213 -90q83 90 214 90q76 0 144 -36.5t110 -103.5l-107 -71q-49 89 -151 89q-64 0 -112.5 -43t-48.5 -107q0 -19 2 -27zM353 645q-69 0 -108.5 -39.5
t-39.5 -110.5q0 -51 34 -107q46 11 80 11q128 0 206 -75l9 22q-36 51 -43 149q-11 150 -138 150zM780 409q-55 0 -99 -49q47 -35 99 -35q22 0 36.5 11t14.5 32t-14.5 31t-36.5 10zM223 133q0 29 -41 97q-36 -30 -35 -77q1 -21 13 -36t30 -15q15 0 24 8.5t9 22.5z" />
    <glyph glyph-name="Ccedilla" unicode="&#xc7;" horiz-adv-x="724" 
d="M294 -215l28 92q25 -22 55 -22q32 0 32 26q0 34 -65 27v81q-151 22 -237.5 129.5t-86.5 257.5q0 168 112 279t279 111q123 0 208 -71.5t85 -182.5q0 -67 -45.5 -111t-115.5 -44t-116 44t-48 112h126q6 -34 39 -34q15 0 25 10t10 25q0 61 -49.5 95.5t-120.5 34.5
q-114 0 -185.5 -76.5t-71.5 -192.5t74 -190t192 -74q145 0 236 85l13 -136q-41 -33 -104.5 -52.5t-123.5 -22.5v-19q29 -7 50 -31t21 -60q0 -53 -36 -82t-86 -29q-57 0 -94 21z" />
    <glyph glyph-name="Egrave" unicode="&#xc8;" horiz-adv-x="582" 
d="M152 277l-1 -15q0 -67 43.5 -110.5t111.5 -43.5q101 0 149 87l107 -71q-38 -68 -109 -104t-147 -36q-127 0 -206.5 76.5t-79.5 196.5q0 80 42 146q-20 55 -20 116q0 110 73 178.5t185 68.5q113 0 187 -74l-92 -86q-39 36 -95 36q-55 0 -92.5 -34t-37.5 -91l1 -13
q67 36 143 36q74 0 121.5 -42.5t47.5 -114.5q0 -71 -49 -115t-123 -44q-90 0 -159 53zM310 341q21 0 36 11.5t15 30.5t-15 30.5t-36 11.5q-54 0 -99 -36q40 -48 99 -48zM241 790l-102 60v119l264 -179h-162z" />
    <glyph glyph-name="Eacute" unicode="&#xc9;" horiz-adv-x="582" 
d="M152 277l-1 -15q0 -67 43.5 -110.5t111.5 -43.5q101 0 149 87l107 -71q-38 -68 -109 -104t-147 -36q-127 0 -206.5 76.5t-79.5 196.5q0 80 42 146q-20 55 -20 116q0 110 73 178.5t185 68.5q113 0 187 -74l-92 -86q-39 36 -95 36q-55 0 -92.5 -34t-37.5 -91l1 -13
q67 36 143 36q74 0 121.5 -42.5t47.5 -114.5q0 -71 -49 -115t-123 -44q-90 0 -159 53zM310 341q21 0 36 11.5t15 30.5t-15 30.5t-36 11.5q-54 0 -99 -36q40 -48 99 -48zM474 850l-102 -60h-162l264 179v-119z" />
    <glyph glyph-name="Ecircumflex" unicode="&#xca;" horiz-adv-x="582" 
d="M152 277l-1 -15q0 -67 43.5 -110.5t111.5 -43.5q101 0 149 87l107 -71q-38 -68 -109 -104t-147 -36q-127 0 -206.5 76.5t-79.5 196.5q0 80 42 146q-20 55 -20 116q0 110 73 178.5t185 68.5q113 0 187 -74l-92 -86q-39 36 -95 36q-55 0 -92.5 -34t-37.5 -91l1 -13
q67 36 143 36q74 0 121.5 -42.5t47.5 -114.5q0 -71 -49 -115t-123 -44q-90 0 -159 53zM310 341q21 0 36 11.5t15 30.5t-15 30.5t-36 11.5q-54 0 -99 -36q40 -48 99 -48zM292 865l-148 -96v110l93 64h109l93 -64v-110z" />
    <glyph glyph-name="Edieresis" unicode="&#xcb;" horiz-adv-x="582" 
d="M152 277l-1 -15q0 -67 43.5 -110.5t111.5 -43.5q101 0 149 87l107 -71q-38 -68 -109 -104t-147 -36q-127 0 -206.5 76.5t-79.5 196.5q0 80 42 146q-20 55 -20 116q0 110 73 178.5t185 68.5q113 0 187 -74l-92 -86q-39 36 -95 36q-55 0 -92.5 -34t-37.5 -91l1 -13
q67 36 143 36q74 0 121.5 -42.5t47.5 -114.5q0 -71 -49 -115t-123 -44q-90 0 -159 53zM422 936l32 -94l-82 -58l-81 58l31 94h100zM259 936l32 -94l-82 -58l-81 58l31 94h100zM310 341q21 0 36 11.5t15 30.5t-15 30.5t-36 11.5q-54 0 -99 -36q40 -48 99 -48z" />
    <glyph glyph-name="Igrave" unicode="&#xcc;" horiz-adv-x="172" 
d="M20 0v750h132v-750h-132zM-8 790l-102 60v119l264 -179h-162z" />
    <glyph glyph-name="Iacute" unicode="&#xcd;" horiz-adv-x="172" 
d="M20 0v750h132v-750h-132zM283 850l-102 -60h-162l264 179v-119z" />
    <glyph glyph-name="Icircumflex" unicode="&#xce;" horiz-adv-x="172" 
d="M20 0v750h132v-750h-132zM87 865l-148 -96v110l93 64h109l93 -64v-110z" />
    <glyph glyph-name="Idieresis" unicode="&#xcf;" horiz-adv-x="172" 
d="M20 0v750h132v-750h-132zM217 936l32 -94l-82 -58l-81 58l31 94h100zM54 936l32 -94l-82 -58l-81 58l31 94h100z" />
    <glyph glyph-name="Eth" unicode="&#xd0;" horiz-adv-x="850" 
d="M142 325h-122v132h282v172q-42 -9 -89 -29l-17 129q85 35 243 35q162 0 276.5 -111.5t114.5 -274.5q0 -166 -115.5 -280t-288.5 -114q-155 0 -237.5 68.5t-82.5 161.5q0 62 36 111zM437 326v-218q117 0 189 75.5t72 194.5q0 118 -72 191.5t-189 74.5v-187h148v-131h-148z
M302 133v193q-30 -11 -46.5 -37.5t-16.5 -55.5q0 -66 63 -100z" />
    <glyph glyph-name="Ntilde" unicode="&#xd1;" horiz-adv-x="758" 
d="M654 428l-48 91l116 231h-145q-21 -43 -48 -98q-82 114 -224 114q-128 0 -206 -73.5t-78 -208.5l-1 -484h130v480q0 79 41 120.5t115 41.5q40 0 76 -23t60 -64l21 -37l-44 -88q-84 -169 -84 -260q0 -88 56 -137t146 -49t145.5 49.5t55.5 138.5q0 96 -84 256zM510 785
q-25 0 -76 22.5t-69 22.5q-43 0 -74 -42v103q32 32 76 32q25 0 76 -22.5t69 -22.5q19 0 34.5 7t22.5 14.5t17 20.5v-103q-32 -32 -76 -32zM469 176q0 61 63 195l4 12l5 -12q22 -46 32.5 -69t21 -59.5t10.5 -65.5q0 -30 -18.5 -49t-49.5 -19q-30 0 -49 19t-19 48z" />
    <glyph glyph-name="Ograve" unicode="&#xd2;" 
d="M411 766q162 0 277.5 -113.5t115.5 -275.5q0 -164 -114 -278.5t-278 -114.5q-167 0 -279.5 114t-111.5 279q0 86 35 161.5t97 130.5l44 -47q11 68 72.5 106t141.5 38zM152 377q2 -119 73.5 -194t186.5 -75q114 0 187 76t73 193q0 105 -64 178q-27 -57 -83 -93t-122 -36
q-74 0 -127 29.5t-72 83.5q-53 -73 -52 -162zM411 651q-40 0 -65 -14t-25 -38t23 -38.5t58 -14.5q36 0 66.5 20t42.5 55q-36 30 -100 30zM342 790l-102 60v119l264 -179h-162z" />
    <glyph glyph-name="Oacute" unicode="&#xd3;" 
d="M411 766q-80 0 -141.5 -38t-72.5 -106l-44 47q-62 -55 -97 -130.5t-35 -161.5q-1 -165 111.5 -279t279.5 -114q164 0 278 114.5t114 278.5q0 162 -115.5 275.5t-277.5 113.5zM152 377q-1 89 52 162q19 -54 72 -83.5t127 -29.5q66 0 122 36t83 93q64 -73 64 -178
q0 -117 -73 -193t-187 -76q-115 0 -186.5 75t-73.5 194zM411 651q64 0 100 -30q-12 -35 -42.5 -55t-66.5 -20q-35 0 -58 14.5t-23 38.5t25 38t65 14zM624 850l-102 -60h-162l264 179v-119z" />
    <glyph glyph-name="Ocircumflex" unicode="&#xd4;" 
d="M411 766q162 0 277.5 -113.5t115.5 -275.5q0 -164 -114 -278.5t-278 -114.5q-167 0 -279.5 114t-111.5 279q0 86 35 161.5t97 130.5l44 -47q11 68 72.5 106t141.5 38zM152 377q2 -119 73.5 -194t186.5 -75q114 0 187 76t73 193q0 105 -64 178q-27 -57 -83 -93t-122 -36
q-74 0 -127 29.5t-72 83.5q-53 -73 -52 -162zM411 651q-40 0 -65 -14t-25 -38t23 -38.5t58 -14.5q36 0 66.5 20t42.5 55q-36 30 -100 30zM412 865l-148 -96v110l93 64h109l93 -64v-110z" />
    <glyph glyph-name="Otilde" unicode="&#xd5;" 
d="M411 766q-80 0 -141.5 -38t-72.5 -106l-44 47q-62 -55 -97 -130.5t-35 -161.5q-1 -165 111.5 -279t279.5 -114q164 0 278 114.5t114 278.5q0 162 -115.5 275.5t-277.5 113.5zM152 377q-1 89 52 162q19 -54 72 -83.5t127 -29.5q66 0 122 36t83 93q64 -73 64 -178
q0 -117 -73 -193t-187 -76q-115 0 -186.5 75t-73.5 194zM411 651q64 0 100 -30q-12 -35 -42.5 -55t-66.5 -20q-35 0 -58 14.5t-23 38.5t25 38t65 14zM483 785q-25 0 -76 22.5t-69 22.5q-19 0 -34.5 -7t-22.5 -14.5t-17 -20.5v103q32 32 76 32q25 0 76 -22.5t69 -22.5
q43 0 74 42v-103q-32 -32 -76 -32z" />
    <glyph glyph-name="Odieresis" unicode="&#xd6;" 
d="M411 766q-80 0 -141.5 -38t-72.5 -106l-44 47q-62 -55 -97 -130.5t-35 -161.5q-1 -165 111.5 -279t279.5 -114q164 0 278 114.5t114 278.5q0 162 -115.5 275.5t-277.5 113.5zM152 377q-1 89 52 162q19 -54 72 -83.5t127 -29.5q66 0 122 36t83 93q64 -73 64 -178
q0 -117 -73 -193t-187 -76q-115 0 -186.5 75t-73.5 194zM380 936l32 -94l-82 -58l-81 58l31 94h100zM543 936l32 -94l-82 -58l-81 58l31 94h100zM411 651q64 0 100 -30q-12 -35 -42.5 -55t-66.5 -20q-35 0 -58 14.5t-23 38.5t25 38t65 14z" />
    <glyph glyph-name="multiply" unicode="&#xd7;" horiz-adv-x="545" 
d="M360 375l165 -164l-88 -88l-165 164l-164 -164l-88 88l164 164l-164 165l88 88l164 -165l165 165l88 -88z" />
    <glyph glyph-name="Oslash" unicode="&#xd8;" 
d="M417 764q158 0 272.5 -113t114.5 -275q0 -164 -113.5 -277t-279.5 -113q-101 0 -168 36l-17 -22h-137l60 84q-61 54 -95 130t-33 162q0 87 34 163.5t95 130.5l72 -77q1 74 57 122.5t138 48.5zM469 552h139l-295 -426q50 -19 98 -19q115 0 188 76.5t73 192.5
q0 120 -71 197t-187 77q-34 0 -54.5 -19.5t-20.5 -49.5q0 -29 18.5 -47t47.5 -18q44 0 64 36zM150 376q0 -111 71 -188l150 219q-62 13 -102.5 55.5t-45.5 102.5q-72 -76 -73 -189z" />
    <glyph glyph-name="Ugrave" unicode="&#xd9;" horiz-adv-x="758" 
d="M104 322q-84 160 -84 256q0 89 55.5 138.5t145.5 49.5t146 -49t56 -137q0 -91 -84 -260l-44 -88l21 -37q24 -41 60 -64t76 -23q74 0 115 41.5t41 120.5v480h130l-1 -484q0 -135 -78 -208.5t-206 -73.5q-143 0 -224 113l-48 -97h-145q61 122 116 230q-26 48 -48 92z
M222 367l5 12q62 132 62 195q0 30 -19.5 48.5t-48.5 18.5q-30 0 -49 -19t-19 -50q0 -29 10.5 -65.5t20.5 -58.5t33 -69zM379 790l-102 60v119l264 -179h-162z" />
    <glyph glyph-name="Uacute" unicode="&#xda;" horiz-adv-x="758" 
d="M104 322q-84 160 -84 256q0 89 55.5 138.5t145.5 49.5t146 -49t56 -137q0 -91 -84 -260l-44 -88l21 -37q24 -41 60 -64t76 -23q74 0 115 41.5t41 120.5v480h130l-1 -484q0 -135 -78 -208.5t-206 -73.5q-143 0 -224 113l-48 -97h-145q61 122 116 230q-26 48 -48 92z
M222 367l5 12q62 132 62 195q0 30 -19.5 48.5t-48.5 18.5q-30 0 -49 -19t-19 -50q0 -29 10.5 -65.5t20.5 -58.5t33 -69zM581 850l-102 -60h-162l264 179v-119z" />
    <glyph glyph-name="Ucircumflex" unicode="&#xdb;" horiz-adv-x="758" 
d="M104 322q-84 160 -84 256q0 89 55.5 138.5t145.5 49.5t146 -49t56 -137q0 -91 -84 -260l-44 -88l21 -37q24 -41 60 -64t76 -23q74 0 115 41.5t41 120.5v480h130l-1 -484q0 -135 -78 -208.5t-206 -73.5q-143 0 -224 113l-48 -97h-145q61 122 116 230q-26 48 -48 92z
M222 367l5 12q62 132 62 195q0 30 -19.5 48.5t-48.5 18.5q-30 0 -49 -19t-19 -50q0 -29 10.5 -65.5t20.5 -58.5t33 -69zM419 865l-148 -96v110l93 64h109l93 -64v-110z" />
    <glyph glyph-name="Udieresis" unicode="&#xdc;" horiz-adv-x="758" 
d="M104 322q-84 160 -84 256q0 89 55.5 138.5t145.5 49.5t146 -49t56 -137q0 -91 -84 -260l-44 -88l21 -37q24 -41 60 -64t76 -23q74 0 115 41.5t41 120.5v480h130l-1 -484q0 -135 -78 -208.5t-206 -73.5q-143 0 -224 113l-48 -97h-145q61 122 116 230q-26 48 -48 92z
M222 367l5 12q62 132 62 195q0 30 -19.5 48.5t-48.5 18.5q-30 0 -49 -19t-19 -50q0 -29 10.5 -65.5t20.5 -58.5t33 -69zM397 936l32 -94l-82 -58l-81 58l31 94h100zM560 936l32 -94l-82 -58l-81 58l31 94h100z" />
    <glyph glyph-name="Yacute" unicode="&#xdd;" horiz-adv-x="814" 
d="M20 630q0 -135 75 -236.5t196 -136.5l-111 -257h144l104 245q144 10 255 115.5t111 246.5q0 75 -43 118.5t-108 43.5q-47 0 -82.5 -14t-62 -45t-43 -61.5t-37.5 -81.5l-77 -192q-87 22 -139 91.5t-52 165.5q0 73 35 118h-138q-27 -48 -27 -120zM661 603
q-2 -72 -52.5 -134.5t-123.5 -87.5l62 143q13 31 19.5 44.5t18.5 34.5t22.5 30t22.5 9q14 0 23 -11t8 -28zM559 850l-102 -60h-162l264 179v-119z" />
    <glyph glyph-name="Thorn" unicode="&#xde;" horiz-adv-x="667" 
d="M20 0v750h132v-162q76 79 189 81q127 2 216.5 -81t89.5 -219q0 -137 -90 -218.5t-217 -81.5q-50 0 -101.5 17.5t-86.5 47.5v-134h-132zM335 543q-76 0 -129.5 -51t-53.5 -129v-164l49 64q52 -67 135 -67q79 0 128.5 47t49.5 125q0 79 -51.5 127t-127.5 48z" />
    <glyph glyph-name="germandbls" unicode="&#xdf;" horiz-adv-x="718" 
d="M366 -14q-67 0 -120 17l15 130q41 -23 107 -23q91 0 145.5 43t54.5 119q0 30 -9 55q-75 -99 -189 -99q-76 0 -119 43.5t-43 113.5q1 74 55.5 122.5t135.5 48.5q43 0 82 -10q-36 99 -157 99q-77 0 -124.5 -50t-47.5 -131v-596h-132v591q0 138 89 222.5t212 84.5
q82 0 147.5 -32t105.5 -99t38 -160q86 -81 86 -203q0 -128 -92.5 -207t-239.5 -79zM376 349q31 0 58 21.5t42 54.5q-26 13 -59 13q-34 0 -59 -13t-25 -37q0 -18 11.5 -28.5t31.5 -10.5z" />
    <glyph glyph-name="agrave" unicode="&#xe0;" horiz-adv-x="817" 
d="M797 368q-3 -138 -86 -241q41 -19 90 -22l1 -121q-111 4 -192 55q-93 -55 -201 -55q-162 0 -275.5 113.5t-113.5 277.5q0 163 113.5 277t275.5 114q89 0 166.5 -36.5t131.5 -101.5l-63 -57q69 -8 110.5 -63t42.5 -140zM449 369q1 71 38 129.5t104 71.5q-73 73 -182 73
q-114 0 -185.5 -76t-71.5 -192t71.5 -192t185.5 -76q59 0 109 21q-69 98 -69 241zM575 352q0 -82 42 -146q50 67 50 158q0 33 -12 56.5t-33 23.5q-22 0 -34.5 -25.5t-12.5 -66.5zM348 790l-102 60v119l264 -179h-162z" />
    <glyph glyph-name="aacute" unicode="&#xe1;" horiz-adv-x="817" 
d="M797 368q-3 -138 -86 -241q41 -19 90 -22l1 -121q-111 4 -192 55q-93 -55 -201 -55q-162 0 -275.5 113.5t-113.5 277.5q0 163 113.5 277t275.5 114q89 0 166.5 -36.5t131.5 -101.5l-63 -57q69 -8 110.5 -63t42.5 -140zM449 369q1 71 38 129.5t104 71.5q-73 73 -182 73
q-114 0 -185.5 -76t-71.5 -192t71.5 -192t185.5 -76q59 0 109 21q-69 98 -69 241zM575 352q0 -82 42 -146q50 67 50 158q0 33 -12 56.5t-33 23.5q-22 0 -34.5 -25.5t-12.5 -66.5zM600 850l-102 -60h-162l264 179v-119z" />
    <glyph glyph-name="acircumflex" unicode="&#xe2;" horiz-adv-x="817" 
d="M797 368q-3 -138 -86 -241q41 -19 90 -22l1 -121q-111 4 -192 55q-93 -55 -201 -55q-162 0 -275.5 113.5t-113.5 277.5q0 163 113.5 277t275.5 114q89 0 166.5 -36.5t131.5 -101.5l-63 -57q69 -8 110.5 -63t42.5 -140zM449 369q1 71 38 129.5t104 71.5q-73 73 -182 73
q-114 0 -185.5 -76t-71.5 -192t71.5 -192t185.5 -76q59 0 109 21q-69 98 -69 241zM575 352q0 -82 42 -146q50 67 50 158q0 33 -12 56.5t-33 23.5q-22 0 -34.5 -25.5t-12.5 -66.5zM409 865l-148 -96v110l93 64h109l93 -64v-110z" />
    <glyph glyph-name="atilde" unicode="&#xe3;" horiz-adv-x="817" 
d="M797 368q-3 -138 -86 -241q41 -19 90 -22l1 -121q-111 4 -192 55q-93 -55 -201 -55q-162 0 -275.5 113.5t-113.5 277.5q0 163 113.5 277t275.5 114q89 0 166.5 -36.5t131.5 -101.5l-63 -57q69 -8 110.5 -63t42.5 -140zM449 369q1 71 38 129.5t104 71.5q-73 73 -182 73
q-114 0 -185.5 -76t-71.5 -192t71.5 -192t185.5 -76q59 0 109 21q-69 98 -69 241zM575 352q0 -82 42 -146q50 67 50 158q0 33 -12 56.5t-33 23.5q-22 0 -34.5 -25.5t-12.5 -66.5zM480 785q-25 0 -76 22.5t-69 22.5q-43 0 -74 -42v103q32 32 76 32q25 0 76 -22.5t69 -22.5
q19 0 34.5 7t22.5 14.5t17 20.5v-103q-32 -32 -76 -32z" />
    <glyph glyph-name="adieresis" unicode="&#xe4;" horiz-adv-x="817" 
d="M797 368q-3 -138 -86 -241q41 -19 90 -22l1 -121q-111 4 -192 55q-93 -55 -201 -55q-162 0 -275.5 113.5t-113.5 277.5q0 163 113.5 277t275.5 114q89 0 166.5 -36.5t131.5 -101.5l-63 -57q69 -8 110.5 -63t42.5 -140zM449 369q1 71 38 129.5t104 71.5q-73 73 -182 73
q-114 0 -185.5 -76t-71.5 -192t71.5 -192t185.5 -76q59 0 109 21q-69 98 -69 241zM376 936l32 -94l-82 -58l-81 58l31 94h100zM539 936l32 -94l-82 -58l-81 58l31 94h100zM575 352q0 -82 42 -146q50 67 50 158q0 33 -12 56.5t-33 23.5q-22 0 -34.5 -25.5t-12.5 -66.5z" />
    <glyph glyph-name="aring" unicode="&#xe5;" horiz-adv-x="817" 
d="M797 368q-3 -138 -86 -241q41 -19 90 -22l1 -121q-111 4 -192 55q-93 -55 -201 -55q-162 0 -275.5 113.5t-113.5 277.5q0 163 113.5 277t275.5 114q89 0 166.5 -36.5t131.5 -101.5l-63 -57q69 -8 110.5 -63t42.5 -140zM449 369q1 71 38 129.5t104 71.5q-73 73 -182 73
q-114 0 -185.5 -76t-71.5 -192t71.5 -192t185.5 -76q59 0 109 21q-69 98 -69 241zM575 352q0 -82 42 -146q50 67 50 158q0 33 -12 56.5t-33 23.5q-22 0 -34.5 -25.5t-12.5 -66.5zM297 894q0 46 32.5 78.5t78.5 32.5t78.5 -32.5t32.5 -78.5t-32.5 -78.5t-78.5 -32.5
t-78.5 32.5t-32.5 78.5zM369 894q0 -16 11.5 -27.5t27.5 -11.5t27.5 11.5t11.5 27.5t-11.5 27.5t-27.5 11.5t-27.5 -11.5t-11.5 -27.5z" />
    <glyph glyph-name="ae" unicode="&#xe6;" horiz-adv-x="1261" 
d="M1241 105l-1 -121q-122 0 -214 56q-92 -56 -213 -56q-49 0 -107.5 15.5t-95.5 39.5q-93 -55 -201 -55q-163 0 -276 111.5t-113 276.5q0 164 113.5 279t274.5 115q89 0 167 -36.5t132 -101.5l-63 -57q69 -8 111 -63t42 -140q0 -134 -86 -241q43 -31 106 -31t115 27
q-65 80 -92.5 182t-27.5 180q0 65 21.5 126t72.5 106.5t121 45.5q57 0 100.5 -26t66.5 -68.5t34.5 -88.5t11.5 -95q0 -74 -26 -173.5t-87 -179.5q51 -22 114 -27zM449 369q0 70 37.5 129t104.5 72q-73 73 -182 73q-114 0 -185.5 -77t-71.5 -193q0 -115 71.5 -191t185.5 -76
q57 0 109 22q-69 98 -69 241zM1112 482q0 34 -7 66.5t-26.5 60t-49.5 27.5q-26 0 -44.5 -15.5t-27.5 -41t-12.5 -49.5t-3.5 -49q0 -184 88 -280q83 103 83 281zM575 352q0 -82 42 -146q50 67 50 158q0 34 -12 57t-33 23q-23 0 -35 -25t-12 -67z" />
    <glyph glyph-name="ccedilla" unicode="&#xe7;" horiz-adv-x="720" 
d="M302 -215l28 92q25 -22 55 -22q32 0 32 26q0 34 -65 27v80q-147 18 -239.5 123.5t-92.5 262.5q0 102 47 188.5t127 139.5q6 40 20 76h120q-7 -13 -10 -25q31 13 96 13q86 0 147 -46.5t61 -121.5q0 -79 -60.5 -124.5t-148.5 -45.5q-68 0 -125.5 34t-82.5 90
q-61 -70 -61 -178q0 -119 72.5 -193t192.5 -74q61 0 118.5 26t90.5 65l76 -91q-101 -107 -253 -121v-20q29 -7 50 -31t21 -60q0 -53 -36 -82t-86 -29q-57 0 -94 21zM412 653q-59 0 -99 -28q10 -34 40 -56.5t67 -22.5q38 0 59 14t21 38q0 25 -24 40t-64 15z" />
    <glyph glyph-name="egrave" unicode="&#xe8;" horiz-adv-x="581" 
d="M149 488l1 -17q71 55 160 55q74 0 123 -43.5t49 -114.5q0 -72 -47.5 -115t-121.5 -43q-76 0 -143 36l-1 -13q0 -58 37 -91.5t95 -33.5q56 0 100 40l87 -90q-74 -74 -189 -74q-112 0 -186.5 66.5t-74.5 180.5q0 61 22 118q-40 63 -40 141q0 119 81 197.5t203 78.5
q75 0 145 -36.5t112 -103.5l-107 -71q-49 89 -151 89q-70 0 -112 -43.5t-42 -112.5zM309 409q-58 0 -99 -49q47 -35 99 -35q21 0 36 11.5t15 31.5q0 19 -15 30t-36 11zM240 790l-102 60v119l264 -179h-162z" />
    <glyph glyph-name="eacute" unicode="&#xe9;" horiz-adv-x="581" 
d="M149 488l1 -17q71 55 160 55q74 0 123 -43.5t49 -114.5q0 -72 -47.5 -115t-121.5 -43q-76 0 -143 36l-1 -13q0 -58 37 -91.5t95 -33.5q56 0 100 40l87 -90q-74 -74 -189 -74q-112 0 -186.5 66.5t-74.5 180.5q0 61 22 118q-40 63 -40 141q0 119 81 197.5t203 78.5
q75 0 145 -36.5t112 -103.5l-107 -71q-49 89 -151 89q-70 0 -112 -43.5t-42 -112.5zM309 409q-58 0 -99 -49q47 -35 99 -35q21 0 36 11.5t15 31.5q0 19 -15 30t-36 11zM492 850l-102 -60h-162l264 179v-119z" />
    <glyph glyph-name="ecircumflex" unicode="&#xea;" horiz-adv-x="581" 
d="M149 488l1 -17q71 55 160 55q74 0 123 -43.5t49 -114.5q0 -72 -47.5 -115t-121.5 -43q-76 0 -143 36l-1 -13q0 -58 37 -91.5t95 -33.5q56 0 100 40l87 -90q-74 -74 -189 -74q-112 0 -186.5 66.5t-74.5 180.5q0 61 22 118q-40 63 -40 141q0 119 81 197.5t203 78.5
q75 0 145 -36.5t112 -103.5l-107 -71q-49 89 -151 89q-70 0 -112 -43.5t-42 -112.5zM309 409q-58 0 -99 -49q47 -35 99 -35q21 0 36 11.5t15 31.5q0 19 -15 30t-36 11zM299 865l-148 -96v110l93 64h109l93 -64v-110z" />
    <glyph glyph-name="edieresis" unicode="&#xeb;" horiz-adv-x="581" 
d="M149 488l1 -17q71 55 160 55q74 0 123 -43.5t49 -114.5q0 -72 -47.5 -115t-121.5 -43q-76 0 -143 36l-1 -13q0 -58 37 -91.5t95 -33.5q56 0 100 40l87 -90q-74 -74 -189 -74q-112 0 -186.5 66.5t-74.5 180.5q0 61 22 118q-40 63 -40 141q0 119 81 197.5t203 78.5
q75 0 145 -36.5t112 -103.5l-107 -71q-49 89 -151 89q-70 0 -112 -43.5t-42 -112.5zM440 936l32 -94l-82 -58l-81 58l31 94h100zM277 936l32 -94l-82 -58l-81 58l31 94h100zM309 409q-58 0 -99 -49q47 -35 99 -35q21 0 36 11.5t15 31.5q0 19 -15 30t-36 11z" />
    <glyph glyph-name="igrave" unicode="&#xec;" horiz-adv-x="203" 
d="M168 599v-599h-132v599h132zM5 650l-102 60v119l264 -179h-162z" />
    <glyph glyph-name="iacute" unicode="&#xed;" horiz-adv-x="203" 
d="M168 599v-599h-132v599h132zM294 710l-102 -60h-162l264 179v-119z" />
    <glyph glyph-name="icircumflex" unicode="&#xee;" horiz-adv-x="203" 
d="M168 599v-599h-132v599h132zM102 725l-148 -96v110l93 64h109l93 -64v-110z" />
    <glyph glyph-name="idieresis" unicode="&#xef;" horiz-adv-x="203" 
d="M168 599v-599h-132v599h132zM233 796l32 -94l-82 -58l-81 58l31 94h100zM70 796l32 -94l-82 -58l-81 58l31 94h100z" />
    <glyph glyph-name="eth" unicode="&#xf0;" horiz-adv-x="873" 
d="M20 303q0 83 51.5 137t137.5 55q2 129 78.5 200t193.5 71q156 0 264 -113t108 -277q0 -165 -115 -278t-286 -113q-115 0 -212 36t-158.5 109.5t-61.5 172.5zM340 493h222v-132h-222v-237q54 -15 116 -15q116 0 190 73.5t74 193.5q0 122 -67 195t-172 73q-66 0 -103.5 -40
t-37.5 -111zM152 304q0 -65 57 -116v176q-28 1 -42.5 -17.5t-14.5 -42.5z" />
    <glyph glyph-name="ntilde" unicode="&#xf1;" horiz-adv-x="764" 
d="M20 213q0 90 33 193t93 185q-39 64 -108 159h145q19 -26 47 -68q102 84 225 84q122 0 205 -79t83 -209l1 -478h-130v480q0 75 -43.5 119.5t-115.5 44.5q-88 0 -161 -67q128 -223 128 -379q0 -93 -55.5 -153.5t-143.5 -60.5q-92 0 -147.5 63t-55.5 166zM292 194
q3 117 -78 277q-63 -118 -63 -268q0 -43 19 -68.5t52 -25.5q32 0 50.5 25t19.5 60zM493 785q-25 0 -76 22.5t-69 22.5q-19 0 -34.5 -7t-22.5 -14.5t-17 -20.5v103q32 32 76 32q25 0 76 -22.5t69 -22.5q43 0 74 42v-103q-32 -32 -76 -32z" />
    <glyph glyph-name="ograve" unicode="&#xf2;" 
d="M535 745q-4 14 -7 21h118q10 -40 7 -84q70 -55 110.5 -134t40.5 -171q0 -164 -114 -278.5t-278 -114.5q-166 0 -279 114.5t-112 278.5q0 86 35 161.5t97 130.5l44 -47q11 68 72.5 106t141.5 38q61 0 124 -21zM152 377q0 -118 72.5 -193.5t187.5 -75.5q114 0 187 76
t73 193q0 106 -61 176q-26 -56 -84 -91.5t-125 -35.5q-73 0 -126 29t-72 84q-52 -71 -52 -162zM411 651q-40 0 -65 -14t-25 -38t23 -38.5t58 -14.5q36 0 66.5 20t42.5 55q-36 30 -100 30zM342 790l-102 60v119l264 -179h-162z" />
    <glyph glyph-name="oacute" unicode="&#xf3;" 
d="M535 745q-63 21 -124 21q-80 0 -141.5 -38t-72.5 -106l-44 47q-62 -55 -97 -130.5t-35 -161.5q-1 -164 112 -278.5t279 -114.5q164 0 278 114.5t114 278.5q0 92 -40.5 171t-110.5 134q3 44 -7 84h-118q3 -7 7 -21zM152 377q0 91 52 162q19 -55 72 -84t126 -29
q67 0 125 35.5t84 91.5q61 -70 61 -176q0 -117 -73 -193t-187 -76q-115 0 -187.5 75.5t-72.5 193.5zM411 651q64 0 100 -30q-12 -35 -42.5 -55t-66.5 -20q-35 0 -58 14.5t-23 38.5t25 38t65 14zM594 850l-102 -60h-162l264 179v-119z" />
    <glyph glyph-name="ocircumflex" unicode="&#xf4;" 
d="M535 745q-4 14 -7 21h118q10 -40 7 -84q70 -55 110.5 -134t40.5 -171q0 -164 -114 -278.5t-278 -114.5q-166 0 -279 114.5t-112 278.5q0 86 35 161.5t97 130.5l44 -47q11 68 72.5 106t141.5 38q61 0 124 -21zM152 377q0 -118 72.5 -193.5t187.5 -75.5q114 0 187 76
t73 193q0 106 -61 176q-26 -56 -84 -91.5t-125 -35.5q-73 0 -126 29t-72 84q-52 -71 -52 -162zM411 651q-40 0 -65 -14t-25 -38t23 -38.5t58 -14.5q36 0 66.5 20t42.5 55q-36 30 -100 30zM412 875l-148 -96v110l93 64h109l93 -64v-110z" />
    <glyph glyph-name="otilde" unicode="&#xf5;" 
d="M535 745q-63 21 -124 21q-80 0 -141.5 -38t-72.5 -106l-44 47q-62 -55 -97 -130.5t-35 -161.5q-1 -164 112 -278.5t279 -114.5q164 0 278 114.5t114 278.5q0 92 -40.5 171t-110.5 134q3 44 -7 84h-118q3 -7 7 -21zM152 377q0 91 52 162q19 -55 72 -84t126 -29
q67 0 125 35.5t84 91.5q61 -70 61 -176q0 -117 -73 -193t-187 -76q-115 0 -187.5 75.5t-72.5 193.5zM411 651q64 0 100 -30q-12 -35 -42.5 -55t-66.5 -20q-35 0 -58 14.5t-23 38.5t25 38t65 14zM483 785q-25 0 -76 22.5t-69 22.5q-19 0 -34.5 -7t-22.5 -14.5t-17 -20.5v103
q32 32 76 32q25 0 76 -22.5t69 -22.5q43 0 74 42v-103q-32 -32 -76 -32z" />
    <glyph glyph-name="odieresis" unicode="&#xf6;" 
d="M535 745q-63 21 -124 21q-80 0 -141.5 -38t-72.5 -106l-44 47q-62 -55 -97 -130.5t-35 -161.5q-1 -164 112 -278.5t279 -114.5q164 0 278 114.5t114 278.5q0 92 -40.5 171t-110.5 134q3 44 -7 84h-118q3 -7 7 -21zM152 377q0 91 52 162q19 -55 72 -84t126 -29
q67 0 125 35.5t84 91.5q61 -70 61 -176q0 -117 -73 -193t-187 -76q-115 0 -187.5 75.5t-72.5 193.5zM380 936l32 -94l-82 -58l-81 58l31 94h100zM543 936l32 -94l-82 -58l-81 58l31 94h100zM411 651q64 0 100 -30q-12 -35 -42.5 -55t-66.5 -20q-35 0 -58 14.5t-23 38.5
t25 38t65 14z" />
    <glyph glyph-name="divide" unicode="&#xf7;" horiz-adv-x="545" 
d="M209 628h126l39 -117l-102 -73h253v-125h-253l102 -73l-39 -117h-126l-38 117l101 73h-252v125h252l-101 73z" />
    <glyph glyph-name="oslash" unicode="&#xf8;" 
d="M417 764q158 0 272.5 -113t114.5 -275q0 -164 -113.5 -277t-279.5 -113q-101 0 -168 36l-17 -22h-137l60 84q-61 54 -95 130t-33 162q0 87 34 163.5t95 130.5l72 -77q1 74 57 122.5t138 48.5zM469 552h139l-295 -426q50 -19 98 -19q115 0 188 76.5t73 192.5
q0 120 -71 197t-187 77q-34 0 -54.5 -19.5t-20.5 -49.5q0 -29 18.5 -47t47.5 -18q44 0 64 36zM150 376q0 -111 71 -188l150 219q-62 13 -102.5 55.5t-45.5 102.5q-72 -76 -73 -189z" />
    <glyph glyph-name="ugrave" unicode="&#xf9;" horiz-adv-x="764" 
d="M744 537q0 -90 -33 -193t-93 -185q39 -64 108 -159h-145q-19 26 -47 68q-102 -84 -225 -84q-122 0 -205 79t-83 209l-1 478h130v-480q0 -75 43.5 -119.5t115.5 -44.5q88 0 161 67q-128 223 -128 379q0 93 55.5 153.5t143.5 60.5q92 0 147.5 -63t55.5 -166zM472 556
q-3 -117 78 -277q63 118 63 268q0 43 -19 68.5t-52 25.5q-32 0 -50.5 -25t-19.5 -60zM352 790l-102 60v119l264 -179h-162z" />
    <glyph glyph-name="uacute" unicode="&#xfa;" horiz-adv-x="764" 
d="M744 537q0 -90 -33 -193t-93 -185q39 -64 108 -159h-145q-19 26 -47 68q-102 -84 -225 -84q-122 0 -205 79t-83 209l-1 478h130v-480q0 -75 43.5 -119.5t115.5 -44.5q88 0 161 67q-128 223 -128 379q0 93 55.5 153.5t143.5 60.5q92 0 147.5 -63t55.5 -166zM472 556
q-3 -117 78 -277q63 118 63 268q0 43 -19 68.5t-52 25.5q-32 0 -50.5 -25t-19.5 -60zM574 850l-102 -60h-162l264 179v-119z" />
    <glyph glyph-name="ucircumflex" unicode="&#xfb;" horiz-adv-x="764" 
d="M744 537q0 -90 -33 -193t-93 -185q39 -64 108 -159h-145q-19 26 -47 68q-102 -84 -225 -84q-122 0 -205 79t-83 209l-1 478h130v-480q0 -75 43.5 -119.5t115.5 -44.5q88 0 161 67q-128 223 -128 379q0 93 55.5 153.5t143.5 60.5q92 0 147.5 -63t55.5 -166zM472 556
q-3 -117 78 -277q63 118 63 268q0 43 -19 68.5t-52 25.5q-32 0 -50.5 -25t-19.5 -60zM393 865l-148 -96v110l93 64h109l93 -64v-110z" />
    <glyph glyph-name="udieresis" unicode="&#xfc;" horiz-adv-x="764" 
d="M744 537q0 -90 -33 -193t-93 -185q39 -64 108 -159h-145q-19 26 -47 68q-102 -84 -225 -84q-122 0 -205 79t-83 209l-1 478h130v-480q0 -75 43.5 -119.5t115.5 -44.5q88 0 161 67q-128 223 -128 379q0 93 55.5 153.5t143.5 60.5q92 0 147.5 -63t55.5 -166zM472 556
q-3 -117 78 -277q63 118 63 268q0 43 -19 68.5t-52 25.5q-32 0 -50.5 -25t-19.5 -60zM350 936l32 -94l-82 -58l-81 58l31 94h100zM513 936l32 -94l-82 -58l-81 58l31 94h100z" />
    <glyph glyph-name="yacute" unicode="&#xfd;" horiz-adv-x="773" 
d="M406 533v-290q-12 -1 -36 -1q-100 1 -161.5 69.5t-62.5 184.5q0 119 67 254h-129q-64 -122 -64 -254q0 -130 63 -227.5t181 -131.5q-84 -75 -84 -185q0 -74 52.5 -124t129.5 -50q78 0 127 50.5t49 132.5v191q99 43 157 143.5t58 259.5q0 94 -44.5 152.5t-127.5 58.5
q-84 0 -129.5 -66t-45.5 -167zM628 560q0 -194 -90 -269v250q0 102 46 102q44 0 44 -83zM374 55l-68 70q32 -6 67 -6q22 0 33 1v-162q0 -26 -13 -41.5t-34 -15.5q-20 0 -31.5 12t-11.5 32q0 54 58 110zM538 850l-102 -60h-162l264 179v-119z" />
    <glyph glyph-name="thorn" unicode="&#xfe;" horiz-adv-x="792" 
d="M227 147v109q0 64 -40 64q-19 0 -30 -15.5t-11 -40.5q0 -33 22 -65.5t59 -51.5zM101 501v249h126v-105q30 28 82 46.5t108 18.5q146 0 250.5 -99.5t104.5 -261.5q0 -159 -110 -261.5t-267 -102.5q-23 0 -42 3v-154h-126v177q-87 27 -147 95.5t-60 156.5q0 85 46.5 134
t118.5 49q82 0 125 -55.5t43 -139.5v-141q20 -3 40 -3q107 0 177 66.5t70 173.5q0 109 -65 174.5t-169 65.5q-56 0 -109 -25.5t-77 -60.5h-119z" />
    <glyph glyph-name="ydieresis" unicode="&#xff;" horiz-adv-x="773" 
d="M406 533v-290q-12 -1 -36 -1q-100 1 -161.5 69.5t-62.5 184.5q0 119 67 254h-129q-64 -122 -64 -254q0 -130 63 -227.5t181 -131.5q-84 -75 -84 -185q0 -74 52.5 -124t129.5 -50q78 0 127 50.5t49 132.5v191q99 43 157 143.5t58 259.5q0 94 -44.5 152.5t-127.5 58.5
q-84 0 -129.5 -66t-45.5 -167zM628 560q0 -194 -90 -269v250q0 102 46 102q44 0 44 -83zM354 936l32 -94l-82 -58l-81 58l31 94h100zM517 936l32 -94l-82 -58l-81 58l31 94h100zM374 55l-68 70q32 -6 67 -6q22 0 33 1v-162q0 -26 -13 -41.5t-34 -15.5q-20 0 -31.5 12
t-11.5 32q0 54 58 110z" />
    <glyph glyph-name="Amacron" unicode="&#x100;" horiz-adv-x="739" 
d="M20 154q0 111 99 181q-8 15 -15 34q-25 63 -25 111q0 124 87 205t219 81q137 0 234.5 -97t98.5 -255l1 -414h-134q5 117 -74 195.5t-187 78.5l-20 -1q48 -90 48 -145q0 -60 -43 -102t-111 -42q-76 0 -127 43.5t-51 126.5zM229 410l10 -22q46 11 88 11q148 0 258 -104v104
q0 114 -59.5 180t-141.5 66q-75 0 -123 -46t-48 -118q0 -37 16 -71zM223 133q0 29 -41 97q-36 -30 -35 -77q1 -21 13 -36t30 -15q15 0 24 8.5t9 22.5zM222 811v95h295v-95h-295z" />
    <glyph glyph-name="amacron" unicode="&#x101;" horiz-adv-x="817" 
d="M797 368q-3 -138 -86 -241q41 -19 90 -22l1 -121q-111 4 -192 55q-93 -55 -201 -55q-162 0 -275.5 113.5t-113.5 277.5q0 163 113.5 277t275.5 114q89 0 166.5 -36.5t131.5 -101.5l-63 -57q69 -8 110.5 -63t42.5 -140zM449 369q1 71 38 129.5t104 71.5q-73 73 -182 73
q-114 0 -185.5 -76t-71.5 -192t71.5 -192t185.5 -76q59 0 109 21q-69 98 -69 241zM575 352q0 -82 42 -146q50 67 50 158q0 33 -12 56.5t-33 23.5q-22 0 -34.5 -25.5t-12.5 -66.5zM261 811v95h295v-95h-295z" />
    <glyph glyph-name="Abreve" unicode="&#x102;" horiz-adv-x="739" 
d="M20 154q0 111 99 181q-8 15 -15 34q-25 63 -25 111q0 124 87 205t219 81q137 0 234.5 -97t98.5 -255l1 -414h-134q5 117 -74 195.5t-187 78.5l-20 -1q48 -90 48 -145q0 -60 -43 -102t-111 -42q-76 0 -127 43.5t-51 126.5zM229 410l10 -22q46 11 88 11q148 0 258 -104v104
q0 114 -59.5 180t-141.5 66q-75 0 -123 -46t-48 -118q0 -37 16 -71zM369 874q23 0 38 15.5t17 40.5h98q-2 -67 -44.5 -106.5t-108.5 -39.5t-108 39.5t-44 106.5h98q2 -25 16.5 -40.5t37.5 -15.5zM223 133q0 29 -41 97q-36 -30 -35 -77q1 -21 13 -36t30 -15q15 0 24 8.5
t9 22.5z" />
    <glyph glyph-name="abreve" unicode="&#x103;" horiz-adv-x="817" 
d="M797 368q-3 -138 -86 -241q41 -19 90 -22l1 -121q-111 4 -192 55q-93 -55 -201 -55q-162 0 -275.5 113.5t-113.5 277.5q0 163 113.5 277t275.5 114q89 0 166.5 -36.5t131.5 -101.5l-63 -57q69 -8 110.5 -63t42.5 -140zM449 369q1 71 38 129.5t104 71.5q-73 73 -182 73
q-114 0 -185.5 -76t-71.5 -192t71.5 -192t185.5 -76q59 0 109 21q-69 98 -69 241zM408 874q23 0 38 15.5t17 40.5h98q-2 -67 -44.5 -106.5t-108.5 -39.5t-108 39.5t-44 106.5h98q2 -25 16.5 -40.5t37.5 -15.5zM575 352q0 -82 42 -146q50 67 50 158q0 33 -12 56.5t-33 23.5
q-22 0 -34.5 -25.5t-12.5 -66.5z" />
    <glyph glyph-name="Aogonek" unicode="&#x104;" horiz-adv-x="739" 
d="M757 -109l50 -86q-44 -36 -97 -36q-54 0 -83 28.5t-29 83.5v119h-13q5 117 -74 195.5t-187 78.5l-20 -1q48 -90 48 -145q0 -60 -43 -102t-111 -42q-76 0 -127 43.5t-51 126.5q0 111 99 181q-8 15 -15 34q-25 63 -25 111q0 124 87 205t219 81q137 0 234.5 -97t98.5 -255
l1 -414h-17v-105q0 -21 20 -21q15 0 35 17zM229 410l10 -22q46 11 88 11q148 0 258 -104v104q0 114 -59.5 180t-141.5 66q-75 0 -123 -46t-48 -118q0 -37 16 -71zM223 133q0 29 -41 97q-36 -30 -35 -77q1 -21 13 -36t30 -15q15 0 24 8.5t9 22.5z" />
    <glyph glyph-name="aogonek" unicode="&#x105;" horiz-adv-x="817" 
d="M802 -109l50 -86q-44 -36 -97 -36q-54 0 -83 28.5t-29 83.5v140q-18 7 -33 18q-93 -55 -201 -55q-162 0 -275.5 113.5t-113.5 277.5q0 163 113.5 277t275.5 114q89 0 166.5 -36.5t131.5 -101.5l-63 -57q69 -8 110.5 -63t42.5 -140q-3 -138 -86 -241q41 -19 90 -22l1 -121
q-23 1 -55 5v-94q0 -21 20 -21q15 0 35 17zM449 369q1 71 38 129.5t104 71.5q-73 73 -182 73q-114 0 -185.5 -76t-71.5 -192t71.5 -192t185.5 -76q59 0 109 21q-69 98 -69 241zM575 352q0 -82 42 -146q50 67 50 158q0 33 -12 56.5t-33 23.5q-22 0 -34.5 -25.5t-12.5 -66.5z
" />
    <glyph glyph-name="Cacute" unicode="&#x106;" horiz-adv-x="724" 
d="M505 513h-126q2 -68 48 -112t116 -44t115.5 44t45.5 111q0 111 -85 182.5t-208 71.5q-167 0 -279 -111t-112 -279q0 -169 107.5 -280.5t288.5 -111.5q62 0 134 20t117 56l-13 136q-91 -85 -236 -85q-118 0 -192 74t-74 190t71.5 192.5t185.5 76.5q71 0 120.5 -34.5
t49.5 -95.5q0 -15 -10 -25t-25 -10q-33 0 -39 34zM595 850l-102 -60h-162l264 179v-119z" />
    <glyph glyph-name="cacute" unicode="&#x107;" horiz-adv-x="720" 
d="M412 653q40 0 64 -15t24 -40q0 -24 -21 -38t-59 -14q-37 0 -67 22.5t-40 56.5q40 28 99 28zM700 107l-76 91q-33 -39 -90.5 -65t-118.5 -26q-120 0 -192.5 74t-72.5 193q0 108 61 178q25 -56 82.5 -90t125.5 -34q88 0 148.5 45.5t60.5 124.5q0 75 -61 121.5t-147 46.5
q-65 0 -96 -13q3 12 10 25h-120q-14 -36 -20 -76q-80 -53 -127 -139.5t-47 -188.5q0 -172 110.5 -281t280.5 -109q83 0 159 32.5t130 90.5zM620 850l-102 -60h-162l264 179v-119z" />
    <glyph glyph-name="Ccircumflex" unicode="&#x108;" horiz-adv-x="724" 
d="M379 513h126q6 -34 39 -34q15 0 25 10t10 25q0 61 -49.5 95.5t-120.5 34.5q-114 0 -185.5 -76.5t-71.5 -192.5t74 -190t192 -74q145 0 236 85l13 -136q-45 -36 -117 -56t-134 -20q-181 0 -288.5 111.5t-107.5 280.5q0 168 112 279t279 111q123 0 208 -71.5t85 -182.5
q0 -67 -45.5 -111t-115.5 -44t-116 44t-48 112zM402 865l-148 -96v110l93 64h109l93 -64v-110z" />
    <glyph glyph-name="ccircumflex" unicode="&#x109;" horiz-adv-x="720" 
d="M412 653q-59 0 -99 -28q10 -34 40 -56.5t67 -22.5q38 0 59 14t21 38q0 25 -24 40t-64 15zM624 198l76 -91q-54 -58 -130 -90.5t-159 -32.5q-170 0 -280.5 109t-110.5 281q0 102 47 188.5t127 139.5q6 40 20 76h120q-7 -13 -10 -25q31 13 96 13q86 0 147 -46.5t61 -121.5
q0 -79 -60.5 -124.5t-148.5 -45.5q-68 0 -125.5 34t-82.5 90q-61 -70 -61 -178q0 -119 72.5 -193t192.5 -74q61 0 118.5 26t90.5 65zM390 885l-148 -96v110l93 64h109l93 -64v-110z" />
    <glyph glyph-name="Cdotaccent" unicode="&#x10a;" horiz-adv-x="724" 
d="M505 513h-126q2 -68 48 -112t116 -44t115.5 44t45.5 111q0 111 -85 182.5t-208 71.5q-167 0 -279 -111t-112 -279q0 -169 107.5 -280.5t288.5 -111.5q62 0 134 20t117 56l-13 136q-91 -85 -236 -85q-118 0 -192 74t-74 190t71.5 192.5t185.5 76.5q71 0 120.5 -34.5
t49.5 -95.5q0 -15 -10 -25t-25 -10q-33 0 -39 34zM451 936l32 -94l-82 -58l-81 58l31 94h100z" />
    <glyph glyph-name="cdotaccent" unicode="&#x10b;" horiz-adv-x="720" 
d="M700 107l-76 91q-33 -39 -90.5 -65t-118.5 -26q-120 0 -192.5 74t-72.5 193q0 108 61 178q25 -56 82.5 -90t125.5 -34q88 0 148.5 45.5t60.5 124.5q0 75 -61 121.5t-147 46.5q-65 0 -96 -13q3 12 10 25h-120q-14 -36 -20 -76q-80 -53 -127 -139.5t-47 -188.5
q0 -172 110.5 -281t280.5 -109q83 0 159 32.5t130 90.5zM459 936l32 -94l-82 -58l-81 58l31 94h100zM412 653q40 0 64 -15t24 -40q0 -24 -21 -38t-59 -14q-37 0 -67 22.5t-40 56.5q40 28 99 28z" />
    <glyph glyph-name="Ccaron" unicode="&#x10c;" horiz-adv-x="724" 
d="M379 513h126q6 -34 39 -34q15 0 25 10t10 25q0 61 -49.5 95.5t-120.5 34.5q-114 0 -185.5 -76.5t-71.5 -192.5t74 -190t192 -74q145 0 236 85l13 -136q-45 -36 -117 -56t-134 -20q-181 0 -288.5 111.5t-107.5 280.5q0 168 112 279t279 111q123 0 208 -71.5t85 -182.5
q0 -67 -45.5 -111t-115.5 -44t-116 44t-48 112zM254 964l148 -96l147 96v-110l-93 -64h-109l-93 64v110z" />
    <glyph glyph-name="ccaron" unicode="&#x10d;" horiz-adv-x="720" 
d="M412 653q-59 0 -99 -28q10 -34 40 -56.5t67 -22.5q38 0 59 14t21 38q0 25 -24 40t-64 15zM624 198l76 -91q-54 -58 -130 -90.5t-159 -32.5q-170 0 -280.5 109t-110.5 281q0 102 47 188.5t127 139.5q6 40 20 76h120q-7 -13 -10 -25q31 13 96 13q86 0 147 -46.5t61 -121.5
q0 -79 -60.5 -124.5t-148.5 -45.5q-68 0 -125.5 34t-82.5 90q-61 -70 -61 -178q0 -119 72.5 -193t192.5 -74q61 0 118.5 26t90.5 65zM272 964l148 -96l147 96v-110l-93 -64h-109l-93 64v110z" />
    <glyph glyph-name="Dcaron" unicode="&#x10e;" horiz-adv-x="863" 
d="M35 521l-15 132q90 58 191.5 85.5t193.5 27.5q119 0 217 -43.5t159.5 -134t61.5 -213.5q0 -165 -116 -277.5t-287 -112.5q-182 0 -301 91t-119 238q0 82 51 128.5t134 48.5v118q-94 -30 -170 -88zM537 333l-64 -113q-71 55 -136 87v-186q51 -14 108 -14q117 0 191.5 76.5
t74.5 191.5q0 128 -86.5 199.5t-217.5 71.5q-41 0 -70 -5v-189q45 -22 95 -52t78 -48zM149 311q0 -69 56 -123v175q-25 0 -40.5 -14.5t-15.5 -37.5zM304 964l148 -96l147 96v-110l-93 -64h-109l-93 64v110z" />
    <glyph glyph-name="dcaron" unicode="&#x10f;" horiz-adv-x="869" 
d="M20 303q0 84 50.5 139t135.5 55q2 129 78.5 199t193.5 70q155 0 263 -113t108 -277q0 -166 -113 -279t-283 -113q-118 0 -216.5 38.5t-157.5 112t-59 168.5zM449 396l-14 -144q-51 40 -98 67v-195q58 -16 116 -16q116 0 190 74t74 194q0 122 -67 195t-172 73
q-65 0 -103 -42.5t-38 -114.5v-25q59 -29 112 -66zM148 304q0 -63 58 -115v175q-28 1 -43 -17.5t-15 -42.5zM330 964l148 -96l147 96v-110l-93 -64h-109l-93 64v110z" />
    <glyph glyph-name="Dcroat" unicode="&#x110;" horiz-adv-x="850" 
d="M142 325h-122v132h282v172q-42 -9 -89 -29l-17 129q85 35 243 35q162 0 276.5 -111.5t114.5 -274.5q0 -166 -115.5 -280t-288.5 -114q-155 0 -237.5 68.5t-82.5 161.5q0 62 36 111zM437 326v-218q117 0 189 75.5t72 194.5q0 118 -72 191.5t-189 74.5v-187h148v-131h-148z
M302 133v193q-30 -11 -46.5 -37.5t-16.5 -55.5q0 -66 63 -100z" />
    <glyph glyph-name="dcroat" unicode="&#x111;" horiz-adv-x="873" 
d="M20 303q0 83 51.5 137t137.5 55q2 129 78.5 200t193.5 71q156 0 264 -113t108 -277q0 -165 -115 -278t-286 -113q-115 0 -212 36t-158.5 109.5t-61.5 172.5zM340 493h222v-132h-222v-237q54 -15 116 -15q116 0 190 73.5t74 193.5q0 122 -67 195t-172 73q-66 0 -103.5 -40
t-37.5 -111zM152 304q0 -65 57 -116v176q-28 1 -42.5 -17.5t-14.5 -42.5z" />
    <glyph glyph-name="Emacron" unicode="&#x112;" horiz-adv-x="582" 
d="M152 277l-1 -15q0 -67 43.5 -110.5t111.5 -43.5q101 0 149 87l107 -71q-38 -68 -109 -104t-147 -36q-127 0 -206.5 76.5t-79.5 196.5q0 80 42 146q-20 55 -20 116q0 110 73 178.5t185 68.5q113 0 187 -74l-92 -86q-39 36 -95 36q-55 0 -92.5 -34t-37.5 -91l1 -13
q67 36 143 36q74 0 121.5 -42.5t47.5 -114.5q0 -71 -49 -115t-123 -44q-90 0 -159 53zM310 341q21 0 36 11.5t15 30.5t-15 30.5t-36 11.5q-54 0 -99 -36q40 -48 99 -48zM143 811v95h295v-95h-295z" />
    <glyph glyph-name="emacron" unicode="&#x113;" horiz-adv-x="581" 
d="M149 488l1 -17q71 55 160 55q74 0 123 -43.5t49 -114.5q0 -72 -47.5 -115t-121.5 -43q-76 0 -143 36l-1 -13q0 -58 37 -91.5t95 -33.5q56 0 100 40l87 -90q-74 -74 -189 -74q-112 0 -186.5 66.5t-74.5 180.5q0 61 22 118q-40 63 -40 141q0 119 81 197.5t203 78.5
q75 0 145 -36.5t112 -103.5l-107 -71q-49 89 -151 89q-70 0 -112 -43.5t-42 -112.5zM309 409q-58 0 -99 -49q47 -35 99 -35q21 0 36 11.5t15 31.5q0 19 -15 30t-36 11zM153 811v95h295v-95h-295z" />
    <glyph glyph-name="Ebreve" unicode="&#x114;" horiz-adv-x="582" 
d="M152 277l-1 -15q0 -67 43.5 -110.5t111.5 -43.5q101 0 149 87l107 -71q-38 -68 -109 -104t-147 -36q-127 0 -206.5 76.5t-79.5 196.5q0 80 42 146q-20 55 -20 116q0 110 73 178.5t185 68.5q113 0 187 -74l-92 -86q-39 36 -95 36q-55 0 -92.5 -34t-37.5 -91l1 -13
q67 36 143 36q74 0 121.5 -42.5t47.5 -114.5q0 -71 -49 -115t-123 -44q-90 0 -159 53zM290 874q23 0 38 15.5t17 40.5h98q-2 -67 -44.5 -106.5t-108.5 -39.5t-108 39.5t-44 106.5h98q2 -25 16.5 -40.5t37.5 -15.5zM310 341q21 0 36 11.5t15 30.5t-15 30.5t-36 11.5
q-54 0 -99 -36q40 -48 99 -48z" />
    <glyph glyph-name="ebreve" unicode="&#x115;" horiz-adv-x="581" 
d="M149 488l1 -17q71 55 160 55q74 0 123 -43.5t49 -114.5q0 -72 -47.5 -115t-121.5 -43q-76 0 -143 36l-1 -13q0 -58 37 -91.5t95 -33.5q56 0 100 40l87 -90q-74 -74 -189 -74q-112 0 -186.5 66.5t-74.5 180.5q0 61 22 118q-40 63 -40 141q0 119 81 197.5t203 78.5
q75 0 145 -36.5t112 -103.5l-107 -71q-49 89 -151 89q-70 0 -112 -43.5t-42 -112.5zM310 874q23 0 38 15.5t17 40.5h98q-2 -67 -44.5 -106.5t-108.5 -39.5t-108 39.5t-44 106.5h98q2 -25 16.5 -40.5t37.5 -15.5zM309 409q-58 0 -99 -49q47 -35 99 -35q21 0 36 11.5t15 31.5
q0 19 -15 30t-36 11z" />
    <glyph glyph-name="Edotaccent" unicode="&#x116;" horiz-adv-x="582" 
d="M152 277l-1 -15q0 -67 43.5 -110.5t111.5 -43.5q101 0 149 87l107 -71q-38 -68 -109 -104t-147 -36q-127 0 -206.5 76.5t-79.5 196.5q0 80 42 146q-20 55 -20 116q0 110 73 178.5t185 68.5q113 0 187 -74l-92 -86q-39 36 -95 36q-55 0 -92.5 -34t-37.5 -91l1 -13
q67 36 143 36q74 0 121.5 -42.5t47.5 -114.5q0 -71 -49 -115t-123 -44q-90 0 -159 53zM340 936l32 -94l-82 -58l-81 58l31 94h100zM310 341q21 0 36 11.5t15 30.5t-15 30.5t-36 11.5q-54 0 -99 -36q40 -48 99 -48z" />
    <glyph glyph-name="edotaccent" unicode="&#x117;" horiz-adv-x="581" 
d="M149 488l1 -17q71 55 160 55q74 0 123 -43.5t49 -114.5q0 -72 -47.5 -115t-121.5 -43q-76 0 -143 36l-1 -13q0 -58 37 -91.5t95 -33.5q56 0 100 40l87 -90q-74 -74 -189 -74q-112 0 -186.5 66.5t-74.5 180.5q0 61 22 118q-40 63 -40 141q0 119 81 197.5t203 78.5
q75 0 145 -36.5t112 -103.5l-107 -71q-49 89 -151 89q-70 0 -112 -43.5t-42 -112.5zM350 936l32 -94l-82 -58l-81 58l31 94h100zM309 409q-58 0 -99 -49q47 -35 99 -35q21 0 36 11.5t15 31.5q0 19 -15 30t-36 11z" />
    <glyph glyph-name="Eogonek" unicode="&#x118;" horiz-adv-x="582" 
d="M512 -109l50 -86q-44 -36 -97 -36q-54 0 -83 28.5t-29 83.5v107q-21 -4 -47 -4q-127 0 -206.5 76.5t-79.5 196.5q0 80 42 146q-20 55 -20 116q0 110 73 178.5t185 68.5q113 0 187 -74l-92 -86q-39 36 -95 36q-55 0 -92.5 -34t-37.5 -91l1 -13q67 36 143 36
q74 0 121.5 -42.5t47.5 -114.5q0 -71 -49 -115t-123 -44q-90 0 -159 53l-1 -15q0 -67 43.5 -110.5t111.5 -43.5q101 0 149 87l107 -71q-38 -65 -105 -102v-127q0 -21 20 -21q15 0 35 17zM310 341q21 0 36 11.5t15 30.5t-15 30.5t-36 11.5q-54 0 -99 -36q40 -48 99 -48z" />
    <glyph glyph-name="eogonek" unicode="&#x119;" horiz-adv-x="581" 
d="M481 -109l50 -86q-44 -36 -97 -36q-54 0 -83 28.5t-29 83.5v104q-4 0 -12 -0.5t-11 -0.5q-112 0 -186.5 66.5t-74.5 180.5q0 61 22 118q-40 63 -40 141q0 119 81 197.5t203 78.5q75 0 145 -36.5t112 -103.5l-107 -71q-49 89 -151 89q-70 0 -112 -43.5t-42 -112.5l1 -17
q71 55 160 55q74 0 123 -43.5t49 -114.5q0 -72 -47.5 -115t-121.5 -43q-76 0 -143 36l-1 -13q0 -58 37 -91.5t95 -33.5q56 0 100 40l87 -90q-26 -26 -62 -45v-118q0 -21 20 -21q15 0 35 17zM309 409q-58 0 -99 -49q47 -35 99 -35q21 0 36 11.5t15 31.5q0 19 -15 30t-36 11z
" />
    <glyph glyph-name="Ecaron" unicode="&#x11a;" horiz-adv-x="582" 
d="M152 277l-1 -15q0 -67 43.5 -110.5t111.5 -43.5q101 0 149 87l107 -71q-38 -68 -109 -104t-147 -36q-127 0 -206.5 76.5t-79.5 196.5q0 80 42 146q-20 55 -20 116q0 110 73 178.5t185 68.5q113 0 187 -74l-92 -86q-39 36 -95 36q-55 0 -92.5 -34t-37.5 -91l1 -13
q67 36 143 36q74 0 121.5 -42.5t47.5 -114.5q0 -71 -49 -115t-123 -44q-90 0 -159 53zM310 341q21 0 36 11.5t15 30.5t-15 30.5t-36 11.5q-54 0 -99 -36q40 -48 99 -48zM143 964l148 -96l147 96v-110l-93 -64h-109l-93 64v110z" />
    <glyph glyph-name="ecaron" unicode="&#x11b;" horiz-adv-x="581" 
d="M149 488l1 -17q71 55 160 55q74 0 123 -43.5t49 -114.5q0 -72 -47.5 -115t-121.5 -43q-76 0 -143 36l-1 -13q0 -58 37 -91.5t95 -33.5q56 0 100 40l87 -90q-74 -74 -189 -74q-112 0 -186.5 66.5t-74.5 180.5q0 61 22 118q-40 63 -40 141q0 119 81 197.5t203 78.5
q75 0 145 -36.5t112 -103.5l-107 -71q-49 89 -151 89q-70 0 -112 -43.5t-42 -112.5zM309 409q-58 0 -99 -49q47 -35 99 -35q21 0 36 11.5t15 31.5q0 19 -15 30t-36 11zM163 964l148 -96l147 96v-110l-93 -64h-109l-93 64v110z" />
    <glyph glyph-name="Gcircumflex" unicode="&#x11c;" horiz-adv-x="716" 
d="M411 644q-116 0 -187.5 -76.5t-71.5 -193.5q0 -102 58 -172t155 -87v109q0 76 47 124t121 48q71 0 117 -43.5t46 -115.5q0 -82 -58.5 -149.5t-141.5 -92.5v-43h-131v35q-159 16 -252 124t-93 264q0 168 112 279.5t279 111.5q115 0 201 -44l-24 -130q-78 52 -177 52z
M566 238q0 15 -10 24.5t-23 9.5q-37 0 -37 -50v-94q70 37 70 110zM398 865l-148 -96v110l93 64h109l93 -64v-110z" />
    <glyph glyph-name="gcircumflex" unicode="&#x11d;" horiz-adv-x="871" 
d="M670 670v79h132v-446q25 10 49 16v-139q-23 -7 -49 -18v-201q0 -82 -50 -132.5t-130 -50.5q-81 0 -127 44.5t-46 119.5q0 23 14 51q-17 -8 -54 -8q-175 0 -282 110t-107 279q0 165 112.5 278.5t278.5 113.5q149 0 259 -96zM670 366v243q-10 -9 -25.5 -25t-24 -24t-9.5 -8
q-81 91 -200 91q-117 0 -188.5 -77t-71.5 -192q0 -119 72 -193t188 -74q99 0 176.5 73t82.5 186zM580 -55q0 -18 12 -31t31 -13q21 0 34 17t13 41v126q-90 -69 -90 -140zM426 865l-148 -96v110l93 64h109l93 -64v-110z" />
    <glyph glyph-name="Gbreve" unicode="&#x11e;" horiz-adv-x="716" 
d="M411 644q-116 0 -187.5 -76.5t-71.5 -193.5q0 -102 58 -172t155 -87v109q0 76 47 124t121 48q71 0 117 -43.5t46 -115.5q0 -82 -58.5 -149.5t-141.5 -92.5v-43h-131v35q-159 16 -252 124t-93 264q0 168 112 279.5t279 111.5q115 0 201 -44l-24 -130q-78 52 -177 52z
M397 874q23 0 38 15.5t17 40.5h98q-2 -67 -44.5 -106.5t-108.5 -39.5t-108 39.5t-44 106.5h98q2 -25 16.5 -40.5t37.5 -15.5zM566 238q0 15 -10 24.5t-23 9.5q-37 0 -37 -50v-94q70 37 70 110z" />
    <glyph glyph-name="gbreve" unicode="&#x11f;" horiz-adv-x="871" 
d="M670 670v79h132v-446q25 10 49 16v-139q-23 -7 -49 -18v-201q0 -82 -50 -132.5t-130 -50.5q-81 0 -127 44.5t-46 119.5q0 23 14 51q-17 -8 -54 -8q-175 0 -282 110t-107 279q0 165 112.5 278.5t278.5 113.5q149 0 259 -96zM670 366v243q-10 -9 -25.5 -25t-24 -24t-9.5 -8
q-81 91 -200 91q-117 0 -188.5 -77t-71.5 -192q0 -119 72 -193t188 -74q99 0 176.5 73t82.5 186zM415 874q23 0 38 15.5t17 40.5h98q-2 -67 -44.5 -106.5t-108.5 -39.5t-108 39.5t-44 106.5h98q2 -25 16.5 -40.5t37.5 -15.5zM580 -55q0 -18 12 -31t31 -13q21 0 34 17t13 41
v126q-90 -69 -90 -140z" />
    <glyph glyph-name="Gdotaccent" unicode="&#x120;" horiz-adv-x="716" 
d="M411 644q99 0 177 -52l24 130q-86 44 -201 44q-167 0 -279 -111.5t-112 -279.5q0 -156 93 -264t252 -124v-35h131v43q83 25 141.5 92.5t58.5 149.5q0 72 -46 115.5t-117 43.5q-74 0 -121 -48t-47 -124v-109q-97 17 -155 87t-58 172q0 117 71.5 193.5t187.5 76.5zM447 936
l32 -94l-82 -58l-81 58l31 94h100zM566 238q0 -73 -70 -110v94q0 50 37 50q13 0 23 -9.5t10 -24.5z" />
    <glyph glyph-name="gdotaccent" unicode="&#x121;" horiz-adv-x="871" 
d="M670 749v-79q-110 96 -259 96q-166 0 -278.5 -113.5t-112.5 -278.5q0 -169 107 -279t282 -110q37 0 54 8q-14 -28 -14 -51q0 -75 46 -119.5t127 -44.5q80 0 130 50.5t50 132.5v201q26 11 49 18v139q-24 -6 -49 -16v446h-132zM670 609v-243q-5 -113 -82.5 -186t-176.5 -73
q-116 0 -188 74t-72 193q0 115 71.5 192t188.5 77q119 0 200 -91q1 0 9.5 8t24 24t25.5 25zM475 936l32 -94l-82 -58l-81 58l31 94h100zM580 -55q0 71 90 140v-126q0 -24 -13 -41t-34 -17q-19 0 -31 13t-12 31z" />
    <glyph glyph-name="Gcommaaccent" unicode="&#x122;" horiz-adv-x="716" 
d="M411 644q-116 0 -187.5 -76.5t-71.5 -193.5q0 -102 58 -172t155 -87v109q0 76 47 124t121 48q71 0 117 -43.5t46 -115.5q0 -82 -58.5 -149.5t-141.5 -92.5v-43h-131v35q-159 16 -252 124t-93 264q0 168 112 279.5t279 111.5q115 0 201 -44l-24 -130q-78 52 -177 52z
M333 -192h-46l-32 94l83 60l82 -60l-26 -94q-12 -46 -36.5 -66t-70.5 -20v48q44 0 46 38zM566 238q0 15 -10 24.5t-23 9.5q-37 0 -37 -50v-94q70 37 70 110z" />
    <glyph glyph-name="gcommaaccent" unicode="&#x123;" horiz-adv-x="871" 
d="M670 670v79h132v-446q25 10 49 16v-139q-23 -7 -49 -18v-201q0 -82 -50 -132.5t-130 -50.5q-81 0 -127 44.5t-46 119.5q0 23 14 51q-17 -8 -54 -8q-175 0 -282 110t-107 279q0 165 112.5 278.5t278.5 113.5q149 0 259 -96zM670 366v243q-10 -9 -25.5 -25t-24 -24t-9.5 -8
q-81 91 -200 91q-117 0 -188.5 -77t-71.5 -192q0 -119 72 -193t188 -74q99 0 176.5 73t82.5 186zM311 -192h-46l-32 94l83 60l82 -60l-26 -94q-12 -46 -36.5 -66t-70.5 -20v48q44 0 46 38zM580 -55q0 -18 12 -31t31 -13q21 0 34 17t13 41v126q-90 -69 -90 -140z" />
    <glyph glyph-name="Hcircumflex" unicode="&#x124;" horiz-adv-x="620" 
d="M204 0h-132v271q-30 10 -52 24v149q20 -21 52 -35v341h132v-362q114 -2 192 94t72 268h132v-750h-132v388q-40 -64 -109.5 -101t-153.5 -35zM338 865l-148 -96v110l93 64h109l93 -64v-110z" />
    <glyph glyph-name="hcircumflex" unicode="&#x125;" horiz-adv-x="757" 
d="M338 651q156 0 267 -121v220h132v-750h-132v169q0 159 -76 259t-193 100l-13 -1v-527h-133q-83 84 -126.5 166.5t-43.5 188.5q0 91 45.5 161t125.5 105v129h132v-99h15zM150 359q0 -76 42 -157v274q-42 -45 -42 -117zM464 865l-148 -96v110l93 64h109l93 -64v-110z" />
    <glyph glyph-name="Hbar" unicode="&#x126;" horiz-adv-x="673" 
d="M204 0h-132v271q-30 10 -52 24v149q20 -21 52 -35v109h-52v118h52v114h132v-114h256q9 53 8 114h132v-114h53v-118h-53v-518h-132v388q-40 -64 -109.5 -101t-153.5 -35zM419 518h-215v-130q65 -1 122 32.5t93 97.5z" />
    <glyph glyph-name="hbar" unicode="&#x127;" horiz-adv-x="802" 
d="M137 584v118h51v48h132v-48h282v48h132v-48h48v-118h-48v-584h-132v101q0 162 -79 263t-203 91v-455h-146q-78 68 -116 136t-38 155q0 91 44 161t124 105v27h-51zM320 584v-2q173 -3 282 -121v123h-282zM146 293q0 -78 43 -121v239q-43 -43 -43 -118z" />
    <glyph glyph-name="Itilde" unicode="&#x128;" horiz-adv-x="172" 
d="M20 0v750h132v-750h-132zM158 785q-25 0 -76 22.5t-69 22.5q-19 0 -34.5 -7t-22.5 -14.5t-17 -20.5v103q32 32 76 32q25 0 76 -22.5t69 -22.5q19 0 34.5 7t22.5 14.5t17 20.5v-103q-32 -32 -76 -32z" />
    <glyph glyph-name="itilde" unicode="&#x129;" horiz-adv-x="203" 
d="M168 599v-599h-132v599h132zM173 645q-25 0 -76 22.5t-69 22.5q-19 0 -34.5 -7t-22.5 -14.5t-17 -20.5v103q32 32 76 32q25 0 76 -22.5t69 -22.5q43 0 74 42v-103q-32 -32 -76 -32z" />
    <glyph glyph-name="Imacron" unicode="&#x12a;" horiz-adv-x="172" 
d="M20 0v750h132v-750h-132zM-61 811v95h295v-95h-295z" />
    <glyph glyph-name="imacron" unicode="&#x12b;" horiz-adv-x="203" 
d="M168 599v-599h-132v599h132zM-46 671v95h295v-95h-295z" />
    <glyph glyph-name="Ibreve" unicode="&#x12c;" horiz-adv-x="172" 
d="M20 0v750h132v-750h-132zM86 874q23 0 38 15.5t17 40.5h98q-2 -67 -44.5 -106.5t-108.5 -39.5t-108 39.5t-44 106.5h98q2 -25 16.5 -40.5t37.5 -15.5z" />
    <glyph glyph-name="ibreve" unicode="&#x12d;" horiz-adv-x="203" 
d="M168 599v-599h-132v599h132zM101 734q23 0 38 15.5t17 40.5h98q-2 -67 -44.5 -106.5t-108.5 -39.5t-108 39.5t-44 106.5h98q2 -25 16.5 -40.5t37.5 -15.5z" />
    <glyph glyph-name="Iogonek" unicode="&#x12e;" horiz-adv-x="172" 
d="M20 0v750h132v-750h-15v-105q0 -21 20 -21q15 0 35 17l50 -86q-44 -36 -97 -36q-54 0 -83 28.5t-29 83.5v119h-13z" />
    <glyph glyph-name="iogonek" unicode="&#x12f;" horiz-adv-x="203" 
d="M208 -109l50 -86q-44 -36 -97 -36q-54 0 -83 28.5t-29 83.5v119h-13v599h132v-599h-15v-105q0 -21 20 -21q15 0 35 17zM151 766l32 -94l-82 -58l-81 58l31 94h100z" />
    <glyph glyph-name="Idotaccent" unicode="&#x130;" horiz-adv-x="172" 
d="M20 0v750h132v-750h-132zM136 936l32 -94l-82 -58l-81 58l31 94h100z" />
    <glyph glyph-name="dotlessi" unicode="&#x131;" horiz-adv-x="203" 
d="M168 599v-599h-132v599h132z" />
    <glyph glyph-name="I_J" unicode="&#x132;" horiz-adv-x="712" 
d="M20 0v750h132v-750h-132zM692 339q-15 1 -44 1v-98q0 -118 -64 -188t-166 -70q-94 0 -144 56t-50 135q0 61 23.5 111t65 83.5t92.5 55t111 31.5v155l-324 -145v138l326 146h130v-284h44v-127zM516 241v90q-72 -16 -113 -56t-41 -102q0 -25 16 -42t41 -17q47 0 72 34.5
t25 92.5z" />
    <glyph glyph-name="Jcircumflex" unicode="&#x134;" horiz-adv-x="540" 
d="M520 339q-15 1 -44 1v-98q0 -118 -64 -188t-166 -70q-94 0 -144 56t-50 135q0 61 23.5 111t65 83.5t92.5 55t111 31.5v155l-324 -145v138l326 146h130v-284h44v-127zM344 241v90q-72 -16 -113 -56t-41 -102q0 -25 16 -42t41 -17q47 0 72 34.5t25 92.5zM329 865l-148 -96
v110l93 64h109l93 -64v-110z" />
    <glyph glyph-name="jcircumflex" unicode="&#x135;" horiz-adv-x="543" 
d="M20 400l324 199h132v-299q21 7 47 13v-137l-47 -14v-161q0 -77 -50.5 -127.5t-126.5 -50.5q-77 0 -126.5 46.5t-49.5 121.5q0 147 221 256v211l-324 -196v138zM254 -10q0 -20 11.5 -32t32.5 -12q20 0 33 14t13 37v107q-90 -55 -90 -114zM329 735l-148 -96v110l93 64h109
l93 -64v-110z" />
    <glyph glyph-name="Kcommaaccent" unicode="&#x136;" horiz-adv-x="657" 
d="M254 556q35 0 88.5 -17.5t105.5 -59.5q46 112 -4 271h130q57 -215 -39 -369q93 -142 102 -381h-135q-3 180 -56 285q-82 -59 -191 -59q-60 0 -103 32v-258h-132v750h132v-226q45 32 102 32zM324 -192h-46l-32 94l83 60l82 -60l-26 -94q-12 -46 -36.5 -66t-70.5 -20v48
q44 0 46 38zM254 350q66 0 118 33q-58 50 -118 50q-22 0 -36 -11t-14 -30q0 -20 14 -31t36 -11z" />
    <glyph glyph-name="kcommaaccent" unicode="&#x137;" horiz-adv-x="632" 
d="M586 0h-134q34 99 34 196q0 89 -32 151q-56 -108 -166 -108q-91 0 -136 71v-310h-132v750h132v-259q54 77 160 77q45 0 89 -16l72 198h139l-102 -270q101 -103 101 -287q0 -93 -25 -193zM301 -192h-46l-32 94l83 60l82 -60l-26 -94q-12 -46 -36.5 -66t-70.5 -20v48
q44 0 46 38zM289 360q23 0 42 19.5t29 54.5q-29 11 -55 11t-42 -13t-16 -33q0 -17 11.5 -28t30.5 -11z" />
    <glyph glyph-name="Lacute" unicode="&#x139;" horiz-adv-x="707" 
d="M190 298q67 0 127 -41l188 493h138l-218 -572q90 -56 166 -56q57 0 96 27v-130q-44 -23 -109 -23q-107 0 -213 72q-66 -84 -175 -84q-74 0 -122 43.5t-48 112.5t48.5 113.5t121.5 44.5zM190 104q44 0 75 44q-43 28 -75 28q-20 0 -33 -10t-13 -26q0 -17 13 -26.5t33 -9.5z
M780 850l-102 -60h-162l264 179v-119z" />
    <glyph glyph-name="lacute" unicode="&#x13a;" horiz-adv-x="317" 
d="M297 150q-67 2 -110 -42t-41 -108h-126v750h132v-516q57 55 145 55v-139zM291 850l-102 -60h-162l264 179v-119z" />
    <glyph glyph-name="Lcommaaccent" unicode="&#x13b;" horiz-adv-x="707" 
d="M190 298q67 0 127 -41l188 493h138l-218 -572q90 -56 166 -56q57 0 96 27v-130q-44 -23 -109 -23q-107 0 -213 72q-66 -84 -175 -84q-74 0 -122 43.5t-48 112.5t48.5 113.5t121.5 44.5zM349 -192h-46l-32 94l83 60l82 -60l-26 -94q-12 -46 -36.5 -66t-70.5 -20v48
q44 0 46 38zM190 104q44 0 75 44q-43 28 -75 28q-20 0 -33 -10t-13 -26q0 -17 13 -26.5t33 -9.5z" />
    <glyph glyph-name="lcommaaccent" unicode="&#x13c;" horiz-adv-x="317" 
d="M297 150q-67 2 -110 -42t-41 -108h-126v750h132v-516q57 55 145 55v-139zM84 -192h-46l-32 94l83 60l82 -60l-26 -94q-12 -46 -36.5 -66t-70.5 -20v48q44 0 46 38z" />
    <glyph glyph-name="Lcaron" unicode="&#x13d;" horiz-adv-x="847" 
d="M190 298q67 0 127 -41l188 493h138l-218 -572q90 -56 166 -56q57 0 96 27v-130q-44 -23 -109 -23q-107 0 -213 72q-66 -84 -175 -84q-74 0 -122 43.5t-48 112.5t48.5 113.5t121.5 44.5zM742 575h-49l-39 109l92 66l91 -66l-28 -96q-20 -70 -43 -93.5t-77 -25.5v53
q49 0 53 53zM190 104q44 0 75 44q-43 28 -75 28q-20 0 -33 -10t-13 -26q0 -17 13 -26.5t33 -9.5z" />
    <glyph glyph-name="lcaron" unicode="&#x13e;" horiz-adv-x="387" 
d="M297 150q-67 2 -110 -42t-41 -108h-126v750h132v-516q57 55 145 55v-139zM286 595h-49l-39 109l92 66l91 -66l-28 -96q-20 -70 -43 -93.5t-77 -25.5v53q49 0 53 53z" />
    <glyph glyph-name="Ldot" unicode="&#x13f;" horiz-adv-x="707" 
d="M190 298q67 0 127 -41l188 493h138l-218 -572q90 -56 166 -56q57 0 96 27v-130q-44 -23 -109 -23q-107 0 -213 72q-66 -84 -175 -84q-74 0 -122 43.5t-48 112.5t48.5 113.5t121.5 44.5zM716 240l39 117l-102 73l-101 -73l38 -117h126zM190 104q44 0 75 44q-43 28 -75 28
q-20 0 -33 -10t-13 -26q0 -17 13 -26.5t33 -9.5z" />
    <glyph glyph-name="ldot" unicode="&#x140;" horiz-adv-x="317" 
d="M297 150q-67 2 -110 -42t-41 -108h-126v750h132v-516q57 55 145 55v-139zM361 360l39 117l-102 73l-101 -73l38 -117h126z" />
    <glyph glyph-name="Lslash" unicode="&#x141;" horiz-adv-x="707" 
d="M191 472v133l219 -103l95 248h138l-116 -303l160 -74v-139l-204 97l-58 -153q90 -56 166 -56q57 0 96 27v-130q-44 -23 -109 -23q-107 0 -213 72q-66 -84 -175 -84q-74 0 -122 43.5t-48 112.5t48.5 113.5t121.5 44.5q67 0 127 -41l50 130zM190 104q44 0 75 44
q-43 28 -75 28q-20 0 -33 -10t-13 -26q0 -17 13 -26.5t33 -9.5z" />
    <glyph glyph-name="lslash" unicode="&#x142;" horiz-adv-x="413" 
d="M20 469v135l96 -47v193h132v-257l145 -70v-133l-145 69v-125q57 55 145 55v-139q-67 2 -110 -42t-41 -108h-125v1l-1 -1v423z" />
    <glyph glyph-name="Nacute" unicode="&#x143;" horiz-adv-x="758" 
d="M654 428l-48 91l116 231h-145q-21 -43 -48 -98q-82 114 -224 114q-128 0 -206 -73.5t-78 -208.5l-1 -484h130v480q0 79 41 120.5t115 41.5q40 0 76 -23t60 -64l21 -37l-44 -88q-84 -169 -84 -260q0 -88 56 -137t146 -49t145.5 49.5t55.5 138.5q0 96 -84 256zM469 176
q0 61 63 195l4 12l5 -12q22 -46 32.5 -69t21 -59.5t10.5 -65.5q0 -30 -18.5 -49t-49.5 -19q-30 0 -49 19t-19 48zM639 850l-102 -60h-162l264 179v-119z" />
    <glyph glyph-name="nacute" unicode="&#x144;" horiz-adv-x="764" 
d="M20 213q0 90 33 193t93 185q-39 64 -108 159h145q19 -26 47 -68q102 84 225 84q122 0 205 -79t83 -209l1 -478h-130v480q0 75 -43.5 119.5t-115.5 44.5q-88 0 -161 -67q128 -223 128 -379q0 -93 -55.5 -153.5t-143.5 -60.5q-92 0 -147.5 63t-55.5 166zM292 194
q3 117 -78 277q-63 -118 -63 -268q0 -43 19 -68.5t52 -25.5q32 0 50.5 25t19.5 60zM584 850l-102 -60h-162l264 179v-119z" />
    <glyph glyph-name="Ncommaaccent" unicode="&#x145;" horiz-adv-x="758" 
d="M606 519l48 -91q84 -160 84 -256q0 -89 -55.5 -138.5t-145.5 -49.5t-146 49t-56 137q0 91 84 260l44 88l-21 37q-24 41 -60 64t-76 23q-74 0 -115 -41.5t-41 -120.5v-480h-130l1 484q0 135 78 208.5t206 73.5q142 0 224 -114l48 98h145q-62 -122 -116 -231zM469 176
q0 -29 19 -48t49 -19q31 0 49.5 19t18.5 49q0 29 -10.5 65.5t-21 59.5t-32.5 69l-5 12l-4 -12q-63 -134 -63 -195zM374 -192h-46l-32 94l83 60l82 -60l-26 -94q-12 -46 -36.5 -66t-70.5 -20v48q44 0 46 38z" />
    <glyph glyph-name="ncommaaccent" unicode="&#x146;" horiz-adv-x="764" 
d="M20 213q0 90 33 193t93 185q-39 64 -108 159h145q19 -26 47 -68q102 84 225 84q122 0 205 -79t83 -209l1 -478h-130v480q0 75 -43.5 119.5t-115.5 44.5q-88 0 -161 -67q128 -223 128 -379q0 -93 -55.5 -153.5t-143.5 -60.5q-92 0 -147.5 63t-55.5 166zM292 194
q3 117 -78 277q-63 -118 -63 -268q0 -43 19 -68.5t52 -25.5q32 0 50.5 25t19.5 60zM427 -192h-46l-32 94l83 60l82 -60l-26 -94q-12 -46 -36.5 -66t-70.5 -20v48q44 0 46 38z" />
    <glyph glyph-name="Ncaron" unicode="&#x147;" horiz-adv-x="758" 
d="M606 519l48 -91q84 -160 84 -256q0 -89 -55.5 -138.5t-145.5 -49.5t-146 49t-56 137q0 91 84 260l44 88l-21 37q-24 41 -60 64t-76 23q-74 0 -115 -41.5t-41 -120.5v-480h-130l1 484q0 135 78 208.5t206 73.5q142 0 224 -114l48 98h145q-62 -122 -116 -231zM301 964
l148 -96l147 96v-110l-93 -64h-109l-93 64v110zM469 176q0 -29 19 -48t49 -19q31 0 49.5 19t18.5 49q0 29 -10.5 65.5t-21 59.5t-32.5 69l-5 12l-4 -12q-63 -134 -63 -195z" />
    <glyph glyph-name="ncaron" unicode="&#x148;" horiz-adv-x="764" 
d="M20 213q0 90 33 193t93 185q-39 64 -108 159h145q19 -26 47 -68q102 84 225 84q122 0 205 -79t83 -209l1 -478h-130v480q0 75 -43.5 119.5t-115.5 44.5q-88 0 -161 -67q128 -223 128 -379q0 -93 -55.5 -153.5t-143.5 -60.5q-92 0 -147.5 63t-55.5 166zM292 194
q3 117 -78 277q-63 -118 -63 -268q0 -43 19 -68.5t52 -25.5q32 0 50.5 25t19.5 60zM284 964l148 -96l147 96v-110l-93 -64h-109l-93 64v110z" />
    <glyph glyph-name="Omacron" unicode="&#x14c;" 
d="M411 766q-80 0 -141.5 -38t-72.5 -106l-44 47q-62 -55 -97 -130.5t-35 -161.5q-1 -165 111.5 -279t279.5 -114q164 0 278 114.5t114 278.5q0 162 -115.5 275.5t-277.5 113.5zM152 377q-1 89 52 162q19 -54 72 -83.5t127 -29.5q66 0 122 36t83 93q64 -73 64 -178
q0 -117 -73 -193t-187 -76q-115 0 -186.5 75t-73.5 194zM411 651q64 0 100 -30q-12 -35 -42.5 -55t-66.5 -20q-35 0 -58 14.5t-23 38.5t25 38t65 14zM264 811v95h295v-95h-295z" />
    <glyph glyph-name="omacron" unicode="&#x14d;" 
d="M535 745q-63 21 -124 21q-80 0 -141.5 -38t-72.5 -106l-44 47q-62 -55 -97 -130.5t-35 -161.5q-1 -164 112 -278.5t279 -114.5q164 0 278 114.5t114 278.5q0 92 -40.5 171t-110.5 134q3 44 -7 84h-118q3 -7 7 -21zM152 377q0 91 52 162q19 -55 72 -84t126 -29
q67 0 125 35.5t84 91.5q61 -70 61 -176q0 -117 -73 -193t-187 -76q-115 0 -187.5 75.5t-72.5 193.5zM411 651q64 0 100 -30q-12 -35 -42.5 -55t-66.5 -20q-35 0 -58 14.5t-23 38.5t25 38t65 14zM264 811v95h295v-95h-295z" />
    <glyph glyph-name="Obreve" unicode="&#x14e;" 
d="M411 766q162 0 277.5 -113.5t115.5 -275.5q0 -164 -114 -278.5t-278 -114.5q-167 0 -279.5 114t-111.5 279q0 86 35 161.5t97 130.5l44 -47q11 68 72.5 106t141.5 38zM152 377q2 -119 73.5 -194t186.5 -75q114 0 187 76t73 193q0 105 -64 178q-27 -57 -83 -93t-122 -36
q-74 0 -127 29.5t-72 83.5q-53 -73 -52 -162zM411 874q23 0 38 15.5t17 40.5h98q-2 -67 -44.5 -106.5t-108.5 -39.5t-108 39.5t-44 106.5h98q2 -25 16.5 -40.5t37.5 -15.5zM411 651q-40 0 -65 -14t-25 -38t23 -38.5t58 -14.5q36 0 66.5 20t42.5 55q-36 30 -100 30z" />
    <glyph glyph-name="obreve" unicode="&#x14f;" 
d="M535 745q-4 14 -7 21h118q10 -40 7 -84q70 -55 110.5 -134t40.5 -171q0 -164 -114 -278.5t-278 -114.5q-166 0 -279 114.5t-112 278.5q0 86 35 161.5t97 130.5l44 -47q11 68 72.5 106t141.5 38q61 0 124 -21zM152 377q0 -118 72.5 -193.5t187.5 -75.5q114 0 187 76
t73 193q0 106 -61 176q-26 -56 -84 -91.5t-125 -35.5q-73 0 -126 29t-72 84q-52 -71 -52 -162zM411 874q23 0 38 15.5t17 40.5h98q-2 -67 -44.5 -106.5t-108.5 -39.5t-108 39.5t-44 106.5h98q2 -25 16.5 -40.5t37.5 -15.5zM411 651q-40 0 -65 -14t-25 -38t23 -38.5t58 -14.5
q36 0 66.5 20t42.5 55q-36 30 -100 30z" />
    <glyph glyph-name="Ohungarumlaut" unicode="&#x150;" 
d="M411 766q-80 0 -141.5 -38t-72.5 -106l-44 47q-62 -55 -97 -130.5t-35 -161.5q-1 -165 111.5 -279t279.5 -114q164 0 278 114.5t114 278.5q0 162 -115.5 275.5t-277.5 113.5zM152 377q-1 89 52 162q19 -54 72 -83.5t127 -29.5q66 0 122 36t83 93q64 -73 64 -178
q0 -117 -73 -193t-187 -76q-115 0 -186.5 75t-73.5 194zM411 651q64 0 100 -30q-12 -35 -42.5 -55t-66.5 -20q-35 0 -58 14.5t-23 38.5t25 38t65 14zM483 849l-80 -59h-136l216 173v-114zM657 849l-84 -59h-136l220 173v-114z" />
    <glyph glyph-name="ohungarumlaut" unicode="&#x151;" 
d="M535 745q-63 21 -124 21q-80 0 -141.5 -38t-72.5 -106l-44 47q-62 -55 -97 -130.5t-35 -161.5q-1 -164 112 -278.5t279 -114.5q164 0 278 114.5t114 278.5q0 92 -40.5 171t-110.5 134q3 44 -7 84h-118q3 -7 7 -21zM152 377q0 91 52 162q19 -55 72 -84t126 -29
q67 0 125 35.5t84 91.5q61 -70 61 -176q0 -117 -73 -193t-187 -76q-115 0 -187.5 75.5t-72.5 193.5zM411 651q64 0 100 -30q-12 -35 -42.5 -55t-66.5 -20q-35 0 -58 14.5t-23 38.5t25 38t65 14zM473 849l-80 -59h-136l216 173v-114zM647 849l-84 -59h-136l220 173v-114z" />
    <glyph glyph-name="OE" unicode="&#x152;" horiz-adv-x="1196" 
d="M1067 220l109 -50q-15 -54 -41 -93t-57.5 -58t-60.5 -27t-60 -8q-86 0 -137 49t-51 127q0 47 29 94l-23 10q-39 -126 -136.5 -203t-230.5 -77q-171 0 -279.5 111t-107.5 277q0 87 34 165t94 132l55 -58q2 72 57 113.5t136 41.5q88 0 166 -35t135 -97q40 59 107 95.5
t138 36.5q94 0 148.5 -45.5t54.5 -126.5q0 -55 -24.5 -98t-66.5 -69.5t-87 -42t-96 -23.5q37 -16 84 -16v-125q-23 0 -40 -16.5t-17 -40.5q0 -25 15.5 -40t40.5 -15q84 0 112 112zM210 554q-62 -75 -62 -181q0 -117 71 -192t189 -75q107 0 177.5 68.5t78.5 175.5
q-396 10 -454 204zM403 656q-37 0 -57.5 -15t-20.5 -41q0 -12 6.5 -25.5t28 -31.5t55.5 -32.5t96 -27.5t142 -18q-25 84 -93 137.5t-157 53.5zM943 646q-69 0 -119 -57.5t-34 -121.5q226 24 226 119q0 29 -20 44.5t-53 15.5z" />
    <glyph glyph-name="oe" unicode="&#x153;" horiz-adv-x="1264" 
d="M390 766q104 0 192.5 -49.5t140.5 -130.5q41 83 111 131.5t159 48.5q110 0 173 -61t63 -151q0 -76 -38.5 -136t-102.5 -95.5t-130 -56t-137 -27.5q27 -61 73 -96t101 -35q49 0 90.5 25t64.5 75l94 -86q-93 -138 -250 -138q-89 0 -158 44.5t-110 124.5q-51 -78 -133 -123
t-187 -45q-168 0 -277 110t-108 275q0 88 33.5 166.5t93.5 131.5l56 -58q3 71 55 113.5t131 42.5zM208 555q-60 -72 -60 -180q0 -116 71 -192.5t189 -76.5q78 0 139.5 35t93.5 97q-82 7 -151.5 28t-129 58t-99.5 95.5t-53 135.5zM390 650q-31 0 -47 -16t-16 -43
q0 -64 50 -117t125.5 -83t162.5 -37q-1 127 -87.5 211.5t-187.5 84.5zM1100 549q0 41 -28 69.5t-78 28.5q-82 0 -144.5 -90.5t-56.5 -199.5q55 6 105.5 19.5t98 35.5t75.5 57.5t28 79.5z" />
    <glyph glyph-name="Racute" unicode="&#x154;" horiz-adv-x="651" 
d="M505 478q0 -26 -8 -55q-67 70 -156 70q-79 0 -126.5 -44t-47.5 -112q0 -72 47 -115t129 -43q47 0 88 12q-11 -89 -52 -191h135q58 155 46 273q71 84 71 209q0 127 -87 205.5t-214 78.5q-130 0 -220 -87t-90 -214v-465h132v462q0 76 50.5 128t125.5 52q77 0 127 -45.5
t50 -118.5zM342 372q52 0 77 -54q-34 -21 -73 -21q-24 0 -37.5 11t-13.5 28t13 26.5t34 9.5zM547 850l-102 -60h-162l264 179v-119z" />
    <glyph glyph-name="racute" unicode="&#x155;" horiz-adv-x="641" 
d="M610 0h-129q15 68 15 132q0 92 -34 152q-22 -47 -58 -75t-62 -34.5t-52 -6.5q-93 0 -139 66v-234h-131v497q0 126 70.5 197.5t173.5 71.5q101 0 170.5 -72.5t69.5 -201.5q0 -37 -6 -64q123 -97 123 -302q0 -63 -11 -126zM309 492q32 0 69 -8q3 77 -31.5 118.5t-81.5 41.5
q-49 0 -81.5 -36t-32.5 -104v-89q50 77 158 77zM282 289q67 0 83 76q-29 10 -60 10q-29 0 -46.5 -13.5t-17.5 -35.5q0 -16 11.5 -26.5t29.5 -10.5zM452 850l-102 -60h-162l264 179v-119z" />
    <glyph glyph-name="Rcommaaccent" unicode="&#x156;" horiz-adv-x="651" 
d="M505 478q0 73 -50 118.5t-127 45.5q-75 0 -125.5 -52t-50.5 -128v-462h-132v465q0 127 90 214t220 87q127 0 214 -78.5t87 -205.5q0 -125 -71 -209q12 -118 -46 -273h-135q41 102 52 191q-41 -12 -88 -12q-82 0 -129 43t-47 115q0 68 47.5 112t126.5 44q89 0 156 -70
q8 29 8 55zM261 -192h-46l-32 94l83 60l82 -60l-26 -94q-12 -46 -36.5 -66t-70.5 -20v48q44 0 46 38zM342 372q-21 0 -34 -9.5t-13 -26.5t13.5 -28t37.5 -11q39 0 73 21q-25 54 -77 54z" />
    <glyph glyph-name="rcommaaccent" unicode="&#x157;" horiz-adv-x="641" 
d="M610 0h-129q15 68 15 132q0 92 -34 152q-22 -47 -58 -75t-62 -34.5t-52 -6.5q-93 0 -139 66v-234h-131v497q0 126 70.5 197.5t173.5 71.5q101 0 170.5 -72.5t69.5 -201.5q0 -37 -6 -64q123 -97 123 -302q0 -63 -11 -126zM309 492q32 0 69 -8q3 77 -31.5 118.5t-81.5 41.5
q-49 0 -81.5 -36t-32.5 -104v-89q50 77 158 77zM316 -192h-46l-32 94l83 60l82 -60l-26 -94q-12 -46 -36.5 -66t-70.5 -20v48q44 0 46 38zM282 289q67 0 83 76q-29 10 -60 10q-29 0 -46.5 -13.5t-17.5 -35.5q0 -16 11.5 -26.5t29.5 -10.5z" />
    <glyph glyph-name="Rcaron" unicode="&#x158;" horiz-adv-x="651" 
d="M505 478q0 73 -50 118.5t-127 45.5q-75 0 -125.5 -52t-50.5 -128v-462h-132v465q0 127 90 214t220 87q127 0 214 -78.5t87 -205.5q0 -125 -71 -209q12 -118 -46 -273h-135q41 102 52 191q-41 -12 -88 -12q-82 0 -129 43t-47 115q0 68 47.5 112t126.5 44q89 0 156 -70
q8 29 8 55zM342 372q-21 0 -34 -9.5t-13 -26.5t13.5 -28t37.5 -11q39 0 73 21q-25 54 -77 54zM188 964l148 -96l147 96v-110l-93 -64h-109l-93 64v110z" />
    <glyph glyph-name="rcaron" unicode="&#x159;" horiz-adv-x="641" 
d="M610 0h-129q15 68 15 132q0 92 -34 152q-22 -47 -58 -75t-62 -34.5t-52 -6.5q-93 0 -139 66v-234h-131v497q0 126 70.5 197.5t173.5 71.5q101 0 170.5 -72.5t69.5 -201.5q0 -37 -6 -64q123 -97 123 -302q0 -63 -11 -126zM309 492q32 0 69 -8q3 77 -31.5 118.5t-81.5 41.5
q-49 0 -81.5 -36t-32.5 -104v-89q50 77 158 77zM282 289q67 0 83 76q-29 10 -60 10q-29 0 -46.5 -13.5t-17.5 -35.5q0 -16 11.5 -26.5t29.5 -10.5zM112 964l148 -96l147 96v-110l-93 -64h-109l-93 64v110z" />
    <glyph glyph-name="Sacute" unicode="&#x15a;" horiz-adv-x="514" 
d="M45 194q0 -91 62 -150.5t156 -59.5q95 0 159.5 60t64.5 153q0 39 -13 72t-29.5 54.5t-47 43.5t-50.5 33t-55 28q-70 34 -103.5 60.5t-33.5 61.5q0 41 26.5 65t70.5 24t84 -36.5t63 -85.5l95 91q-38 78 -102 118t-140 40q-98 0 -165 -62.5t-67 -158.5q0 -64 30 -106
t85 -75q-90 -58 -90 -170zM350 194q0 -38 -24.5 -60.5t-60.5 -22.5t-60.5 22.5t-24.5 60.5q0 39 24.5 61t60.5 22q20 0 37 -7q48 -29 48 -76zM446 850l-102 -60h-162l264 179v-119z" />
    <glyph glyph-name="sacute" unicode="&#x15b;" horiz-adv-x="802" 
d="M38 0h139l34 79q118 -97 262 -97q131 0 218 69.5t90 198.5q4 166 -170 259l-64 34q-69 37 -80.5 94t39.5 113h-147l-180 -426q-28 60 -26 137h-133q0 -151 95 -283zM476 106q-118 0 -213 97l135 314q4 -16 19.5 -32.5t30.5 -26.5t43 -27l63 -36q93 -49 92 -144
q-1 -67 -48 -106t-122 -39zM633 850l-102 -60h-162l264 179v-119z" />
    <glyph glyph-name="Scircumflex" unicode="&#x15c;" horiz-adv-x="514" 
d="M45 194q0 112 90 170q-55 33 -85 75t-30 106q0 96 67 158.5t165 62.5q76 0 140 -40t102 -118l-95 -91q-23 49 -63 85.5t-84 36.5t-70.5 -24t-26.5 -65q0 -35 33.5 -61.5t103.5 -60.5q35 -17 55 -28t50.5 -33t47 -43.5t29.5 -54.5t13 -72q0 -93 -64.5 -153t-159.5 -60
q-94 0 -156 59.5t-62 150.5zM350 194q0 47 -48 76q-17 7 -37 7q-36 0 -60.5 -22t-24.5 -61q0 -38 24.5 -60.5t60.5 -22.5t60.5 22.5t24.5 60.5zM257 865l-148 -96v110l93 64h109l93 -64v-110z" />
    <glyph glyph-name="scircumflex" unicode="&#x15d;" horiz-adv-x="802" 
d="M177 0h-139l77 178q-95 132 -95 283h133q-2 -77 26 -137l180 426h147q-51 -56 -39.5 -113t80.5 -94l64 -34q174 -93 170 -259q-3 -129 -90 -198.5t-218 -69.5q-144 0 -262 97zM476 106q75 0 122 39t48 106q1 95 -92 144l-63 36q-28 17 -43 27t-30.5 26.5t-19.5 32.5
l-135 -314q95 -97 213 -97zM431 865l-148 -96v110l93 64h109l93 -64v-110z" />
    <glyph glyph-name="Scedilla" unicode="&#x15e;" horiz-adv-x="514" 
d="M149 -215l28 92q25 -22 55 -22q32 0 32 26q0 34 -65 27v85q-70 18 -112 72.5t-42 128.5q0 112 90 170q-55 33 -85 75t-30 106q0 96 67 158.5t165 62.5q76 0 140 -40t102 -118l-95 -91q-23 49 -63 85.5t-84 36.5t-70.5 -24t-26.5 -65q0 -35 33.5 -61.5t103.5 -60.5
q35 -17 55 -28t50.5 -33t47 -43.5t29.5 -54.5t13 -72q0 -85 -54.5 -143t-138.5 -68v-20q29 -7 50 -31t21 -60q0 -53 -36 -82t-86 -29q-57 0 -94 21zM350 194q0 47 -48 76q-17 7 -37 7q-36 0 -60.5 -22t-24.5 -61q0 -38 24.5 -60.5t60.5 -22.5t60.5 22.5t24.5 60.5z" />
    <glyph glyph-name="scedilla" unicode="&#x15f;" horiz-adv-x="802" 
d="M15 -215l28 92q25 -22 55 -22q32 0 32 26q0 34 -65 27v92h-27l77 178q-95 132 -95 283h133q-2 -77 26 -137l180 426h147q-51 -56 -39.5 -113t80.5 -94l64 -34q174 -93 170 -259q-3 -129 -90 -198.5t-218 -69.5q-144 0 -262 97l-34 -79h-17v-34q29 -7 50 -31t21 -60
q0 -53 -36 -82t-86 -29q-57 0 -94 21zM476 106q75 0 122 39t48 106q1 95 -92 144l-63 36q-28 17 -43 27t-30.5 26.5t-19.5 32.5l-135 -314q95 -97 213 -97z" />
    <glyph glyph-name="Scaron" unicode="&#x160;" horiz-adv-x="514" 
d="M45 194q0 112 90 170q-55 33 -85 75t-30 106q0 96 67 158.5t165 62.5q76 0 140 -40t102 -118l-95 -91q-23 49 -63 85.5t-84 36.5t-70.5 -24t-26.5 -65q0 -35 33.5 -61.5t103.5 -60.5q35 -17 55 -28t50.5 -33t47 -43.5t29.5 -54.5t13 -72q0 -93 -64.5 -153t-159.5 -60
q-94 0 -156 59.5t-62 150.5zM350 194q0 47 -48 76q-17 7 -37 7q-36 0 -60.5 -22t-24.5 -61q0 -38 24.5 -60.5t60.5 -22.5t60.5 22.5t24.5 60.5zM109 964l148 -96l147 96v-110l-93 -64h-109l-93 64v110z" />
    <glyph glyph-name="scaron" unicode="&#x161;" horiz-adv-x="802" 
d="M177 0h-139l77 178q-95 132 -95 283h133q-2 -77 26 -137l180 426h147q-51 -56 -39.5 -113t80.5 -94l64 -34q174 -93 170 -259q-3 -129 -90 -198.5t-218 -69.5q-144 0 -262 97zM476 106q75 0 122 39t48 106q1 95 -92 144l-63 36q-28 17 -43 27t-30.5 26.5t-19.5 32.5
l-135 -314q95 -97 213 -97zM283 964l148 -96l147 96v-110l-93 -64h-109l-93 64v110z" />
    <glyph glyph-name="uni0162" unicode="&#x162;" horiz-adv-x="780" 
d="M355 -215l28 92q25 -22 55 -22q32 0 32 26q0 34 -65 27v92h-20v475q-59 -38 -142 -38q-102 0 -162.5 44.5t-60.5 119.5q0 70 63.5 117.5t166.5 47.5q60 0 117 -20.5t97 -55.5q107 78 205 78q50 0 91 -19v-133q-41 22 -80 22q-64 0 -163 -70v-568h-17v-34q29 -7 50 -31
t21 -60q0 -53 -36 -82t-86 -29q-57 0 -94 21zM247 642q-41 0 -64 -11.5t-23 -29.5t22 -29.5t63 -11.5q68 0 115 42q-40 40 -113 40z" />
    <glyph glyph-name="uni0163" unicode="&#x163;" horiz-adv-x="524" 
d="M230 -215l28 92q25 -22 55 -22q32 0 32 26q0 34 -65 27v82q-64 15 -97.5 71.5t-33.5 138.5v238q-56 28 -129 28v133h129v151h132v-151h222v-133h-151q152 -109 152 -270q0 -83 -34.5 -137t-94.5 -69v-24q29 -7 50 -31t21 -60q0 -53 -36 -82t-86 -29q-57 0 -94 21z
M376 193q0 101 -95 176v-167q0 -91 47 -91q48 0 48 82z" />
    <glyph glyph-name="Tcaron" unicode="&#x164;" horiz-adv-x="780" 
d="M760 749v-133q-41 22 -80 22q-64 0 -163 -70v-568h-132v475q-59 -38 -142 -38q-102 0 -162.5 44.5t-60.5 119.5q0 70 63.5 117.5t166.5 47.5q60 0 117 -20.5t97 -55.5q107 78 205 78q50 0 91 -19zM247 642q-41 0 -64 -11.5t-23 -29.5t22 -29.5t63 -11.5q68 0 115 42
q-40 40 -113 40zM303 964l148 -96l147 96v-110l-93 -64h-109l-93 64v110z" />
    <glyph glyph-name="tcaron" unicode="&#x165;" horiz-adv-x="524" 
d="M20 599v-133q73 0 129 -28v-238q0 -97 46.5 -156.5t132.5 -59.5q79 0 127.5 56.5t48.5 155.5q0 161 -152 270h151v133h-222v151h-132v-151h-129zM419 763h-49l-39 109l92 66l91 -66l-28 -96q-20 -70 -43 -93.5t-77 -25.5v53q49 0 53 53zM376 193q0 -82 -48 -82
q-47 0 -47 91v167q95 -75 95 -176z" />
    <glyph glyph-name="Tbar" unicode="&#x166;" horiz-adv-x="780" 
d="M279 276v118h106v81q-59 -38 -142 -38q-102 0 -162.5 44.5t-60.5 119.5q0 70 63.5 117.5t166.5 47.5q60 0 117 -20.5t97 -55.5q107 78 205 78q50 0 91 -19v-133q-41 22 -80 22q-64 0 -163 -70v-174h107v-118h-107v-276h-132v276h-106zM247 642q-41 0 -64 -11.5t-23 -29.5
t22 -29.5t63 -11.5q68 0 115 42q-40 40 -113 40z" />
    <glyph glyph-name="tbar" unicode="&#x167;" horiz-adv-x="524" 
d="M20 602v118h129v30h132v-30h222v-118h-222v-30h222v-133h-156q157 -100 157 -245q0 -96 -48.5 -153t-127.5 -57q-86 0 -132.5 59.5t-46.5 156.5v211q-56 28 -129 28v133h129v30h-129zM376 193q0 81 -95 144v-138q0 -88 48 -88q21 0 34 21t13 61z" />
    <glyph glyph-name="Utilde" unicode="&#x168;" horiz-adv-x="758" 
d="M104 322q-84 160 -84 256q0 89 55.5 138.5t145.5 49.5t146 -49t56 -137q0 -91 -84 -260l-44 -88l21 -37q24 -41 60 -64t76 -23q74 0 115 41.5t41 120.5v480h130l-1 -484q0 -135 -78 -208.5t-206 -73.5q-143 0 -224 113l-48 -97h-145q61 122 116 230q-26 48 -48 92z
M222 367l5 12q62 132 62 195q0 30 -19.5 48.5t-48.5 18.5q-30 0 -49 -19t-19 -50q0 -29 10.5 -65.5t20.5 -58.5t33 -69zM480 785q-25 0 -76 22.5t-69 22.5q-43 0 -74 -42v103q32 32 76 32q25 0 76 -22.5t69 -22.5q19 0 34.5 7t22.5 14.5t17 20.5v-103q-32 -32 -76 -32z" />
    <glyph glyph-name="utilde" unicode="&#x169;" horiz-adv-x="764" 
d="M744 537q0 -90 -33 -193t-93 -185q39 -64 108 -159h-145q-19 26 -47 68q-102 -84 -225 -84q-122 0 -205 79t-83 209l-1 478h130v-480q0 -75 43.5 -119.5t115.5 -44.5q88 0 161 67q-128 223 -128 379q0 93 55.5 153.5t143.5 60.5q92 0 147.5 -63t55.5 -166zM472 556
q-3 -117 78 -277q63 118 63 268q0 43 -19 68.5t-52 25.5q-32 0 -50.5 -25t-19.5 -60zM453 785q-25 0 -76 22.5t-69 22.5q-19 0 -34.5 -7t-22.5 -14.5t-17 -20.5v103q32 32 76 32q25 0 76 -22.5t69 -22.5q19 0 34.5 7t22.5 14.5t17 20.5v-103q-32 -32 -76 -32z" />
    <glyph glyph-name="Umacron" unicode="&#x16a;" horiz-adv-x="758" 
d="M104 322q-84 160 -84 256q0 89 55.5 138.5t145.5 49.5t146 -49t56 -137q0 -91 -84 -260l-44 -88l21 -37q24 -41 60 -64t76 -23q74 0 115 41.5t41 120.5v480h130l-1 -484q0 -135 -78 -208.5t-206 -73.5q-143 0 -224 113l-48 -97h-145q61 122 116 230q-26 48 -48 92z
M222 367l5 12q62 132 62 195q0 30 -19.5 48.5t-48.5 18.5q-30 0 -49 -19t-19 -50q0 -29 10.5 -65.5t20.5 -58.5t33 -69zM261 811v95h295v-95h-295z" />
    <glyph glyph-name="umacron" unicode="&#x16b;" horiz-adv-x="764" 
d="M744 537q0 -90 -33 -193t-93 -185q39 -64 108 -159h-145q-19 26 -47 68q-102 -84 -225 -84q-122 0 -205 79t-83 209l-1 478h130v-480q0 -75 43.5 -119.5t115.5 -44.5q88 0 161 67q-128 223 -128 379q0 93 55.5 153.5t143.5 60.5q92 0 147.5 -63t55.5 -166zM472 556
q-3 -117 78 -277q63 118 63 268q0 43 -19 68.5t-52 25.5q-32 0 -50.5 -25t-19.5 -60zM234 811v95h295v-95h-295z" />
    <glyph glyph-name="Ubreve" unicode="&#x16c;" horiz-adv-x="758" 
d="M104 322q-84 160 -84 256q0 89 55.5 138.5t145.5 49.5t146 -49t56 -137q0 -91 -84 -260l-44 -88l21 -37q24 -41 60 -64t76 -23q74 0 115 41.5t41 120.5v480h130l-1 -484q0 -135 -78 -208.5t-206 -73.5q-143 0 -224 113l-48 -97h-145q61 122 116 230q-26 48 -48 92z
M428 874q23 0 38 15.5t17 40.5h98q-2 -67 -44.5 -106.5t-108.5 -39.5t-108 39.5t-44 106.5h98q2 -25 16.5 -40.5t37.5 -15.5zM222 367l5 12q62 132 62 195q0 30 -19.5 48.5t-48.5 18.5q-30 0 -49 -19t-19 -50q0 -29 10.5 -65.5t20.5 -58.5t33 -69z" />
    <glyph glyph-name="ubreve" unicode="&#x16d;" horiz-adv-x="764" 
d="M744 537q0 -90 -33 -193t-93 -185q39 -64 108 -159h-145q-19 26 -47 68q-102 -84 -225 -84q-122 0 -205 79t-83 209l-1 478h130v-480q0 -75 43.5 -119.5t115.5 -44.5q88 0 161 67q-128 223 -128 379q0 93 55.5 153.5t143.5 60.5q92 0 147.5 -63t55.5 -166zM472 556
q-3 -117 78 -277q63 118 63 268q0 43 -19 68.5t-52 25.5q-32 0 -50.5 -25t-19.5 -60zM381 874q23 0 38 15.5t17 40.5h98q-2 -67 -44.5 -106.5t-108.5 -39.5t-108 39.5t-44 106.5h98q2 -25 16.5 -40.5t37.5 -15.5z" />
    <glyph glyph-name="Uring" unicode="&#x16e;" horiz-adv-x="758" 
d="M104 322q-84 160 -84 256q0 89 55.5 138.5t145.5 49.5t146 -49t56 -137q0 -91 -84 -260l-44 -88l21 -37q24 -41 60 -64t76 -23q74 0 115 41.5t41 120.5v480h130l-1 -484q0 -135 -78 -208.5t-206 -73.5q-143 0 -224 113l-48 -97h-145q61 122 116 230q-26 48 -48 92z
M222 367l5 12q62 132 62 195q0 30 -19.5 48.5t-48.5 18.5q-30 0 -49 -19t-19 -50q0 -29 10.5 -65.5t20.5 -58.5t33 -69zM338 864q0 46 32.5 78.5t78.5 32.5t78.5 -32.5t32.5 -78.5t-32.5 -78.5t-78.5 -32.5t-78.5 32.5t-32.5 78.5zM410 864q0 -16 11 -27.5t28 -11.5t28 11.5
t11 27.5t-11 27.5t-28 11.5t-28 -11.5t-11 -27.5z" />
    <glyph glyph-name="uring" unicode="&#x16f;" horiz-adv-x="764" 
d="M744 537q0 -90 -33 -193t-93 -185q39 -64 108 -159h-145q-19 26 -47 68q-102 -84 -225 -84q-122 0 -205 79t-83 209l-1 478h130v-480q0 -75 43.5 -119.5t115.5 -44.5q88 0 161 67q-128 223 -128 379q0 93 55.5 153.5t143.5 60.5q92 0 147.5 -63t55.5 -166zM472 556
q-3 -117 78 -277q63 118 63 268q0 43 -19 68.5t-52 25.5q-32 0 -50.5 -25t-19.5 -60zM231 864q0 46 32.5 78.5t78.5 32.5t78.5 -32.5t32.5 -78.5t-32.5 -78.5t-78.5 -32.5t-78.5 32.5t-32.5 78.5zM303 864q0 -16 11.5 -27.5t27.5 -11.5t27.5 11.5t11.5 27.5t-11.5 27.5
t-27.5 11.5t-27.5 -11.5t-11.5 -27.5z" />
    <glyph glyph-name="Uhungarumlaut" unicode="&#x170;" horiz-adv-x="758" 
d="M104 322q-84 160 -84 256q0 89 55.5 138.5t145.5 49.5t146 -49t56 -137q0 -91 -84 -260l-44 -88l21 -37q24 -41 60 -64t76 -23q74 0 115 41.5t41 120.5v480h130l-1 -484q0 -135 -78 -208.5t-206 -73.5q-143 0 -224 113l-48 -97h-145q61 122 116 230q-26 48 -48 92z
M222 367l5 12q62 132 62 195q0 30 -19.5 48.5t-48.5 18.5q-30 0 -49 -19t-19 -50q0 -29 10.5 -65.5t20.5 -58.5t33 -69zM460 849l-80 -59h-136l216 173v-114zM634 849l-84 -59h-136l220 173v-114z" />
    <glyph glyph-name="uhungarumlaut" unicode="&#x171;" horiz-adv-x="764" 
d="M744 537q0 -90 -33 -193t-93 -185q39 -64 108 -159h-145q-19 26 -47 68q-102 -84 -225 -84q-122 0 -205 79t-83 209l-1 478h130v-480q0 -75 43.5 -119.5t115.5 -44.5q88 0 161 67q-128 223 -128 379q0 93 55.5 153.5t143.5 60.5q92 0 147.5 -63t55.5 -166zM472 556
q-3 -117 78 -277q63 118 63 268q0 43 -19 68.5t-52 25.5q-32 0 -50.5 -25t-19.5 -60zM403 849l-80 -59h-136l216 173v-114zM577 849l-84 -59h-136l220 173v-114z" />
    <glyph glyph-name="Uogonek" unicode="&#x172;" horiz-adv-x="758" 
d="M603 -109l50 -86q-44 -36 -97 -36q-54 0 -83 28.5t-29 83.5v103q-138 4 -215 113l-48 -97h-145q61 122 116 230q-26 48 -48 92q-84 160 -84 256q0 89 55.5 138.5t145.5 49.5t146 -49t56 -137q0 -91 -84 -260l-44 -88l21 -37q24 -41 60 -64t76 -23q74 0 115 41.5t41 120.5
v480h130l-1 -484q0 -108 -50.5 -177t-138.5 -93v-101q0 -21 20 -21q15 0 35 17zM222 367l5 12q62 132 62 195q0 30 -19.5 48.5t-48.5 18.5q-30 0 -49 -19t-19 -50q0 -29 10.5 -65.5t20.5 -58.5t33 -69z" />
    <glyph glyph-name="uogonek" unicode="&#x173;" horiz-adv-x="764" 
d="M758 -109l50 -86q-44 -36 -97 -36q-54 0 -83 28.5t-29 83.5v119h-18q-19 26 -47 68q-102 -84 -225 -84q-122 0 -205 79t-83 209l-1 478h130v-480q0 -75 43.5 -119.5t115.5 -44.5q88 0 161 67q-128 223 -128 379q0 93 55.5 153.5t143.5 60.5q92 0 147.5 -63t55.5 -166
q0 -90 -33 -193t-93 -185q39 -64 108 -159h-23v-105q0 -21 20 -21q15 0 35 17zM472 556q-3 -117 78 -277q63 118 63 268q0 43 -19 68.5t-52 25.5q-32 0 -50.5 -25t-19.5 -60z" />
    <glyph glyph-name="Wcircumflex" unicode="&#x174;" horiz-adv-x="993" 
d="M980 750l2 -520q1 -109 -59.5 -177.5t-174.5 -68.5q-127 0 -197 106l-44 -90h-159l-328 750h145l265 -615l46 90q-40 75 -74 145q-59 118 -59 204q0 89 56.5 140.5t145.5 51.5q90 0 144.5 -50.5t54.5 -141.5t-56 -204l-72 -146l28 -47q20 -33 43 -49.5t61 -16.5
q48 0 75 29.5t27 79.5v530h130zM545 363l23 49q42 90 42 159q0 30 -18 50t-48 20t-47.5 -20t-17.5 -50q0 -67 43 -159zM544 865l-148 -96v110l93 64h109l93 -64v-110z" />
    <glyph glyph-name="wcircumflex" unicode="&#x175;" horiz-adv-x="1044" 
d="M623 107q69 0 118 71t59 223q-42 -12 -87 -12q-59 0 -103 18.5t-67 48.5t-34 61.5t-11 63.5q0 28 10 57.5t31.5 59.5t63.5 49t99 19q66 0 125 -40.5t85 -128.5q58 41 102 88l10 -151q-33 -30 -95 -71q-2 -217 -84 -348t-225 -131q-117 0 -191 103q-45 -103 -156 -103
q-119 0 -186 107t-67 283q0 123 57.5 228t148.5 148l65 -107q-68 -29 -105 -105t-37 -164q0 -114 33.5 -190.5t90.5 -76.5q58 0 60 100q1 64 -2 167h131q0 -112 45.5 -189.5t115.5 -77.5zM695 644q-31 0 -49.5 -16t-18.5 -42t18.5 -47.5t58.5 -24.5q41 -4 93 16
q-10 55 -38 84.5t-64 29.5zM472 865l-148 -96v110l93 64h109l93 -64v-110z" />
    <glyph glyph-name="Ycircumflex" unicode="&#x176;" horiz-adv-x="814" 
d="M20 630q0 72 27 120h138q-35 -45 -35 -118q0 -96 52 -165.5t139 -91.5l77 192q21 51 37.5 81.5t43 61.5t62 45t82.5 14q65 0 108 -43.5t43 -118.5q0 -141 -111 -246.5t-255 -115.5l-104 -245h-144l111 257q-121 35 -196 136.5t-75 236.5zM661 603q1 17 -8 28t-23 11
q-12 0 -22.5 -9t-22.5 -30t-18.5 -34.5t-19.5 -44.5l-62 -143q73 25 123.5 87.5t52.5 134.5zM407 865l-148 -96v110l93 64h109l93 -64v-110z" />
    <glyph glyph-name="ycircumflex" unicode="&#x177;" horiz-adv-x="773" 
d="M406 243v290q0 101 45.5 167t129.5 66q83 0 127.5 -58.5t44.5 -152.5q0 -159 -58 -259.5t-157 -143.5v-191q0 -82 -49 -132.5t-127 -50.5q-77 0 -129.5 50t-52.5 124q0 110 84 185q-118 34 -181 131.5t-63 227.5q0 132 64 254h129q-67 -135 -67 -254q1 -116 62.5 -184.5
t161.5 -69.5q24 0 36 1zM628 560q0 83 -44 83q-46 0 -46 -102v-250q90 75 90 269zM306 125l68 -70q-58 -56 -58 -110q0 -20 11.5 -32t31.5 -12q21 0 34 15.5t13 41.5v162q-11 -1 -33 -1q-35 0 -67 6zM377 865l-148 -96v110l93 64h109l93 -64v-110z" />
    <glyph glyph-name="Ydieresis" unicode="&#x178;" horiz-adv-x="814" 
d="M20 630q0 -135 75 -236.5t196 -136.5l-111 -257h144l104 245q144 10 255 115.5t111 246.5q0 75 -43 118.5t-108 43.5q-47 0 -82.5 -14t-62 -45t-43 -61.5t-37.5 -81.5l-77 -192q-87 22 -139 91.5t-52 165.5q0 73 35 118h-138q-27 -48 -27 -120zM661 603
q-2 -72 -52.5 -134.5t-123.5 -87.5l62 143q13 31 19.5 44.5t18.5 34.5t22.5 30t22.5 9q14 0 23 -11t8 -28zM375 936l32 -94l-82 -58l-81 58l31 94h100zM538 936l32 -94l-82 -58l-81 58l31 94h100z" />
    <glyph glyph-name="Zacute" unicode="&#x179;" horiz-adv-x="606" 
d="M586 750v-125l-130 -216q107 -72 107 -202q0 -96 -62.5 -159.5t-162.5 -63.5q-98 0 -154 52l82 102q30 -32 72 -32q44 0 71.5 30t27.5 73q0 62 -49 98q-38 -54 -62 -83q-28 -33 -68 -52t-80 -19q-69 0 -113.5 44.5t-44.5 113.5q0 72 53 118t131 46q71 2 140 -17l103 172
h-411v120h550zM184 272q18 0 36.5 15t28.5 28.5t24 36.5q-42 5 -66 5q-29 0 -47 -11.5t-18 -34.5q0 -18 11.5 -28.5t30.5 -10.5zM475 850l-102 -60h-162l264 179v-119z" />
    <glyph glyph-name="zacute" unicode="&#x17a;" horiz-adv-x="658" 
d="M638 751v-125q-113 -286 -195 -444q121 -82 121 -206q0 -96 -63 -159.5t-163 -63.5q-98 0 -154 52l82 102q30 -32 72 -32q44 0 71.5 30t27.5 73q0 56 -50 93q-44 -70 -92.5 -109.5t-116.5 -39.5q-69 0 -113.5 44.5t-44.5 113.5q0 72 53 118t131 46q62 1 126 -16
q39 71 83 172t69 166l24 65h-486v120h618zM184 41q18 0 36.5 15t28.5 28.5t24 36.5q-42 5 -66 5q-29 0 -47 -11.5t-18 -34.5q0 -18 11.5 -28.5t30.5 -10.5zM471 850l-102 -60h-162l264 179v-119z" />
    <glyph glyph-name="Zdotaccent" unicode="&#x17b;" horiz-adv-x="606" 
d="M586 750v-125l-130 -216q107 -72 107 -202q0 -96 -62.5 -159.5t-162.5 -63.5q-98 0 -154 52l82 102q30 -32 72 -32q44 0 71.5 30t27.5 73q0 62 -49 98q-38 -54 -62 -83q-28 -33 -68 -52t-80 -19q-69 0 -113.5 44.5t-44.5 113.5q0 72 53 118t131 46q71 2 140 -17l103 172
h-411v120h550zM365 936l32 -94l-82 -58l-81 58l31 94h100zM184 272q18 0 36.5 15t28.5 28.5t24 36.5q-42 5 -66 5q-29 0 -47 -11.5t-18 -34.5q0 -18 11.5 -28.5t30.5 -10.5z" />
    <glyph glyph-name="zdotaccent" unicode="&#x17c;" horiz-adv-x="658" 
d="M638 751v-125q-113 -286 -195 -444q121 -82 121 -206q0 -96 -63 -159.5t-163 -63.5q-98 0 -154 52l82 102q30 -32 72 -32q44 0 71.5 30t27.5 73q0 56 -50 93q-44 -70 -92.5 -109.5t-116.5 -39.5q-69 0 -113.5 44.5t-44.5 113.5q0 72 53 118t131 46q62 1 126 -16
q39 71 83 172t69 166l24 65h-486v120h618zM378 936l32 -94l-82 -58l-81 58l31 94h100zM184 41q18 0 36.5 15t28.5 28.5t24 36.5q-42 5 -66 5q-29 0 -47 -11.5t-18 -34.5q0 -18 11.5 -28.5t30.5 -10.5z" />
    <glyph glyph-name="Zcaron" unicode="&#x17d;" horiz-adv-x="606" 
d="M586 750v-125l-130 -216q107 -72 107 -202q0 -96 -62.5 -159.5t-162.5 -63.5q-98 0 -154 52l82 102q30 -32 72 -32q44 0 71.5 30t27.5 73q0 62 -49 98q-38 -54 -62 -83q-28 -33 -68 -52t-80 -19q-69 0 -113.5 44.5t-44.5 113.5q0 72 53 118t131 46q71 2 140 -17l103 172
h-411v120h550zM184 272q18 0 36.5 15t28.5 28.5t24 36.5q-42 5 -66 5q-29 0 -47 -11.5t-18 -34.5q0 -18 11.5 -28.5t30.5 -10.5zM171 964l148 -96l147 96v-110l-93 -64h-109l-93 64v110z" />
    <glyph glyph-name="zcaron" unicode="&#x17e;" horiz-adv-x="658" 
d="M638 751v-125q-113 -286 -195 -444q121 -82 121 -206q0 -96 -63 -159.5t-163 -63.5q-98 0 -154 52l82 102q30 -32 72 -32q44 0 71.5 30t27.5 73q0 56 -50 93q-44 -70 -92.5 -109.5t-116.5 -39.5q-69 0 -113.5 44.5t-44.5 113.5q0 72 53 118t131 46q62 1 126 -16
q39 71 83 172t69 166l24 65h-486v120h618zM184 41q18 0 36.5 15t28.5 28.5t24 36.5q-42 5 -66 5q-29 0 -47 -11.5t-18 -34.5q0 -18 11.5 -28.5t30.5 -10.5zM181 964l148 -96l147 96v-110l-93 -64h-109l-93 64v110z" />
    <glyph glyph-name="Aringacute" unicode="&#x1fa;" horiz-adv-x="739" 
d="M20 154q0 111 99 181q-8 15 -15 34q-25 63 -25 111q0 124 87 205t219 81q137 0 234.5 -97t98.5 -255l1 -414h-134q5 117 -74 195.5t-187 78.5l-20 -1q48 -90 48 -145q0 -60 -43 -102t-111 -42q-76 0 -127 43.5t-51 126.5zM229 410l10 -22q46 11 88 11q148 0 258 -104v104
q0 114 -59.5 180t-141.5 66q-75 0 -123 -46t-48 -118q0 -37 16 -71zM223 133q0 29 -41 97q-36 -30 -35 -77q1 -21 13 -36t30 -15q15 0 24 8.5t9 22.5zM258 894q0 -46 32.5 -78.5t78.5 -32.5t78.5 32.5t32.5 78.5t-32.5 78.5t-78.5 32.5t-78.5 -32.5t-32.5 -78.5zM330 894
q0 16 11 27.5t28 11.5t28 -11.5t11 -27.5t-11 -27.5t-28 -11.5t-28 11.5t-11 27.5zM561 1084l-102 -60h-162l264 179v-119z" />
    <glyph glyph-name="aringacute" unicode="&#x1fb;" horiz-adv-x="817" 
d="M797 368q-3 -138 -86 -241q41 -19 90 -22l1 -121q-111 4 -192 55q-93 -55 -201 -55q-162 0 -275.5 113.5t-113.5 277.5q0 163 113.5 277t275.5 114q89 0 166.5 -36.5t131.5 -101.5l-63 -57q69 -8 110.5 -63t42.5 -140zM449 369q1 71 38 129.5t104 71.5q-73 73 -182 73
q-114 0 -185.5 -76t-71.5 -192t71.5 -192t185.5 -76q59 0 109 21q-69 98 -69 241zM575 352q0 -82 42 -146q50 67 50 158q0 33 -12 56.5t-33 23.5q-22 0 -34.5 -25.5t-12.5 -66.5zM297 894q0 -46 32.5 -78.5t78.5 -32.5t78.5 32.5t32.5 78.5t-32.5 78.5t-78.5 32.5
t-78.5 -32.5t-32.5 -78.5zM369 894q0 16 11.5 27.5t27.5 11.5t27.5 -11.5t11.5 -27.5t-11.5 -27.5t-27.5 -11.5t-27.5 11.5t-11.5 27.5zM590 1087l-102 -60h-162l264 179v-119z" />
    <glyph glyph-name="AEacute" unicode="&#x1fc;" horiz-adv-x="1052" 
d="M615 467q76 59 166 59q74 0 123 -43.5t49 -114.5q0 -72 -47.5 -115t-121.5 -43q-76 0 -143 36l-1 -13q0 -56 38 -90.5t96 -34.5q54 0 96 40l89 -90q-74 -74 -187 -74q-153 0 -231 122q-4 7 -23.5 39t-26.5 41.5t-27.5 32t-37 31t-43.5 16.5t-59 8l-20 -1q48 -90 48 -145
q0 -61 -43 -102.5t-111 -41.5q-78 0 -128 43.5t-50 126.5q0 111 99 181q-47 94 -47 160q0 123 77.5 197t201.5 74q132 0 213 -90q83 90 214 90q76 0 144 -36.5t110 -103.5l-107 -71q-49 89 -151 89q-64 0 -112.5 -43t-48.5 -107q0 -19 2 -27zM353 645q-69 0 -108.5 -39.5
t-39.5 -110.5q0 -51 34 -107q46 11 80 11q128 0 206 -75l9 22q-36 51 -43 149q-11 150 -138 150zM780 409q-55 0 -99 -49q47 -35 99 -35q22 0 36.5 11t14.5 32t-14.5 31t-36.5 10zM223 133q0 29 -41 97q-36 -30 -35 -77q1 -21 13 -36t30 -15q15 0 24 8.5t9 22.5zM758 850
l-102 -60h-162l264 179v-119z" />
    <glyph glyph-name="aeacute" unicode="&#x1fd;" horiz-adv-x="1261" 
d="M1240 -16l1 121q-63 5 -114 27q61 80 87 179.5t26 173.5q0 49 -11.5 95t-34.5 88.5t-66.5 68.5t-100.5 26q-70 0 -121 -45.5t-72.5 -106.5t-21.5 -126q0 -78 27.5 -180t92.5 -182q-52 -27 -115 -27t-106 31q86 107 86 241q0 85 -42 140t-111 63l63 57q-54 65 -132 101.5
t-167 36.5q-161 0 -274.5 -115t-113.5 -279q0 -165 113 -276.5t276 -111.5q108 0 201 55q37 -24 95.5 -39.5t107.5 -15.5q121 0 213 56q92 -56 214 -56zM449 369q0 -143 69 -241q-52 -22 -109 -22q-114 0 -185.5 76t-71.5 191q0 116 71.5 193t185.5 77q109 0 182 -73
q-67 -13 -104.5 -72t-37.5 -129zM1112 482q0 -178 -83 -281q-88 96 -88 280q0 25 3.5 49t12.5 49.5t27.5 41t44.5 15.5q30 0 49.5 -27.5t26.5 -60t7 -66.5zM575 352q0 42 12 67t35 25q21 0 33 -23t12 -57q0 -91 -50 -158q-42 64 -42 146zM932 850l-102 -60h-162l264 179
v-119z" />
    <glyph glyph-name="Oslashacute" unicode="&#x1fe;" 
d="M417 764q-82 0 -138 -48.5t-57 -122.5l-72 77q-61 -54 -95 -130.5t-34 -163.5q-1 -86 33 -162t95 -130l-60 -84h137l17 22q67 -36 168 -36q166 0 279.5 113t113.5 277q0 162 -114.5 275t-272.5 113zM608 552h-139q-20 -36 -64 -36q-29 0 -47.5 18t-18.5 47
q0 30 20.5 49.5t54.5 19.5q116 0 187 -77t71 -197q0 -116 -73 -192.5t-188 -76.5q-48 0 -98 19zM150 376q1 113 73 189q5 -60 45.5 -102.5t102.5 -55.5l-150 -219q-71 77 -71 188zM634 850l-102 -60h-162l264 179v-119z" />
    <glyph glyph-name="oslashacute" unicode="&#x1ff;" 
d="M417 764q-82 0 -138 -48.5t-57 -122.5l-72 77q-61 -54 -95 -130.5t-34 -163.5q-1 -86 33 -162t95 -130l-60 -84h137l17 22q67 -36 168 -36q166 0 279.5 113t113.5 277q0 162 -114.5 275t-272.5 113zM608 552h-139q-20 -36 -64 -36q-29 0 -47.5 18t-18.5 47
q0 30 20.5 49.5t54.5 19.5q116 0 187 -77t71 -197q0 -116 -73 -192.5t-188 -76.5q-48 0 -98 19zM150 376q1 113 73 189q5 -60 45.5 -102.5t102.5 -55.5l-150 -219q-71 77 -71 188zM574 850l-102 -60h-162l264 179v-119z" />
    <glyph glyph-name="uni0218" unicode="&#x218;" horiz-adv-x="514" 
d="M45 194q0 112 90 170q-55 33 -85 75t-30 106q0 96 67 158.5t165 62.5q76 0 140 -40t102 -118l-95 -91q-23 49 -63 85.5t-84 36.5t-70.5 -24t-26.5 -65q0 -35 33.5 -61.5t103.5 -60.5q35 -17 55 -28t50.5 -33t47 -43.5t29.5 -54.5t13 -72q0 -93 -64.5 -153t-159.5 -60
q-94 0 -156 59.5t-62 150.5zM252 -192h-46l-32 94l83 60l82 -60l-26 -94q-12 -46 -36.5 -66t-70.5 -20v48q44 0 46 38zM350 194q0 47 -48 76q-17 7 -37 7q-36 0 -60.5 -22t-24.5 -61q0 -38 24.5 -60.5t60.5 -22.5t60.5 22.5t24.5 60.5z" />
    <glyph glyph-name="uni0219" unicode="&#x219;" horiz-adv-x="802" 
d="M177 0h-139l77 178q-95 132 -95 283h133q-2 -77 26 -137l180 426h147q-51 -56 -39.5 -113t80.5 -94l64 -34q174 -93 170 -259q-3 -129 -90 -198.5t-218 -69.5q-144 0 -262 97zM476 106q75 0 122 39t48 106q1 95 -92 144l-63 36q-28 17 -43 27t-30.5 26.5t-19.5 32.5
l-135 -314q95 -97 213 -97zM417 -192h-46l-32 94l83 60l82 -60l-26 -94q-12 -46 -36.5 -66t-70.5 -20v48q44 0 46 38z" />
    <glyph glyph-name="uni021A" unicode="&#x21a;" horiz-adv-x="780" 
d="M760 749v-133q-41 22 -80 22q-64 0 -163 -70v-568h-132v475q-59 -38 -142 -38q-102 0 -162.5 44.5t-60.5 119.5q0 70 63.5 117.5t166.5 47.5q60 0 117 -20.5t97 -55.5q107 78 205 78q50 0 91 -19zM446 -192h-46l-32 94l83 60l82 -60l-26 -94q-12 -46 -36.5 -66t-70.5 -20
v48q44 0 46 38zM247 642q-41 0 -64 -11.5t-23 -29.5t22 -29.5t63 -11.5q68 0 115 42q-40 40 -113 40z" />
    <glyph glyph-name="uni021B" unicode="&#x21b;" horiz-adv-x="524" 
d="M20 466v133h129v151h132v-151h222v-133h-151q152 -109 152 -270q0 -99 -48.5 -155.5t-127.5 -56.5q-86 0 -132.5 59.5t-46.5 156.5v238q-56 28 -129 28zM323 -192h-46l-32 94l83 60l82 -60l-26 -94q-12 -46 -36.5 -66t-70.5 -20v48q44 0 46 38zM376 193q0 101 -95 176
v-167q0 -91 47 -91q48 0 48 82z" />
    <glyph glyph-name="circumflex" unicode="&#x2c6;" horiz-adv-x="395" 
d="M198 865l-148 -96v110l93 64h109l93 -64v-110z" />
    <glyph glyph-name="caron" unicode="&#x2c7;" horiz-adv-x="395" 
d="M50 964l148 -96l147 96v-110l-93 -64h-109l-93 64v110z" />
    <glyph glyph-name="breve" unicode="&#x2d8;" horiz-adv-x="405" 
d="M202 874q23 0 38 15.5t17 40.5h98q-2 -67 -44.5 -106.5t-108.5 -39.5t-108 39.5t-44 106.5h98q2 -25 16.5 -40.5t37.5 -15.5z" />
    <glyph glyph-name="dotaccent" unicode="&#x2d9;" horiz-adv-x="263" 
d="M181 936l32 -94l-82 -58l-81 58l31 94h100z" />
    <glyph glyph-name="ring" unicode="&#x2da;" horiz-adv-x="322" 
d="M50 864q0 46 32.5 78.5t78.5 32.5t78.5 -32.5t32.5 -78.5t-32.5 -78.5t-78.5 -32.5t-78.5 32.5t-32.5 78.5zM122 864q0 -16 11 -27.5t28 -11.5t28 11.5t11 27.5t-11 27.5t-28 11.5t-28 -11.5t-11 -27.5z" />
    <glyph glyph-name="ogonek" unicode="&#x2db;" horiz-adv-x="309" 
d="M209 -109l50 -86q-44 -36 -97 -36q-54 0 -83 28.5t-29 83.5v145h104v-131q0 -21 20 -21q15 0 35 17z" />
    <glyph glyph-name="tilde" unicode="&#x2dc;" horiz-adv-x="395" 
d="M269 785q-25 0 -76 22.5t-69 22.5q-19 0 -34.5 -7t-22.5 -14.5t-17 -20.5v103q32 32 76 32q25 0 76 -22.5t69 -22.5q43 0 74 42v-103q-32 -32 -76 -32z" />
    <glyph glyph-name="hungarumlaut" unicode="&#x2dd;" horiz-adv-x="490" 
d="M266 849l-80 -59h-136l216 173v-114zM440 849l-84 -59h-136l220 173v-114z" />
    <glyph glyph-name="Wgrave" unicode="&#x1e80;" horiz-adv-x="993" 
d="M980 750l2 -520q1 -109 -59.5 -177.5t-174.5 -68.5q-127 0 -197 106l-44 -90h-159l-328 750h145l265 -615l46 90q-40 75 -74 145q-59 118 -59 204q0 89 56.5 140.5t145.5 51.5q90 0 144.5 -50.5t54.5 -141.5t-56 -204l-72 -146l28 -47q20 -33 43 -49.5t61 -16.5
q48 0 75 29.5t27 79.5v530h130zM545 363l23 49q42 90 42 159q0 30 -18 50t-48 20t-47.5 -20t-17.5 -50q0 -67 43 -159zM466 790l-102 60v119l264 -179h-162z" />
    <glyph glyph-name="wgrave" unicode="&#x1e81;" horiz-adv-x="1044" 
d="M623 107q69 0 118 71t59 223q-42 -12 -87 -12q-59 0 -103 18.5t-67 48.5t-34 61.5t-11 63.5q0 28 10 57.5t31.5 59.5t63.5 49t99 19q66 0 125 -40.5t85 -128.5q58 41 102 88l10 -151q-33 -30 -95 -71q-2 -217 -84 -348t-225 -131q-117 0 -191 103q-45 -103 -156 -103
q-119 0 -186 107t-67 283q0 123 57.5 228t148.5 148l65 -107q-68 -29 -105 -105t-37 -164q0 -114 33.5 -190.5t90.5 -76.5q58 0 60 100q1 64 -2 167h131q0 -112 45.5 -189.5t115.5 -77.5zM695 644q-31 0 -49.5 -16t-18.5 -42t18.5 -47.5t58.5 -24.5q41 -4 93 16
q-10 55 -38 84.5t-64 29.5zM422 790l-102 60v119l264 -179h-162z" />
    <glyph glyph-name="Wacute" unicode="&#x1e82;" horiz-adv-x="993" 
d="M982 230l-2 520h-130v-530q0 -50 -27 -79.5t-75 -29.5q-38 0 -61 16.5t-43 49.5l-28 47l72 146q56 113 56 204t-54.5 141.5t-144.5 50.5q-89 0 -145.5 -51.5t-56.5 -140.5q0 -86 59 -204q34 -70 74 -145l-46 -90l-265 615h-145l328 -750h159l44 90q70 -106 197 -106
q114 0 174.5 68.5t59.5 177.5zM568 412l-23 -49l-23 49q-43 92 -43 159q0 30 17.5 50t47.5 20t48 -20t18 -50q0 -69 -42 -159zM746 850l-102 -60h-162l264 179v-119z" />
    <glyph glyph-name="wacute" unicode="&#x1e83;" horiz-adv-x="1044" 
d="M623 107q-70 0 -115.5 77.5t-45.5 189.5h-131q3 -103 2 -167q-2 -100 -60 -100q-57 0 -90.5 76.5t-33.5 190.5q0 88 37 164t105 105l-65 107q-91 -43 -148.5 -148t-57.5 -228q0 -176 67 -283t186 -107q111 0 156 103q74 -103 191 -103q143 0 225 131t84 348q62 41 95 71
l-10 151q-44 -47 -102 -88q-26 88 -85 128.5t-125 40.5q-57 0 -99 -19t-63.5 -49t-31.5 -59.5t-10 -57.5q0 -32 11 -63.5t34 -61.5t67 -48.5t103 -18.5q45 0 87 12q-10 -152 -59 -223t-118 -71zM695 644q36 0 64 -29.5t38 -84.5q-52 -20 -93 -16q-40 3 -58.5 24.5
t-18.5 47.5t18.5 42t49.5 16zM654 850l-102 -60h-162l264 179v-119z" />
    <glyph glyph-name="Wdieresis" unicode="&#x1e84;" horiz-adv-x="993" 
d="M982 230l-2 520h-130v-530q0 -50 -27 -79.5t-75 -29.5q-38 0 -61 16.5t-43 49.5l-28 47l72 146q56 113 56 204t-54.5 141.5t-144.5 50.5q-89 0 -145.5 -51.5t-56.5 -140.5q0 -86 59 -204q34 -70 74 -145l-46 -90l-265 615h-145l328 -750h159l44 90q70 -106 197 -106
q114 0 174.5 68.5t59.5 177.5zM568 412l-23 -49l-23 49q-43 92 -43 159q0 30 17.5 50t47.5 20t48 -20t18 -50q0 -69 -42 -159zM524 936l32 -94l-82 -58l-81 58l31 94h100zM687 936l32 -94l-82 -58l-81 58l31 94h100z" />
    <glyph glyph-name="wdieresis" unicode="&#x1e85;" horiz-adv-x="1044" 
d="M623 107q-70 0 -115.5 77.5t-45.5 189.5h-131q3 -103 2 -167q-2 -100 -60 -100q-57 0 -90.5 76.5t-33.5 190.5q0 88 37 164t105 105l-65 107q-91 -43 -148.5 -148t-57.5 -228q0 -176 67 -283t186 -107q111 0 156 103q74 -103 191 -103q143 0 225 131t84 348q62 41 95 71
l-10 151q-44 -47 -102 -88q-26 88 -85 128.5t-125 40.5q-57 0 -99 -19t-63.5 -49t-31.5 -59.5t-10 -57.5q0 -32 11 -63.5t34 -61.5t67 -48.5t103 -18.5q45 0 87 12q-10 -152 -59 -223t-118 -71zM623 936l32 -94l-82 -58l-81 58l31 94h100zM460 936l32 -94l-82 -58l-81 58
l31 94h100zM695 644q36 0 64 -29.5t38 -84.5q-52 -20 -93 -16q-40 3 -58.5 24.5t-18.5 47.5t18.5 42t49.5 16z" />
    <glyph glyph-name="Ygrave" unicode="&#x1ef2;" horiz-adv-x="814" 
d="M20 630q0 72 27 120h138q-35 -45 -35 -118q0 -96 52 -165.5t139 -91.5l77 192q21 51 37.5 81.5t43 61.5t62 45t82.5 14q65 0 108 -43.5t43 -118.5q0 -141 -111 -246.5t-255 -115.5l-104 -245h-144l111 257q-121 35 -196 136.5t-75 236.5zM661 603q1 17 -8 28t-23 11
q-12 0 -22.5 -9t-22.5 -30t-18.5 -34.5t-19.5 -44.5l-62 -143q73 25 123.5 87.5t52.5 134.5zM387 790l-102 60v119l264 -179h-162z" />
    <glyph glyph-name="ygrave" unicode="&#x1ef3;" horiz-adv-x="773" 
d="M406 243v290q0 101 45.5 167t129.5 66q83 0 127.5 -58.5t44.5 -152.5q0 -159 -58 -259.5t-157 -143.5v-191q0 -82 -49 -132.5t-127 -50.5q-77 0 -129.5 50t-52.5 124q0 110 84 185q-118 34 -181 131.5t-63 227.5q0 132 64 254h129q-67 -135 -67 -254q1 -116 62.5 -184.5
t161.5 -69.5q24 0 36 1zM628 560q0 83 -44 83q-46 0 -46 -102v-250q90 75 90 269zM306 125l68 -70q-58 -56 -58 -110q0 -20 11.5 -32t31.5 -12q21 0 34 15.5t13 41.5v162q-11 -1 -33 -1q-35 0 -67 6zM326 790l-102 60v119l264 -179h-162z" />
    <glyph glyph-name="endash" unicode="&#x2013;" horiz-adv-x="545" 
d="M20 313v125h505v-125h-505z" />
    <glyph glyph-name="emdash" unicode="&#x2014;" horiz-adv-x="1050" 
d="M1030 313h-1010v125h1010v-125z" />
    <glyph glyph-name="quoteleft" unicode="&#x2018;" horiz-adv-x="243" 
d="M116 644h68l39 -117l-102 -73l-101 73q14 63 32 117q19 57 50.5 80.5t88.5 25.5v-53q-26 0 -49.5 -12t-25.5 -41z" />
    <glyph glyph-name="quoteright" unicode="&#x2019;" horiz-adv-x="243" 
d="M127 560h-68l-39 117l102 73l101 -73q-14 -63 -32 -117q-19 -57 -50.5 -80.5t-88.5 -25.5v53q26 0 49.5 12t25.5 41z" />
    <glyph glyph-name="quotesinglbase" unicode="&#x201a;" horiz-adv-x="243" 
d="M127 0h-68l-39 117l102 73l101 -73q-14 -63 -32 -117q-19 -57 -50.5 -80.5t-88.5 -25.5v53q26 0 49.5 12t25.5 41z" />
    <glyph glyph-name="quotedblleft" unicode="&#x201c;" horiz-adv-x="446" 
d="M319 644h68l39 -117l-102 -73l-101 73q14 63 32 117q19 57 50.5 80.5t88.5 25.5v-53q-26 0 -49.5 -12t-25.5 -41zM116 644h68l39 -117l-102 -73l-101 73q14 63 32 117q19 57 50.5 80.5t88.5 25.5v-53q-26 0 -49.5 -12t-25.5 -41z" />
    <glyph glyph-name="quotedblright" unicode="&#x201d;" horiz-adv-x="446" 
d="M127 560h-68l-39 117l102 73l101 -73q-14 -63 -32 -117q-19 -57 -50.5 -80.5t-88.5 -25.5v53q26 0 49.5 12t25.5 41zM330 560h-68l-39 117l102 73l101 -73q-14 -63 -32 -117q-19 -57 -50.5 -80.5t-88.5 -25.5v53q26 0 49.5 12t25.5 41z" />
    <glyph glyph-name="quotedblbase" unicode="&#x201e;" horiz-adv-x="446" 
d="M127 0h-68l-39 117l102 73l101 -73q-14 -63 -32 -117q-19 -57 -50.5 -80.5t-88.5 -25.5v53q26 0 49.5 12t25.5 41zM330 0h-68l-39 117l102 73l101 -73q-14 -63 -32 -117q-19 -57 -50.5 -80.5t-88.5 -25.5v53q26 0 49.5 12t25.5 41z" />
    <glyph glyph-name="dagger" unicode="&#x2020;" horiz-adv-x="545" 
d="M20 509h217v241h72v-241h216v-72h-216v-437h-72v437h-217v72z" />
    <glyph glyph-name="daggerdbl" unicode="&#x2021;" horiz-adv-x="545" 
d="M237 241h-217v72h217v124h-217v72h217v241h72v-241h216v-72h-216v-124h216v-72h-216v-241h-72v241z" />
    <glyph glyph-name="bullet" unicode="&#x2022;" horiz-adv-x="573" 
d="M20 375q0 113 77.5 190.5t188.5 77.5t189 -77.5t78 -190.5t-77.5 -190t-189.5 -77q-111 0 -188.5 77t-77.5 190z" />
    <glyph glyph-name="ellipsis" unicode="&#x2026;" horiz-adv-x="649" 
d="M223 117l-39 -117h-126l-38 117l101 73zM629 117l-39 -117h-126l-38 117l101 73zM426 117l-39 -117h-126l-38 117l101 73z" />
    <glyph glyph-name="perthousand" unicode="&#x2030;" horiz-adv-x="663" 
d="M643 281q0 -80 -67 -124q-8 -54 -49.5 -91t-97.5 -37q-61 0 -104.5 43.5t-43.5 104.5q0 80 67 124q8 54 49.5 91t97.5 37q61 0 104.5 -43.5t43.5 -104.5zM21 574q0 63 42.5 105t105.5 42t105.5 -42t42.5 -105t-42.5 -105t-105.5 -42t-105.5 42t-42.5 105zM20 0l483 750
h75l-483 -750h-75zM251 574q0 36 -23 59t-59 23t-59 -23t-23 -59t23 -59t59 -23t59 23t23 59zM345 177q0 -35 24 -59.5t60 -24.5q50 0 73 41h-7q-45 0 -82 24.5t-54 63.5q-14 -20 -14 -45zM579 281q0 35 -24 59.5t-60 24.5q-49 0 -72 -40h6q45 0 82 -25.5t54 -65.5
q14 20 14 47zM429 260q-10 0 -15 -1q8 -27 30 -44t51 -17q10 0 15 1q-8 27 -30.5 44t-50.5 17z" />
    <glyph glyph-name="guilsinglleft" unicode="&#x2039;" horiz-adv-x="291" 
d="M20 375l251 250v-162l-91 -88l91 -88v-162z" />
    <glyph glyph-name="guilsinglright" unicode="&#x203a;" horiz-adv-x="291" 
d="M20 625l251 -250l-251 -250v162l91 88l-91 88v162z" />
    <glyph glyph-name="fraction" unicode="&#x2044;" horiz-adv-x="598" 
d="M20 0l486 750h72l-486 -750h-72z" />
    <glyph glyph-name="Euro" unicode="&#x20ac;" horiz-adv-x="388" 
d="M255 140q-98 0 -166.5 68t-68.5 167t68.5 167t166.5 68q65 0 113 -30l-38 -64q-30 20 -75 20q-77 0 -125 -58h238v-73h-270q-2 -20 -2 -30q0 -19 2 -28h270v-74h-238q47 -58 125 -58q43 0 74 21l39 -66q-48 -30 -113 -30z" />
    <glyph glyph-name="trademark" unicode="&#x2122;" horiz-adv-x="750" 
d="M20 676v75h317v-75h-119v-375h-79v375h-119zM489 751l56 -274l57 274h128v-450h-77v331l-74 -331h-67l-74 331v-331h-77v450h128z" />
    <glyph glyph-name="minus" unicode="&#x2212;" horiz-adv-x="545" 
d="M20 313v125h505v-125h-505z" />
    <glyph glyph-name="approxequal" unicode="&#x2248;" horiz-adv-x="545" 
d="M386 399q-47 0 -120.5 41.5t-106.5 41.5q-34 0 -63 -13t-43.5 -27t-32.5 -36v133q59 61 138 61q47 0 123 -42t109 -42q34 0 62.5 14t40.5 26.5t32 37.5v-135q-60 -60 -139 -60zM386 149q-47 0 -120.5 41.5t-106.5 41.5q-34 0 -63 -13t-43.5 -27t-32.5 -36v133
q59 61 138 61q47 0 123 -42t109 -42q34 0 62.5 14t40.5 26.5t32 37.5v-135q-60 -60 -139 -60z" />
    <glyph glyph-name="notequal" unicode="&#x2260;" horiz-adv-x="545" 
d="M20 188v125h154l68 125h-222v125h289l30 54h130l-30 -54h86v-125h-153l-68 -125h221v-125h-289l-30 -55h-130l30 55h-86z" />
    <glyph glyph-name="lessequal" unicode="&#x2264;" horiz-adv-x="545" 
d="M20 0v125h505v-125h-505zM20 445v104l505 201v-135l-331 -118l331 -118v-132z" />
    <glyph glyph-name="greaterequal" unicode="&#x2265;" horiz-adv-x="545" 
d="M525 125v-125h-505v125h505zM525 549v-104l-505 -198v132l331 118l-331 118v135z" />
    <glyph glyph-name="f_f" unicode="&#xfb00;" horiz-adv-x="748" 
d="M475 656l251 100v-135l-213 -82v-100l215 85v-133l-75 -28q69 -61 69 -161q0 -108 -49.5 -163t-119.5 -55q-84 0 -127.5 57t-43.5 165v48l-46 -19q24 -38 24 -87q0 -75 -48.5 -119.5t-118.5 -44.5q-83 0 -128 50.5t-45 133.5v582h139q37 -88 127.5 -112t188.5 18z
M195 315l187 72v124q-71 -12 -133.5 9.5t-96.5 72.5v-439q0 -18 11.5 -30t30.5 -12q18 0 29 10.5t11 27.5q0 16 -11 26.5t-28 10.5v128zM594 199q0 47 -22.5 75t-58.5 30v-106q0 -86 40 -86q41 0 41 87z" />
    <glyph glyph-name="f_i" unicode="&#xfb01;" horiz-adv-x="781" 
d="M746 441v-441h-132v309h-248v-112q0 -101 -45.5 -157t-128.5 -56q-77 0 -124.5 55t-47.5 164q0 97 57 165.5t157 72.5v309h132l208 -82v-139l-208 83v-171h380zM729 667l32 -94l-82 -58l-81 58l31 94h100zM149 200q0 -87 43 -87q42 0 42 81v115q-85 -3 -85 -109z" />
    <glyph glyph-name="f_l" unicode="&#xfb02;" horiz-adv-x="911" 
d="M891 289v-139q-67 2 -110 -42t-41 -108h-126v514l-248 98v-171h208v-132h-208v-112q0 -101 -45.5 -157t-128.5 -56q-77 0 -124.5 55t-47.5 164q0 97 57 165.5t157 72.5v309h132l380 -149v-367q57 55 145 55zM149 200q0 -87 43 -87q42 0 42 81v115q-85 -3 -85 -109z" />
    <glyph glyph-name="CR" horiz-adv-x="400" 
 />
    <glyph glyph-name="C_T" horiz-adv-x="1317" 
d="M152 371q0 -115 73 -189t188 -74q63 0 120.5 27t92.5 75l77 -95q-111 -130 -294 -130q-172 0 -280.5 111.5t-108.5 271.5q0 163 114.5 280.5t274.5 117.5q91 0 159 -29q52 15 101 15q107 0 185 -56q80 70 204 70q104 0 170 -43t68 -111q1 -81 -68.5 -127t-175.5 -46
q-69 0 -121 27v-466h-132v579q-49 51 -113 55q33 -56 33 -116q0 -73 -46.5 -115.5t-118.5 -42.5q-74 0 -117.5 44t-43.5 111q0 62 43 128q-125 9 -204.5 -71t-79.5 -201zM1055 564q46 0 73.5 11.5t27.5 29.5q0 19 -28 29.5t-73 9.5q-33 0 -63.5 -13t-47.5 -31
q41 -36 111 -36zM519 515q0 -37 37 -37q16 0 26.5 10t10.5 26q0 47 -37 84q-37 -35 -37 -83z" />
    <glyph glyph-name="E_M" horiz-adv-x="1356" 
d="M305 -16q-129 0 -207 77.5t-78 198.5q0 78 41 143q-20 55 -20 116q0 109 75 178t183 69q112 0 185 -73l-89 -88q-40 37 -96 37t-93 -33.5t-37 -91.5l1 -13q67 36 143 36q75 0 122 -42t47 -115t-48.5 -116t-123.5 -43q-90 0 -159 53l-1 -15q0 -67 43 -111t112 -44
q62 0 106 32.5t78 111.5l213 499h159l45 -91q71 107 201 107q113 0 171 -68t58 -178v-520h-132v530q0 50 -26.5 80t-72.5 30q-41 0 -72 -26.5t-63 -87.5l72 -146q56 -113 56 -204t-55 -141.5t-145 -50.5q-89 0 -145 50.5t-56 139.5q0 88 59 206q34 70 74 145l-46 89
l-185 -426q-27 -61 -61.5 -103t-74.5 -63t-77 -29.5t-81 -8.5zM922 338l-23 49l-23 -49q-43 -96 -43 -159q0 -31 17 -50.5t48 -19.5t48.5 19.5t17.5 50.5q0 69 -42 159zM309 341q21 0 36 11.5t15 30.5t-15 30.5t-36 11.5q-54 0 -99 -36q41 -48 99 -48z" />
    <glyph glyph-name="S_T" horiz-adv-x="1020" 
d="M287 637q-59 0 -96 -23.5t-37 -65.5q0 -16 7 -29.5t27.5 -28t31.5 -21t46 -24.5q3 -2 5 -3l5 -2.5l5 -2.5q94 -50 128 -78q76 -64 76 -157q0 -95 -61.5 -156.5t-158.5 -61.5q-100 0 -166.5 63t-62.5 187h141q-9 -66 21.5 -95.5t63.5 -29.5q38 0 62.5 22t24.5 62
q0 36 -33 63t-97 62q-2 1 -3.5 1.5t-3 1.5t-3.5 2q-91 50 -124 80q-65 60 -65 143q0 69 39 120.5t98.5 75.5t129.5 24q134 0 252 -82q33 36 94.5 59t127.5 23q106 0 172 -42t66 -113q0 -81 -69.5 -126.5t-175.5 -45.5q-66 0 -120 24v-463h-132v554q-120 83 -215 83zM764 643
q-33 0 -67.5 -13t-49.5 -30q37 -34 114 -34q98 0 98 39q0 38 -95 38z" />
    <glyph glyph-name="s_p" horiz-adv-x="1125" 
d="M675 -166h-128v184q-43 19 -96 64q-29 -46 -78 -72.5t-108 -26.5q-96 0 -164.5 64t-64.5 188h142q-9 -68 18.5 -97t67.5 -29q39 0 62.5 22t23.5 61q0 20 -10.5 37.5t-34 35t-42.5 28.5t-54 30q-29 15 -40.5 21.5t-37 22t-36.5 25.5t-29 28t-25.5 35t-14 40.5t-6.5 49.5
q0 105 73.5 163t189.5 58h429q167 0 280 -111.5t113 -277.5q0 -163 -113.5 -277t-275.5 -114q-15 0 -41 2v-154zM711 643h-430q-60 0 -93.5 -22.5t-33.5 -64.5q0 -35 32 -61.5t95 -57.5q50 -25 57 -33q11 69 57 111t113 42q77 0 122 -60t45 -152v-234q26 -2 41 -2
q114 0 185.5 76t71.5 192t-72 191t-190 75zM460 355q1 -124 87 -192l1 180q0 82 -44 82q-20 0 -32 -20.5t-12 -49.5z" />
    <glyph glyph-name="commaaccent" horiz-adv-x="303" 
d="M147 -192h-46l-32 94l83 60l82 -60l-26 -94q-12 -46 -36.5 -66t-70.5 -20v48q44 0 46 38z" />
    <glyph glyph-name="commaaccent.alt" horiz-adv-x="303" 
d="M157 0h-68l-39 117l102 73l101 -73q-14 -63 -32 -117q-19 -57 -50.5 -80.5t-88.5 -25.5v53q26 0 49.5 12t25.5 41z" />
    <glyph glyph-name="caron.alt" horiz-adv-x="303" 
d="M148 575h-49l-39 109l92 66l91 -66l-28 -96q-20 -70 -43 -93.5t-77 -25.5v53q49 0 53 53z" />
    <glyph glyph-name="caron.cap" horiz-adv-x="395" 
d="M50 964l148 -96l147 96v-110l-93 -64h-109l-93 64v110z" />
    <glyph glyph-name="circumflex.cap" horiz-adv-x="395" 
d="M198 865l-148 -96v110l93 64h109l93 -64v-110z" />
    <glyph glyph-name="acute.cap" horiz-adv-x="364" 
d="M314 850l-102 -60h-162l264 179v-119z" />
    <glyph glyph-name="grave.cap" horiz-adv-x="364" 
d="M152 790l-102 60v119l264 -179h-162z" />
    <glyph glyph-name="macron.cap" horiz-adv-x="395" 
d="M50 811v95h295v-95h-295z" />
    <glyph glyph-name="breve.cap" horiz-adv-x="405" 
d="M202 874q23 0 38 15.5t17 40.5h98q-2 -67 -44.5 -106.5t-108.5 -39.5t-108 39.5t-44 106.5h98q2 -25 16.5 -40.5t37.5 -15.5z" />
    <glyph glyph-name="ring.cap" horiz-adv-x="322" 
d="M50 864q0 46 32.5 78.5t78.5 32.5t78.5 -32.5t32.5 -78.5t-32.5 -78.5t-78.5 -32.5t-78.5 32.5t-32.5 78.5zM122 864q0 -16 11 -27.5t28 -11.5t28 11.5t11 27.5t-11 27.5t-28 11.5t-28 -11.5t-11 -27.5z" />
    <glyph glyph-name="tilde.cap" horiz-adv-x="395" 
d="M269 785q-25 0 -76 22.5t-69 22.5q-19 0 -34.5 -7t-22.5 -14.5t-17 -20.5v103q32 32 76 32q25 0 76 -22.5t69 -22.5q43 0 74 42v-103q-32 -32 -76 -32z" />
    <glyph glyph-name="dotaccent.cap" horiz-adv-x="263" 
d="M181 936l32 -94l-82 -58l-81 58l31 94h100z" />
    <glyph glyph-name="hungarumlaut.cap" horiz-adv-x="490" 
d="M266 849l-80 -59h-136l216 173v-114zM440 849l-84 -59h-136l220 173v-114z" />
    <glyph glyph-name="dieresis.cap" horiz-adv-x="426" 
d="M181 936l32 -94l-82 -58l-81 58l31 94h100zM344 936l32 -94l-82 -58l-81 58l31 94h100z" />
    <glyph glyph-name="numbersign.alt" horiz-adv-x="545" 
d="M20 188v122h56v131h-56v122h56v54h127v-54h139v54h127v-54h56v-122h-56v-131h56v-122h-56v-55h-127v55h-139v-55h-127v55h-56zM203 441v-131h139v131h-139z" />
    <glyph glyph-name="slash.alt" horiz-adv-x="480" 
d="M20 0l318 750h122l-318 -750h-122z" />
    <glyph glyph-name="backslash.alt" horiz-adv-x="480" 
d="M142 750l318 -750h-122l-318 750h122z" />
    <glyph glyph-name="ampersand.alt" horiz-adv-x="1067" 
d="M567 206v260q0 87 -45.5 137t-120.5 50q-66 0 -108.5 -27t-56.5 -77q34 12 74 12q81 0 138 -44t57 -118q0 -77 -47.5 -118.5t-117.5 -41.5q-57 0 -106.5 24t-78.5 67q-8 -27 -8 -52q0 -77 54 -123t132 -46q72 0 137 19l23 -128q-83 -17 -157 -16q-141 0 -228.5 79
t-87.5 211q0 57 22 110.5t61 92.5q0 73 25 131t68 93t96 53t112 18q52 0 100.5 -16t91 -48t70 -86.5t32.5 -123.5h349v-133h-178q46 -59 46 -157q0 -109 -47 -166.5t-128 -57.5q-82 0 -127.5 60.5t-45.5 161.5zM742 111q47 0 47 98q0 66 -26 104t-64 49v-150q0 -101 43 -101
zM334 357q20 0 33 10.5t13 28.5q0 25 -24.5 37.5t-56.5 12.5q-38 0 -66 -16q34 -73 101 -73z" />
    <glyph glyph-name="m.ss02" horiz-adv-x="854" 
d="M778 0h-137q72 178 69 288q-1 81 -33 136t-74 75.5t-86 16.5q42 -75 76 -148q51 -110 51 -188q0 -90 -48.5 -142.5t-137.5 -52.5q-50 0 -91 17t-67 44.5t-43.5 65.5t-25 77.5t-7.5 82.5q0 82 34 172.5t90 130.5q-31 64 -95 64q-103 0 -103 -141v-498h-130v505
q0 35 6.5 69t23.5 69.5t43 62t67 43.5t93 17q137 0 206 -136q40 13 83 10.5t84.5 -12t79 -36.5t66 -64.5t45.5 -95t17 -128.5q0 -135 -56 -304zM454 111q26 0 42.5 17.5t16.5 48.5q0 49 -28 116q-14 34 -34 75t-33 65l-13 24q-52 -67 -52 -172q0 -28 5 -55.5t15.5 -55.5
t31.5 -45.5t49 -17.5z" />
    <glyph glyph-name="S.ss01" horiz-adv-x="514" 
d="M265 111q37 0 61 20.5t24 58.5q0 21 -9 38.5t-28.5 32.5t-37.5 25.5t-48 25.5q-5 3 -8.5 4.5t-7.5 3.5q-37 19 -57.5 30.5t-50 33.5t-44.5 42.5t-27 51.5t-12 67q0 97 65.5 159t166.5 62q76 0 140 -40t102 -118l-95 -92q-23 49 -63 86t-84 37q-43 0 -70 -24.5t-27 -66.5
q0 -22 19 -42t34.5 -29.5t61.5 -32.5q7 -4 11 -6q34 -17 47.5 -24.5t44 -26t45.5 -34t33.5 -39t26.5 -51t8 -60.5q0 -97 -62.5 -158t-160.5 -61q-97 0 -164 64t-63 188h142q-9 -66 21 -95.5t66 -29.5z" />
    <glyph glyph-name="Sacute.ss01" horiz-adv-x="514" 
d="M265 111q-36 0 -66 29.5t-21 95.5h-142q-4 -124 63 -188t164 -64q98 0 160.5 61t62.5 158q0 33 -8 60.5t-26.5 51t-33.5 39t-45.5 34t-44 26t-47.5 24.5q-82 42 -103 61q-23 23 -23 49q0 42 27 66.5t70 24.5q44 0 84 -37t63 -86l95 92q-38 78 -102 118t-140 40
q-101 0 -166.5 -62t-65.5 -159q0 -36 12 -67t27 -51.5t44.5 -42.5t50 -33.5t57.5 -30.5q82 -42 103 -61q36 -30 36 -69q0 -38 -24 -58.5t-61 -20.5zM429 850l-102 -60h-162l264 179v-119z" />
    <glyph glyph-name="Scircumflex.ss01" horiz-adv-x="514" 
d="M265 111q37 0 61 20.5t24 58.5q0 21 -9 38.5t-28.5 32.5t-37.5 25.5t-48 25.5q-5 3 -8.5 4.5t-7.5 3.5q-37 19 -57.5 30.5t-50 33.5t-44.5 42.5t-27 51.5t-12 67q0 97 65.5 159t166.5 62q76 0 140 -40t102 -118l-95 -92q-23 49 -63 86t-84 37q-43 0 -70 -24.5t-27 -66.5
q0 -22 19 -42t34.5 -29.5t61.5 -32.5q7 -4 11 -6q34 -17 47.5 -24.5t44 -26t45.5 -34t33.5 -39t26.5 -51t8 -60.5q0 -97 -62.5 -158t-160.5 -61q-97 0 -164 64t-63 188h142q-9 -66 21 -95.5t66 -29.5zM256 865l-148 -96v110l93 64h109l93 -64v-110z" />
    <glyph glyph-name="Scaron.ss01" horiz-adv-x="514" 
d="M265 111q37 0 61 20.5t24 58.5q0 21 -9 38.5t-28.5 32.5t-37.5 25.5t-48 25.5q-5 3 -8.5 4.5t-7.5 3.5q-37 19 -57.5 30.5t-50 33.5t-44.5 42.5t-27 51.5t-12 67q0 97 65.5 159t166.5 62q76 0 140 -40t102 -118l-95 -92q-23 49 -63 86t-84 37q-43 0 -70 -24.5t-27 -66.5
q0 -22 19 -42t34.5 -29.5t61.5 -32.5q7 -4 11 -6q34 -17 47.5 -24.5t44 -26t45.5 -34t33.5 -39t26.5 -51t8 -60.5q0 -97 -62.5 -158t-160.5 -61q-97 0 -164 64t-63 188h142q-9 -66 21 -95.5t66 -29.5zM106 964l148 -96l147 96v-110l-93 -64h-109l-93 64v110z" />
    <glyph glyph-name="Scedilla.ss01" horiz-adv-x="514" 
d="M159 -215l28 92q25 -22 55 -22q32 0 32 26q0 34 -65 27v82q-79 16 -128 78t-45 168h142q-9 -66 21 -95.5t66 -29.5q37 0 61 20.5t24 58.5q0 21 -9 38.5t-28.5 32.5t-37.5 25.5t-48 25.5q-5 3 -8.5 4.5t-7.5 3.5q-37 19 -57.5 30.5t-50 33.5t-44.5 42.5t-27 51.5t-12 67
q0 97 65.5 159t166.5 62q76 0 140 -40t102 -118l-95 -92q-23 49 -63 86t-84 37q-43 0 -70 -24.5t-27 -66.5q0 -22 19 -42t34.5 -29.5t61.5 -32.5q7 -4 11 -6q34 -17 47.5 -24.5t44 -26t45.5 -34t33.5 -39t26.5 -51t8 -60.5q0 -86 -50 -144.5t-132 -71.5v-21q29 -7 50 -31
t21 -60q0 -53 -36 -82t-86 -29q-57 0 -94 21z" />
    <glyph glyph-name="uni0218.ss01" horiz-adv-x="514" 
d="M265 111q37 0 61 20.5t24 58.5q0 21 -9 38.5t-28.5 32.5t-37.5 25.5t-48 25.5q-5 3 -8.5 4.5t-7.5 3.5q-37 19 -57.5 30.5t-50 33.5t-44.5 42.5t-27 51.5t-12 67q0 97 65.5 159t166.5 62q76 0 140 -40t102 -118l-95 -92q-23 49 -63 86t-84 37q-43 0 -70 -24.5t-27 -66.5
q0 -22 19 -42t34.5 -29.5t61.5 -32.5q7 -4 11 -6q34 -17 47.5 -24.5t44 -26t45.5 -34t33.5 -39t26.5 -51t8 -60.5q0 -97 -62.5 -158t-160.5 -61q-97 0 -164 64t-63 188h142q-9 -66 21 -95.5t66 -29.5zM260 -192h-46l-32 94l83 60l82 -60l-26 -94q-12 -46 -36.5 -66
t-70.5 -20v48q44 0 46 38z" />
    <glyph glyph-name="interfinity" horiz-adv-x="545" 
d="M171 117l97 70q-81 2 -136 49.5t-55 117.5q0 71 50 111q-82 42 -82 127q0 63 45.5 104t110.5 41q40 0 71 -16v45q91 0 159 -47.5t68 -126.5q0 -85 -82 -127q50 -40 50 -111q0 -70 -56 -117.5t-135 -49.5l98 -68l-39 -119h-126zM374 584q0 21 -19.5 37.5t-53.5 19.5
l-34 -53q-15 35 -52 35q-18 0 -29.5 -11t-11.5 -28q0 -23 24.5 -42.5t73.5 -19.5q50 0 76 18t26 44zM343 358q0 27 -20 44.5t-51 17.5t-51 -17.5t-20 -44.5q0 -26 20 -43t51 -17t51 17t20 43z" />
    <glyph glyph-name="KN&RP" horiz-adv-x="810" 
d="M770 362h-186l-10 -11l195 -20l-1 -7l-197 21l-5 -10l197 -41l-2 -7l-113 24q18 -6 21 -27l85 -27l-2 -7l-83 27q-4 -14 -7 -21l79 -35l-3 -6l-78 34q-2 -4 -2 -13q0 -7 6 -15l60 -34l-3 -6l-49 28q5 -10 5 -20q0 -7 -3 -13l29 -21l-4 -6l-29 21q-6 -5 -29 -12l38 -34
l-5 -5l-38 35q-2 -1 -8 -8.5t-11 -9.5l35 -39l-5 -5l-38 43q-15 0 -15 -23l29 -39l-6 -5l-26 36q-3 -15 -19 -21l18 -32l-6 -4l-19 34q-16 -2 -26.5 8t-10.5 24q0 12 7 21l-30 53q0 -11 -9 -20l60 -134l-6 -3l-59 132q-6 -6 -14 -7l44 -135l-7 -2l-43 136q-10 0 -18 5
l31 -149l-7 -2l-33 158q-9 9 -11.5 32.5t-10.5 38.5l14 -130q22 -7 24 -33q2 -23 -17 -31l4 -41h-6l-5 38h-7q-11 0 -20 6v-46h-7v53q-4 9 -23 22l-8 -73h-7l9 76q-14 7 -23 7l-17 -77l-6 1l16 77q-13 0 -27 -8l-19 -61l-7 2l17 53q-14 -11 -32 -8l-14 -33l-6 2l14 33
q-16 9 -17 25l-25 -44l-6 4l140 246l6 -3l-96 -170q14 2 26 20.5t18 22.5l32 72l6 -3l-28 -63q8 3 15 2l37 114l6 -2l-36 -113q10 -2 14 -5l12 60l7 -1l-13 -63q7 -4 12 -17l15 137l6 -1l-16 -148q8 -18 18 -22v111h7v-114q10 -4 21 -4l-15 138q-8 8 -9 21q-1 12 7.5 22.5
t22.5 11.5q7 1 16.5 -2t11.5 -3l-7 8l5 4l9 -10q1 0 8 10l-10 7l4 5l10 -7q5 8 9 11l-14 6l3 6l17 -7q3 1 7 3t6.5 3.5t4.5 3.5l-31 7l1 6l32 -7q1 10 -1 18h-30v6h28q-4 9 -5 16l-24 -5l-1 6l24 5q-3 8 0 17l-28 -12l-3 6l34 15q4 11 14 18l-2 3l97 55l-14 15l-134 -96
l-4 5l135 97q-3 9 -3 23l-90 -81l-4 5l97 87q8 24 32 30l38 34l5 -5l-31 -28q18 0 30 -12l21 15l4 -6l-20 -14q10 -13 10 -28l28 16l3 -6l-31 -18q0 -9 -6.5 -19.5t-7.5 -16.5l59 26l3 -6l-62 -27q1 -9 22 -18l51 16l2 -7l-45 -14q14 -8 18 -23l34 7l2 -7l-35 -7
q1 -24 -22 -30l62 7l1 -7l-171 -18l-8 -13h180v-6zM321 254l6 -4l-133 -182l-5 4l60 82q-9 -3 -18 -3t-13 1l-54 -60l-5 5l53 58q-8 5 -15 18l-60 -54l-5 5l62 56q0 2 -2 10.5t-4 12.5l-76 -54l-4 5l77 55q-7 12 -29 10l-66 -38l-3 6l52 30q-21 0 -36 11l-30 -13l-3 6l30 13
q-7 10 -7 27l-34 -11l-2 7l37 12q9 24 36 26q17 1 25 -7l116 37l2 -6l-113 -36q10 -12 24 -12l12 5q1 1 8 9.5t14.5 12.5t18.5 4q4 0 14 -2l79 35l3 -6l-74 -33q6 -3 9 -6l15 9l4 -6l-15 -9q2 -2 6 -7l60 42l4 -5l-61 -43q3 -6 3 -10l16 14l4 -5l-20 -18q-1 -10 -10 -28
l75 83l5 -4l-83 -92q-1 -6 -0.5 -14t0.5 -12zM266 354l1 -6l-224 -24l-1 7l153 16q-13 5 -19 15h-136v6h133q-3 8 -3 18l-128 13l1 7l128 -14q0 2 8 17l-131 27l2 7l132 -28l4 17l-129 41l2 7l127 -41q-1 11 -12 24l-104 46l3 7l93 -42q-5 7 -5 17q0 1 2 9l-76 43l3 6
l76 -43q6 10 18 15l-76 54l4 6l82 -59q22 0 30 -20l47 -35q25 0 34 -24l37 -27l-4 -5l-32 22q0 -8 -6 -18l33 -14l-3 -6l-35 15q-7 -8 -22 -8q-21 0 -22 -1l75 -16l-1 -6l-76 16v-11l18 -2l-1 -6l-17 2q0 -4 -3 -10h78v-6h-81q-4 -7 -11 -11zM227 558q-20 -6 -36 9.5
t-7 37.5l-25 28l5 5l25 -28q9 8 24 13l-25 35l6 4l27 -37q13 5 20 19l-20 35l6 4l18 -32q7 15 20 24l-10 22l6 3l10 -22q10 4 17 4q4 0 12 -2l-10 30l7 2l11 -35q27 -13 27 -41q0 -12 -7 -22l55 -171l-6 -2l-53 165q-6 -8 -15 -12l44 -100l-6 -3l-45 100q-1 -1 -5 -1.5
t-9 -1t-7 -0.5l86 -152l-6 -3l-87 154q-15 -2 -21 -6l74 -101l-6 -4l-73 100l-16 -14l122 -135l-5 -4zM409 505h-7v225h7v-107q8 14 23 17l9 87l7 -1l-9 -85q9 0 20 -7l18 88l7 -2l-19 -89q5 -3 13 -3q2 0 8 -2l28 86l7 -2l-28 -86q10 -5 15 -19l42 95l6 -3l-47 -106
q1 -8 -7 -16l-25 -55q0 -8 -1 -14q-5 -28 -31 -32l-11 -33l-6 2l10 32q-9 3 -16 10l-5 -40l-6 1l5 47q-3 6 -3 13q0 14 7 21l5 52q-10 6 -16 16v-90zM450 433l-6 3l140 247l6 -4zM462 423l-5 4l190 211l5 -5zM325 351l1 -6l-276 -58l-2 7zM400 446l-6 -1l-31 281l7 1z
M566 150q4 2 5 5.5t1.5 9.5t1.5 8l-75 83q-3 -2 -6 -6zM490 476l-6 4l133 182l6 -4zM380 502l-7 -1l-46 219l7 2zM540 139q2 2 5 3.5t7.5 2.5t6.5 2l-69 96q-3 -10 2 -20zM304 460l-4 -5l-168 151l5 5zM576 181q5 9 13 15l-70 63q-4 3 -13 0zM596 198q2 1 7.5 1t9.5 1.5
t6 5.5l-71 52q-4 -2 -15 -2zM622 212q3 13 -2 26l-57 33q-4 -6 -9 -10zM661 415l-61 -12v-6q0 -6 -1 -9l91 10q-18 0 -29 17zM554 443q10 0 15 -2l59 26q0 11 -4 19l-76 -43h6zM639 313l-74 15q-1 -3 -1 -11l49 -16q7 12 26 12zM627 459l-51 -22q6 -3 12 -10l39 12
q-1 10 0 20zM616 248q-10 16 -12 26l-36 16q0 -3 -2 -13zM592 421q5 -7 6 -12l52 11q-11 3 -20 13zM604 281q0 5 4 15l-44 14l3 -13zM225 492q0 -13 1 -20l24 -14q9 7 12 7zM445 569q-6 5 -13 7l-5 -42l12 8zM242 454l-15 9q4 -14 15 -9z" />
    </font>
</defs>
</svg>
