<svg xmlns="http://www.w3.org/2000/svg" xmlns:xlink="http://www.w3.org/1999/xlink" viewBox="0 0 610 126"><defs><style>.a{clip-path:url(#b);}.b{fill:#161616;}</style><clipPath id="b"><rect width="610" height="126"/></clipPath></defs><g id="a" class="a"><g transform="translate(10 5)"><path class="b" d="M20.67,115.14H0V2.38H49.07c9.69,0,18.67,3.13,25.28,8.82A30.909,30.909,0,0,1,85.18,35.36,31.085,31.085,0,0,1,74.35,59.6c-6.63,5.74-15.61,8.89-25.29,8.89H20.67ZM1,114.14H19.67V67.5H49.08c23.05,0,35.11-16.16,35.11-32.13,0-15.89-12.06-31.98-35.11-31.98H1ZM49.52,49.87H19.67V21.01H49.52c9.72,0,16,5.64,16,14.36C65.52,43.91,58.94,49.87,49.52,49.87Zm-28.85-1H49.52c10.36,0,15-6.78,15-13.51,0-8.11-5.89-13.36-15-13.36H20.67Z"/><path class="b" d="M177.52,115.14H156.08l-.07-.41c-2.31-12.85-3.38-22.49-3.83-26.6l-.04-.4c-1.38-13.12-6.67-19.22-16.64-19.22H110.07v46.64H89.4V2.38h46.09c9.69,0,18.67,3.13,25.28,8.82A30.909,30.909,0,0,1,171.6,35.36a31.438,31.438,0,0,1-11.48,24.13c5.51,4.48,11.25,11.39,12.97,27.67.62,5.7,1.66,13.97,4.31,27.37Zm-20.6-1h19.39c-2.57-13.09-3.6-21.22-4.21-26.86-1.73-16.38-7.58-23.03-13.07-27.38l-.49-.38.48-.39c5.29-4.37,11.59-12.03,11.59-23.75,0-15.89-12.06-31.98-35.11-31.98H90.4V114.15h18.67V67.5H135.5c10.44,0,16.21,6.58,17.63,20.12l.04.4C153.62,92.07,154.67,101.52,156.92,114.14ZM135.94,49.87H109.07V21.01h26.87c9.72,0,16,5.64,16,14.36C151.94,44.18,145.66,49.87,135.94,49.87Zm-25.87-1h25.87c9.11,0,15-5.3,15-13.51,0-8.11-5.89-13.36-15-13.36H110.07Z"/><path class="b" d="M237.41,117.52c-32.95,0-58.76-25.81-58.76-58.76S204.46,0,237.41,0s58.76,25.81,58.76,58.76S270.36,117.52,237.41,117.52ZM237.41,1c-32.39,0-57.76,25.37-57.76,57.76s25.37,57.76,57.76,57.76,57.76-25.37,57.76-57.76S269.8,1,237.41,1Zm0,98.04a39.777,39.777,0,0,1-40.13-40.28c0-22.67,17.63-40.43,40.13-40.43a39.925,39.925,0,0,1,40.28,40.43A39.848,39.848,0,0,1,237.41,99.04Zm0-79.71c-21.94,0-39.13,17.32-39.13,39.43a39.205,39.205,0,1,0,78.41,0A38.934,38.934,0,0,0,237.41,19.33Z"/><path class="b" d="M326.51,117.52c-16.36,0-26.13-12.39-26.13-33.13,0-16.64,9.98-34.9,31.89-35.94V2.38l20.35.03,31.31,12.34V36.54L352.94,24.17V48.41h30.99V69.08H352.94V85.27C352.94,105.77,343.31,117.52,326.51,117.52ZM333.27,3.38V49.4l-.48.02c-15.63.56-31.4,11.59-31.4,34.96,0,20.42,9.16,32.13,25.13,32.13,16.16,0,25.43-11.39,25.43-31.24V68.09h30.99V49.43H351.95V22.71l30.99,12.37V15.44L352.34,3.38ZM326.51,98.3c-4.58,0-6.91-4.53-6.91-13.46,0-10.49,4.67-16.44,13.15-16.74l.52-.02V85.73C333.27,96.67,329.03,98.3,326.51,98.3Zm5.76-29.18c-7.63.5-11.67,5.92-11.67,15.72,0,8.27,1.99,12.46,5.91,12.46,3.71,0,5.76-4.11,5.76-11.57Z"/><path class="b" d="M408.81,115.14H388.14V2.38h20.67Zm-19.67-1h18.67V3.38H389.14Z"/><path class="b" d="M438.86,117.52c-15.21,0-25.83-9.76-25.83-23.74,0-13.93,10.86-24.04,25.83-24.04a32.487,32.487,0,0,1,18.68,5.84L485.45,2.39h21.63L474.49,87.91c8.58,5.27,16.92,8.05,24.12,8.05a24.929,24.929,0,0,0,14.02-3.94l.78-.54V112.1l-.27.14c-2.5,1.3-7.97,3.48-16.47,3.48-10.55,0-21.19-3.55-31.63-10.55A32.508,32.508,0,0,1,438.86,117.52Zm0-46.79c-14.39,0-24.83,9.69-24.83,23.04,0,13.39,10.21,22.74,24.83,22.74a31.525,31.525,0,0,0,25.68-12.32l.29-.37.39.26c10.4,7.06,20.98,10.64,31.46,10.64a36.519,36.519,0,0,0,15.74-3.23V93.35a26.516,26.516,0,0,1-13.8,3.61c-7.49,0-16.13-2.91-25-8.42l-.35-.22.15-.38L505.64,3.39H486.15L458.03,77.12l-.52-.36A31.774,31.774,0,0,0,438.86,70.73Zm0,28.91c-4.4,0-7.35-2.36-7.35-5.86,0-3.45,3.02-5.86,7.35-5.86,3.27,0,7.12,1.43,11.45,4.25l.44.29-.3.42C447.23,97.36,443.34,99.64,438.86,99.64Zm0-10.73c-3.74,0-6.35,2-6.35,4.86,0,2.96,2.49,4.86,6.35,4.86,4.05,0,7.48-1.94,10.46-5.92C445.33,90.19,441.82,88.91,438.86,88.91Z"/><path class="b" d="M588.35,115.14H517.62V2.38h70.73V22.01H538.29V48.87h50.06V68.5H538.29V95.51h50.06Zm-69.73-1h68.73V96.51H537.29V67.5h50.06V49.87H537.29V21.01h50.06V3.38H518.62Z"/></g></g></svg>