<?xml version="1.0" encoding="utf-8"?>
<!-- Generator: Adobe Illustrator 23.0.1, SVG Export Plug-In . SVG Version: 6.00 Build 0)  -->
<svg version="1.1" id="Layer_1" xmlns="http://www.w3.org/2000/svg" xmlns:xlink="http://www.w3.org/1999/xlink" x="0px" y="0px"
	 viewBox="0 0 1245 534" style="enable-background:new 0 0 1245 534;" xml:space="preserve">
<style type="text/css">
	.st0{clip-path:url(#SVGID_2_);}
</style>
<g>
	<defs>
		<rect id="SVGID_1_" width="1245" height="534"/>
	</defs>
	<clipPath id="SVGID_2_">
		<use xlink:href="#SVGID_1_"  style="overflow:visible;"/>
	</clipPath>
	<g id="Artboard_1" class="st0">
		<g id="Group_21" transform="translate(0 -0.093)">
			<path id="Path_114" d="M31,48.1C31,60.2,46.3,67,62.6,74.9c19.3,9.4,41.5,21.1,41.5,48.5c0,28.6-21.3,48.1-51.8,48.1
				c-21.5,0-44.1-16.9-52.3-34.7l20.9-20.2c5.9,12.5,17.8,27,31.8,27c12.1,0,22-6.8,22-19.5c0-10.8-12.7-16.5-27.9-24.2
				C27.2,90.1,2,78,2,48.3C2,20.9,22.8,0.2,52.5,0.2c21.5,0,43.1,16.9,51.2,34.5L82.6,54.9c-6.2-12.3-16.5-27-30.5-27
				C40.2,27.9,31,35.6,31,48.1z"/>
			<path id="Path_115" d="M112.9,3.5h102.8V31h-73.8V72h73.8v27.5h-73.8v41.3h73.8v27.5H112.9V3.5z"/>
			<path id="Path_116" d="M289.7,111.8L331,3.5h30.3l-47.9,125.6c14.5,9,26.8,12.3,36.5,12.3s16.9-3.1,21.1-5.9v28.6
				c-5.5,2.9-13.8,5.1-23.9,5.1c-13.2,0-29-3.7-46.8-15.8c-8.8,11.2-21.5,18.4-38.4,18.4c-21.5,0-37.3-13.8-37.3-34.3
				s16-34.7,37.3-34.7C273.2,102.8,282,106.5,289.7,111.8z M278.3,135.7c-5.1-3.3-11-6.1-16.5-6.1c-5.7,0-10.1,3.1-10.1,7.9
				c0,5.1,4.4,7.9,10.1,7.9C266.9,145.4,272.8,143.4,278.3,135.7L278.3,135.7z"/>
			<path id="Path_117" d="M379.8,3.5h102.8V31h-73.8V72h73.8v27.5h-73.8v41.3h73.8v27.5H379.8V3.5z"/>
			<path id="Path_118" d="M626,116.6l20.2,20.2c-16.1,22-41.7,35-69,34.9c-47.4,0-85.9-37.3-85.9-85.9S529.8,0,577.2,0
				c28.8,0,53.4,13.4,69,34.9L626,55.1C616.3,38,599.2,27,577.2,27C544.1,27,519,52.7,519,85.9s25,58.6,58.2,58.6
				C599.2,144.5,616.3,133.8,626,116.6z"/>
			<path id="Path_119" d="M650.6,3.5h116V31h-43.5v137.3h-29V31h-43.5V3.5z"/>
			<path id="Path_120" d="M775.3,3.5h102.8V31h-73.8V72h73.8v27.5h-73.8v41.3h73.8v27.5H775.3V3.5z"/>
			<path id="Path_121" d="M886.9,3.5h51c47.2,0,86.1,34.3,86.1,82.4s-38.9,82.4-86.1,82.4h-51V3.5z M937.9,140.8
				c33.6,0.2,57.1-21.5,57.1-54.9S971.5,31,937.9,31h-22v109.8H937.9z"/>
			<path id="Path_122" d="M723.1,298.9c0.2,30.8-16.9,54-51.4,54c-20.2,0-33.8-9-43.3-23.3l-9.7,19.8h-34.9l-72-164.7h31.8
				l58.2,135.1l10.1-19.8c-5.7-10.8-11.4-22-16.3-31.8c-8.8-17.6-13-32.3-13-44.8c0-26.8,18.9-42.2,44.4-42.2
				c25.7,0,43.7,14.9,43.7,42.2c0,12.5-3.7,27.5-12.3,44.8l-15.8,32.1l6.2,10.3c5.1,8.3,10.8,14.5,22.8,14.5
				c14.1,0,22.4-9.4,22.4-23.9V184.7h28.6L723.1,298.9z M632.1,259c4.6-9.9,9.2-23.7,9.2-34.9c0-8.8-5.7-15.4-14.5-15.4
				c-9,0-14.3,6.8-14.3,15.4c0,11,4.6,24.6,9.4,34.9l5.1,10.8L632.1,259z"/>
			<path id="Path_123" d="M815.8,181.2c47.4,0,85.9,37.3,85.9,85.9S863.2,353,815.8,353s-85.9-37.3-85.9-85.9
				S768.3,181.2,815.8,181.2z M815.8,325.7c32.5,0,58.6-25.5,58.6-58.6s-26.1-58.9-58.6-58.9s-58.4,25.7-58.4,58.9
				S783.3,325.7,815.8,325.7z"/>
			<path id="Path_124" d="M939.4,280.7v68.8h-29V184.7h67.2c28.1,0,52.5,18.2,52.5,47.9c0,15.2-7.2,27.2-17.4,35.6
				c9.4,7.5,17.1,18,19.5,40.9c0.9,8.1,2.4,20.4,6.4,40.4h-30.1c-3.5-19.5-5.1-33.8-5.7-39.8c-1.8-16.7-8.1-29-25.3-29H939.4z
				 M978.3,212.2h-38.9v41.1h38.9c12.5,0,22.8-7,22.8-20.6S990.8,212.2,978.3,212.2z"/>
			<path id="Path_125" d="M1186.7,184.7V217l-94.9,50.1l98.6,82.4H1147l-70.5-59.1v59.1h-29V184.7h29v60.6L1186.7,184.7z"/>
			<path id="Path_126" d="M1243.9,250.2l-22.4,16l-22.2-16l8.3-25.7h27.7L1243.9,250.2z M1243.9,323.8l-22.4-16l-22.2,16l8.3,25.7
				h27.7L1243.9,323.8z"/>
			<path id="Path_129" d="M304.4,433.1c34.7,0,56.5-19.3,56.5-55.6v-11.6h29v164.7h-29v-89c-12.3,13.8-34.5,20.9-56.5,19.8
				L304.4,433.1z"/>
			<path id="Path_130" d="M519,365.9v27.5l-86.5,137.3h-33.8l87.6-137.3h-74.7v-27.5H519z"/>
			<path id="Path_131" d="M517.9,434.5h110.9v27.5H517.9V434.5z"/>
			<path id="Path_132" d="M637.6,433.1c34.7,0,56.5-19.3,56.5-55.6v-11.6h29v164.7h-29v-89c-12.3,13.8-34.5,20.9-56.5,19.8V433.1z"
				/>
			<path id="Path_133" d="M749.2,445.9c-9.6-9.1-15-21.7-14.9-34.9c0-27.5,22.6-48.5,49.2-48.5s49,21.1,49,48.5
				c0,13.2-5.4,25.8-14.9,34.9c11,9.3,17.4,22.9,17.4,37.3c0,28.6-23.7,51-51.4,51s-51.6-22.4-51.6-51
				C731.8,468.8,738.2,455.2,749.2,445.9z M760.6,483.2c0,13,9.7,23.1,22.8,23.1c13,0,22.6-10.1,22.6-23.1s-9.2-23.3-22.6-23.3
				S760.6,470.3,760.6,483.2L760.6,483.2z M804.6,411c0-11.6-9.4-21.5-21.1-21.5c-11.8,0.1-21.3,9.7-21.3,21.5
				c0,11.6,9.2,22,21.3,22S804.6,422.6,804.6,411z"/>
		</g>
	</g>
</g>
</svg>
